<svg xmlns="http://www.w3.org/2000/svg" viewBox="0 0 394.03 376.22"><defs><style>.cls-1{fill:#79aa49;}.cls-2{fill:#7ba248;}.cls-3,.cls-5,.cls-6{fill:none;stroke-miterlimit:10;stroke-width:0.25px;}.cls-3{stroke:#2a7841;}.cls-4{fill:#9bb11e;}.cls-5{stroke:#718231;}.cls-6{stroke:#749748;}.cls-7{fill:#81a967;}.cls-8{fill:#f9bc00;}.cls-9{fill:#7e9f65;}.cls-10{fill:#e46c00;}.cls-11{fill:#ee7a00;}.cls-12{fill:#f18e00;}.cls-13{fill:#ed7700;}.cls-14{fill:#e47600;}.cls-15{fill:#ac3e91;}.cls-16{fill:#f39b00;}.cls-17{fill:#e3673e;}.cls-18{fill:#f9be00;}.cls-19{fill:#f5a900;}.cls-20{fill:gold;}.cls-21{fill:#f7b100;}.cls-22{fill:#f4a300;}.cls-23{fill:#f9bf00;}.cls-24{fill:#fac300;}.cls-25{fill:#fdd100;}.cls-26{fill:#fcce00;}.cls-27{fill:#9abdb2;}.cls-28{fill:#83b5b1;}.cls-29{fill:#5daaa9;}.cls-30{fill:#6dafb0;}.cls-31{fill:#6d8b6c;}.cls-32{fill:#adcbcb;}.cls-33{fill:#659a96;}.cls-34{fill:#9cbbbb;}.cls-35{fill:#8ec1b9;}.cls-36{fill:#659f89;}.cls-37{fill:#699871;}.cls-38{fill:#90bbc5;}.cls-39{fill:#a967a6;}.cls-40{fill:#b570aa;}.cls-41{fill:#ee8ab5;}.cls-42{fill:#c56da7;}.cls-43{fill:#df75a9;}.cls-44{fill:#d47bae;}.cls-45{fill:#c571a9;}.cls-46{fill:#ba6aa6;}.cls-47{fill:#ec81b0;}.cls-48{fill:#e577aa;}.cls-49{fill:#d874a9;}.cls-50{fill:#dd7eaf;}.cls-51{fill:#da74a9;}</style></defs><title>rose</title><g id="Layer_2" data-name="Layer 2"><g id="Layer_1-2" data-name="Layer 1"><path class="cls-1" d="M140.16,166.48s-4.65-7,68.57,50.42,107.33,51.82,107.33,51.82,23.31,6.52-5.11,1.57c0,0-35.15,3-104.36-48.72s-29.72-38-72.78-52.53l.16-5.16"/><path class="cls-1" d="M268.65,258.13s1.21,12.42,3.73,16.75L270.45,276s-4.29-12.82-4.9-19.42Z"/><path class="cls-2" d="M271,276.33s25.18-1.63,25.68,21.3-1.73,38.16,5.31,49.29c0,0-21.54-3.59-40.4-28.12C247,299.89,247.08,283.11,271,276.33Z"/><path class="cls-2" d="M270.21,273.45s18.83-4.8,26.53,17.61L294,287s5.21,8.94,4.32,26.88a31.32,31.32,0,0,0-1.65-3.31s.2,15.94,2.33,22.73a15,15,0,0,1-1.83-3l-14.93,7.8s.56,2.43,1.18,3a86.54,86.54,0,0,1-17.4-17s.35,3.07,1.14,4.06c0,0-12-14.43-14.35-25.81a13.39,13.39,0,0,0-.19,4.49S241.72,280.71,270.21,273.45Z"/><path class="cls-1" d="M304.22,269.8s29.55-33.1,67.37-6.66A171.22,171.22,0,0,0,394,276.26s-15.16,30.09-58.15,28C335.88,304.26,304.06,301.61,304.22,269.8Z"/><path class="cls-2" d="M394,276.26s-4.1,9.15-16.44,17.49a13.51,13.51,0,0,0,4-.59A53.65,53.65,0,0,1,355.8,303s1.45,1.62,2.92,1.55-15.22,2.54-27.43-1a4.2,4.2,0,0,0,1.7,2.64s-16.77-4.94-24.16-18.34a14.38,14.38,0,0,0,.41,3.76s-8.34-14.31-4.43-22.19c0,0,5-10.21,27.46-16.93,0,0-1.45,1.19-2.59,2.24a60.3,60.3,0,0,1,25.12-2.42,16.84,16.84,0,0,0-4.2,1.35s14.62,1.93,26.56,10.46a32.73,32.73,0,0,0-4.42-.25S391.31,275.87,394,276.26Z"/><path class="cls-3" d="M300.5,346s-26-34.06-29-72.37"/><path class="cls-3" d="M297.41,334.46s-7.64-7-11.3-12.44c0,0,1,13.21,4.39,20.87"/><path class="cls-3" d="M297.36,329.55s-11.13-10.22-15.2-16.25c0,0,.75,20.2,4.45,27.38"/><path class="cls-3" d="M296.77,324.1a211.71,211.71,0,0,0-17-16.71s-1.13,20.68,3,30.27"/><path class="cls-3" d="M296.18,318.12s-13.24-12.21-19.35-18.38a76.53,76.53,0,0,0,2.81,38.19"/><path class="cls-3" d="M296.35,314.08a231.25,231.25,0,0,0-21.59-21.94s-6.05,18.06.29,40.83"/><path class="cls-3" d="M298.33,309.84s-8.9-15-25.13-23.84c0,0-10.62,20-3.4,42.58"/><path class="cls-3" d="M297.67,301.49s-13.95-16.57-25-19.08c0,0-14.29,11.9-10.76,38.31"/><path class="cls-3" d="M296.48,294.2s-12.65-12-24.12-14.11c0,0-17,11.26-16.33,30.55"/><path class="cls-3" d="M294,287s-13.6-9.45-21.93-9.2c0,0-19.23,7.7-20.66,24.06"/><path class="cls-3" d="M292.79,282.88s-12-8.53-21-7.7c0,0-16.54,4.61-21.11,19.63"/><path class="cls-1" d="M224.09,229.64s10.5-6.74,13.19-11l1.87,1.21s-9.44,9.68-15,13.24Z"/><path class="cls-2" d="M239.23,219.29s-12.95-21.67,7.21-32.58,34.74-15.89,41.43-27.24c0,0,6.64,20.8-6.57,48.79C271.13,229.83,256.16,237.42,239.23,219.29Z"/><path class="cls-2" d="M237,221.26s-12.87-14.55,3.55-31.65L238.18,194s5.57-8.72,21.94-16.13a31.43,31.43,0,0,0-2.2,3s14.09-7.46,19.16-12.45a14.56,14.56,0,0,1-1.84,3L289,181.06s1.9-1.6,2.13-2.41A87.18,87.18,0,0,1,284,201.88s2.57-1.71,3.09-2.87c0,0-7.36,17.25-16.41,24.56a13.31,13.31,0,0,0,4.09-1.89S256.48,243.29,237,221.26Z"/><path class="cls-3" d="M287.67,161.19s-18.43,38.68-51.12,58.88"/><path class="cls-3" d="M278.85,169.19s-2.72,10-5.9,15.73c0,0,11.31-6.89,16.55-13.43"/><path class="cls-3" d="M274.51,171.48s-4,14.57-7.51,20.94c0,0,17.62-9.89,22.32-16.46"/><path class="cls-3" d="M269.93,174.49a209.24,209.24,0,0,0-7.07,22.8s18.9-8.44,25.53-16.54"/><path class="cls-3" d="M264.88,177.75s-4.82,17.36-7.52,25.61a76.51,76.51,0,0,0,32.69-20"/><path class="cls-3" d="M261.21,179.44a231.46,231.46,0,0,0-9.67,29.23s18.84-2.87,36.2-18.9"/><path class="cls-3" d="M256.53,179.62s-9.32,14.79-9.72,33.24c0,0,22.66.3,39.42-16.42"/><path class="cls-3" d="M249.4,184S241,204,243.84,215c0,0,17.12,7.27,39-7.94"/><path class="cls-3" d="M243.46,188.42s-4.87,16.71-1.53,27.89c0,0,17.77,10,34.63.58"/><path class="cls-3" d="M238.18,194S236,210.37,240,217.66c0,0,15.63,13.58,30.83,7.38"/><path class="cls-3" d="M235.07,196.87s-2.08,14.59,2.76,22.21c0,0,11.66,12.61,27.11,9.81"/><path class="cls-3" d="M304.48,270.7c37.5,9.25,87.42,6.93,87.42,6.93"/><path class="cls-3" d="M384.16,286.9s-12.83-4.8-20.05-9.09c0,0,11-5.65,19-7"/><path class="cls-3" d="M378.39,291.44s-15.19-8.6-22.86-14.11c0,0,13.11-7.39,24.69-8.48"/><path class="cls-3" d="M373.05,296.66c-.43-.15-23-6.16-37.11-20.81,0,0,12.46-8,36-11.16"/><path class="cls-3" d="M364.8,298.76S337.29,290,327.61,275c0,0,25.22-17.91,46.7-12.06"/><path class="cls-3" d="M353.83,304.36s-27.73-14.47-37.3-31.09c0,0,21.23-16.78,47.49-14.68"/><path class="cls-3" d="M338.11,303.84s-24.27-19.4-26.86-31.67c0,0,12.31-12.33,38.15-18.12"/><path class="cls-3" d="M329.08,301.87s-19.81-16.53-21.87-30.4c0,0,5.84-8.42,21.84-15.69"/><path class="cls-3" d="M377,294.89s-28-11.73-34.48-18.53c0,0,17.18-8.43,34.37-9.57"/><path class="cls-3" d="M361,301.41s-27.09-8.61-38.65-27.19c0,0,20.52-15.3,48.41-14"/><path class="cls-3" d="M357.53,255.18S325,259.3,314,272.87c0,0,1,9.46,31.68,32.09"/><path class="cls-3" d="M388.29,284.14A138.21,138.21,0,0,0,375.61,278s8.93-4,12.28-4.52"/><path class="cls-2" d="M263.94,253.85s14.56-7.7,28.51-10.46l-.39-2.57s-14.14,3.07-32.95,11.87Z"/><path class="cls-4" d="M286.13,244.73s8.34,16,33.92,7.61,34.87-30.47,48.18-36.8c0,0-39.13-10.28-65.76,1.31S286.13,244.73,286.13,244.73Z"/><path class="cls-4" d="M285.85,244.14s5.35,12.63,24.61,11.85l-4.12-1.49s11.63,2.24,30.22-8.5l-5.2,1.06s10.19-3.93,21.48-15.07l-4.94,2.06,17-17.93s-15.65-4.4-22.85-4.43a43.51,43.51,0,0,1,6.13-1.57c1.55-.1-13.35-1.66-27.71,2.13,0,0,3.56-1.7,4.38-2.18s-16.75,1.74-27.89,9.78c0,0,1.71-2.7,2.3-3.52S278.33,230.33,285.85,244.14Z"/><path class="cls-5" d="M367,215.74s-37.77,5.5-81.1,28.4"/><path class="cls-5" d="M355.55,225.9a79.17,79.17,0,0,0-19.41-2.44s11.85-7.35,17.74-10.39"/><path class="cls-5" d="M351.56,229.85s-21.7-3.33-23.29-4.06c0,0,10-9.61,18.59-13.59"/><path class="cls-5" d="M347.9,233.78s-16.33-2.27-31.21-3.68c0,0,13.94-12.3,25.38-18.41"/><path class="cls-5" d="M347.29,236.87s-20.49,3.27-38.7-3.37c0,0,10.09-15.1,31.1-23.65"/><path class="cls-5" d="M340.86,241.62s-26,1.39-39-5.16c0,0,10.88-17.61,30.67-26"/><path class="cls-5" d="M333,246s-19.52,1.86-39-5.87c0,0,9.55-16.92,27-28"/><path class="cls-5" d="M326.89,250.6s-28.79.32-38.14-7.78c0,0,5.79-18.44,22.73-29.69"/><path class="cls-5" d="M313.44,254.29s-18.48-2.48-26.66-10.52c0,0,.69-11.9,10.66-24"/><path class="cls-2" d="M224.86,233.51s-3.13,9.17-3.35,14l-1.44,0a34.49,34.49,0,0,1,2.47-16.42Z"/><path class="cls-1" d="M222.34,243S259.27,267.6,238,308.55a172.18,172.18,0,0,0-10.09,23.95s-31.81-11.11-35.33-54C192.56,278.5,190.78,247,222.34,243Z"/><path class="cls-2" d="M227.89,332.5s-9.6-2.87-19.48-14a13.88,13.88,0,0,0,1.1,3.85,53.68,53.68,0,0,1-13.09-24.26s-1.42,1.65-1.16,3.1-4.51-14.76-2.6-27.33a4.21,4.21,0,0,0-2.39,2s2.71-17.26,15-26.34a14,14,0,0,0-3.68.9s13.1-10.14,21.42-7.29c0,0,10.77,3.59,20.37,25,0,0-1.37-1.28-2.56-2.27a60.26,60.26,0,0,1,5.67,24.59,16.8,16.8,0,0,0-1.88-4s0,14.75-6.91,27.69a33.71,33.71,0,0,0-.33-4.41S227.93,329.76,227.89,332.5Z"/><path class="cls-3" d="M226.26,330.57s-9.31-47-4.7-87.45"/><path class="cls-3" d="M231.23,322.83s-7.38-13.94-8.93-19.67c0,0-2.78,17-2.79,24.25"/><path class="cls-3" d="M233.06,318.54s-8.85-13.82-11.46-22.31c0,0-7.11,19.85-6.59,28.15"/><path class="cls-3" d="M235,314.5s-8.59-14.87-13.77-23.67c0,0-7.57,15.61-10.15,30.21"/><path class="cls-3" d="M236.62,310.17s-9.75-16.26-15.93-25.87c0,0-14.28,22.38-14.71,33.59"/><path class="cls-3" d="M240.51,307.31s-8.92-18.95-20.08-30c0,0-12.39,14.8-18.3,34.51"/><path class="cls-3" d="M242,301.88s-9-21.07-21.77-32.11c0,0-15.42,16.9-21.05,36.27"/><path class="cls-3" d="M243.35,295.48s-10.9-19.07-23-31.62c0,0-14.91,14.37-24,33.57"/><path class="cls-3" d="M244.13,287.38s-16.22-22.16-23.61-27.47c0,0-18.73,17.83-26.69,35.41"/><path class="cls-3" d="M245.66,284.68s-10.25-17.2-25-29.26c0,0-7.81,3.15-27.71,33.45"/><path class="cls-3" d="M244.44,278.15s-8.67-15.91-23.65-27.28c0,0-23,17.41-28.08,31.32"/><path class="cls-3" d="M241.85,268.33S231,254.12,221,248.68c0,0-18.31,9.37-29.56,23.43"/><path class="cls-3" d="M240,262s-11.33-13.1-18.61-15.86c0,0-19.15,7.81-27.61,19.21"/><path class="cls-1" d="M288.53,144.16s-1.93-4.4-3.37-5.68l.57-.63a46.82,46.82,0,0,1,4.12,6.51Z"/><path class="cls-2" d="M285.51,137.78s-9,3.62-11.95-4.7-3.94-14.16-7.85-17.39c0,0,8.31-1.27,18.14,5.44C291.44,126.3,293.42,132.44,285.51,137.78Z"/><path class="cls-2" d="M286.12,138.75s-6.3,4-11.81-3.26l1.51,1.16s-3-2.64-4.81-9.31a13,13,0,0,0,1,1s-2-5.81-3.58-8a5.47,5.47,0,0,1,1,.87l4.53-4.64s-.5-.82-.79-1a33.68,33.68,0,0,1,8.4,4.12,4.51,4.51,0,0,0-.91-1.35s6.11,3.83,8.34,7.71a5.09,5.09,0,0,0-.47-1.66S295.67,132.67,286.12,138.75Z"/><path class="cls-6" d="M266.36,115.87s13.58,9.34,19.28,23"/><path class="cls-1" d="M282.2,153.77s4.77.56,6.6,0l.26.82a47.53,47.53,0,0,1-7.7.25Z"/><path class="cls-2" d="M289.23,154.4s1.45-9.61,10.11-7.91,14.2,3.78,19,2c0,0-3.11,7.8-13.88,12.88C296.12,165.33,289.82,163.92,289.23,154.4Z"/><path class="cls-2" d="M288.09,154.44s-.26-7.47,8.79-8.53l-1.76.71s3.78-1.23,10.46.58a12.89,12.89,0,0,0-1.38.34s6,1.24,8.73,1a5.66,5.66,0,0,1-1.28.44l1.71,6.26a3.76,3.76,0,0,0,1.23-.2,33.64,33.64,0,0,1-7.81,5.15,4.34,4.34,0,0,0,1.61-.1s-6.4,3.32-10.88,3.28a5.28,5.28,0,0,0,1.68.44S288.48,165.74,288.09,154.44Z"/><path class="cls-6" d="M317.83,149s-14.94,7-29.59,5"/><path class="cls-2" d="M169,288.23s-9.47,5.63-13.22,9.66l-1.27-1s5.36-8.17,14.25-12.41Z"/><path class="cls-1" d="M159.77,294.6s13.87,48.53-34.76,68.31a195,195,0,0,0-26.4,13.31s-19.37-33.08,9.2-72.84C107.81,303.38,129.5,274.79,159.77,294.6Z"/><path class="cls-2" d="M98.61,376.22s-6.21-9.57-6.55-26.5a15.52,15.52,0,0,0-1.89,4.15,61.12,61.12,0,0,1,6.54-30.68s-2.44.39-3.28,1.84,7-16.11,17.9-25.6a4.87,4.87,0,0,0-3.58,0s15.09-13,32.46-11.73a16.39,16.39,0,0,0-3.85-1.94s18.82.88,23.93,9.48c0,0,6.69,11.05-.8,36.7,0,0-.24-2.12-.54-3.86a68.76,68.76,0,0,1-13.22,25.49,19.52,19.52,0,0,0,1.31-4.85s-10.88,12.77-26.41,18.9a37.2,37.2,0,0,0,3-4.07S100.66,373.88,98.61,376.22Z"/><path class="cls-3" d="M98.61,373.34s26.6-47.58,60.42-79.22"/><path class="cls-3" d="M108.63,370.3s3.88-17.51,6.77-23.62c0,0-14.93,12.65-20.3,19"/><path class="cls-3" d="M113.38,367.94s2.52-18.5,6.52-27.78c0,0-20.79,11.95-26.47,19.53"/><path class="cls-3" d="M118,365.84s3.53-19.21,5.54-30.65c0,0-18.07,7.94-31.08,18.69"/><path class="cls-3" d="M122.63,363.31s3.55-21.27,5.28-34.16c0,0-28.88,8.86-37.52,18.26"/><path class="cls-3" d="M128.1,363.7s6.25-23,4.71-40.77c0,0-21.65,3.68-41.3,16.41"/><path class="cls-3" d="M133.38,360.07s7.72-24.9,4.8-43.88c0,0-25.81,3.28-45,15.91"/><path class="cls-3" d="M139.29,355.55s4.62-24.56,3.41-44.34c0,0-23.51,1.45-45.59,11.36"/><path class="cls-3" d="M145.94,349.1s2.29-31.15-.2-41.2c0,0-29.38,1.63-49.23,11"/><path class="cls-3" d="M149.26,347.89s3.8-22.45,0-43.75c0,0-9.09-3-48.67,8.54"/><path class="cls-3" d="M153,341.34s4.21-20.18-.38-41.08c0,0-32.78-1.88-47.42,6.43"/><path class="cls-3" d="M158,330.92s1.11-20.29-3.55-32.38c0,0-22.77-5.38-42.88-1.49"/><path class="cls-3" d="M161.06,324s-.15-19.71-4.42-27.47c0,0-22.35-7.35-38.09-3.72"/><path class="cls-7" d="M148.56,200.39s-46.4,30.53-112.32-9.24L35,193.47s64.63,40.66,115,9.49Z"/><path class="cls-8" d="M10.64,191.65S1.71,186.55,3,177.88c0,0,1.6-6.12,9.93-6.42s9.21.93,13.49,4.7-6.22,17.12-6.44,17.21S10.64,191.65,10.64,191.65Z"/><path class="cls-7" d="M37.05,194s-5.56,8.62-16.65,1.82c-7.95-4.88-12.41-3.62-15-3.92,0,0,11-4.7,13.7-4.58s-2.26-6.64-4.67-7.57,7.28,1.44,9.69,2.37S18,169.13,19.35,170.39c2.68,2.45,2.79,1.64,12.77,8.07C37.39,181.85,41.61,187.89,37.05,194Z"/><path class="cls-7" d="M49.89,199.9s-5.22,4.48-10.64,6.18l.55,1s7.45-2.9,11.54-7Z"/><path class="cls-7" d="M21.9,215.62s6.6,5.95,13.1,1,6-10.84,6-10.84a14.84,14.84,0,0,0-9.54-.31C26.49,207.08,21.27,212.07,21.9,215.62Z"/><path class="cls-9" d="M41,206.11a2,2,0,0,0,0-.36,14.84,14.84,0,0,0-9.54-.31c-4.91,1.63-10.09,6.56-9.54,10.11A112.47,112.47,0,0,0,41,206.11Z"/><path class="cls-7" d="M49.83,199.12a30.23,30.23,0,0,0-2.69-13.59l.69-.13s3.59,7.19,2.82,14.31Z"/><path class="cls-7" d="M47.68,186.88S40.76,186,40,180.19s2.92-12,2.93-11.83S54.77,176.45,47.68,186.88Z"/><path class="cls-9" d="M42.92,168.36l0,0c.77,7.86,4,15.94,4.94,18.24C54.57,176.32,42.94,168.58,42.92,168.36Z"/><path class="cls-7" d="M61.64,205.72s-1.25,3.63-8.26,8.24l.63.88s4.56-2.22,9.08-8.75Z"/><path class="cls-7" d="M54.76,213.5s-6.19-1.11-9.29,2.54A15,15,0,0,0,42,223.67a10.22,10.22,0,0,0,10.83-2.52C57.74,216.17,54.76,213.5,54.76,213.5Z"/><path class="cls-9" d="M45.47,216A15,15,0,0,0,42,223.67a1.33,1.33,0,0,0,.23.08c2.52-1.38,8.57-5,12.76-10a2,2,0,0,0-.24-.28S48.57,212.39,45.47,216Z"/><path class="cls-7" d="M62.84,194s1.29,8.27.06,11.78l-.75-.06s.86-7.89-.45-11.47Z"/><path class="cls-7" d="M62.65,196.24s-17.17-6.82-4.57-20.75C58.08,175.49,72,181.76,62.65,196.24Z"/><path class="cls-9" d="M62.72,196.12c8.76-13.67-3.3-20-4.54-20.58C58.55,178.92,59.81,188.77,62.72,196.12Z"/><path class="cls-10" d="M319.85,78.74s6.53,4.59,5.64,10.94-8.16,11.41-12.09,12.79c-7.51,2.65-13.09-3.93-13.09-3.93s11-1.4,14.79-5.08S326.86,87.79,319.85,78.74Z"/><path class="cls-10" d="M287,90.39s0,4.59.34,7.9c.87,9.39,1.63,14.16,10.52,18.16,11.1,5,13.48-14.55,13.49-14.61Z"/><path class="cls-10" d="M290.74,77.92s-1.8.57-3,4,3.73,11,3.73,11l5.8,4.54,1-1.86Z"/><path class="cls-10" d="M322.34,99.36s-7.28,1-9.91,5l-3.61,1.55-7.11-6Z"/><path class="cls-11" d="M304.41,69.52s13.67,3.25,17.38,10.82c2.58,5.27,1.57,8.52-1,11.61a18.3,18.3,0,0,1-10.09,6.12c-3.17.64-6.65,3.05-9.07,2s-7.11-7.32-7.11-7.32-3.24-5.55-3.23-7,1.37.55,1.37.55,7.7,10,9.89,9.4S310,89.13,310.21,88,307.77,77.88,304.41,69.52Z"/><path class="cls-10" d="M302.16,94.32c2-.6,4-5,4.79-6.59,1.23-.53,2-1.18,2-2-.06-3.61.83-9.06,1.05-12,.36.09-2.61-3.14-2.19-3,3.52,2.49,12.49,12.79,10.87,17.47C316.4,94.69,306.2,99,300.21,98a21.07,21.07,0,0,1-5-1.39c-1.94-2.08-3.74-4.47-3.74-4.47l-.61-1.07a11.68,11.68,0,0,1,2.6-.73C295.68,92.9,301,94.66,302.16,94.32Z"/><path class="cls-12" d="M305.48,95.12a8.09,8.09,0,0,0,4.4-1.33c2.39-1.47,2.73-3.58,2.87-6.94s1.07-5.76.27-8-.77-8.74-7.63-10.13c0,0-10.29-2.55-15.05,8.55,0,0-3.74,3.26,6.63,19.23,0,0,1.17,1,4.17.24C302.29,96.4,305.48,95.12,305.48,95.12Z"/><path class="cls-11" d="M293,75.79a10.64,10.64,0,0,1,11.17-3.46c4.6,1.11,5.87,3.77,7,6.57s-.19,4.59-.53,7.31.13,3.48-1.52,7.14a9.43,9.43,0,0,1-.95,1.65c-1.4,1.1-2-.12-2-.12a7.76,7.76,0,0,1-3.08-.86c-.44-.31-3.69.56-5.33-.8C293.28,90.47,291.23,78,293,75.79Z"/><path class="cls-12" d="M298.14,92.94s8.21,8.48,14.2-2.13-4.6-13.69-7.7-14.35c-8.41-1.8-10.17,6.33-10.38,6.59s.85,5.94.85,5.94Z"/><path class="cls-13" d="M309.61,88.16c-2.27,7.31-10.1,5.74-10.46,5.66l0,0c-.13-.3-4.81-5.81-3.6-12.54.75-.27,4.31-2.32,5.37-2.61C305.53,78.62,311.53,81.9,309.61,88.16Z"/><path class="cls-12" d="M304.54,89.34s2.69-3.12,1.43-6.13-2.76-3.73-5.13-4.14a5.08,5.08,0,0,0-5.23,1.65c-1.24,1.48-3.24,6.67.9,10.4,0,0-1.13-6,3-5.4a3.91,3.91,0,0,1,3.61,4.46Z"/><path class="cls-14" d="M303.84,89.31s2.28-5.15-3.06-6.34-6.93,4.51-5.22,7.63Z"/><path class="cls-15" d="M303.68,89.05s0-4.21-3.15-4.42-4.56,1.12-4.64,3.53S300.81,85.16,303.68,89.05Z"/><path class="cls-16" d="M303.68,89.05s0-4.21-3.15-4.42-4.56,1.12-4.64,3.53S300.81,85.16,303.68,89.05Z"/><path class="cls-16" d="M298.33,85s.42,4,5.6,3.77c0,0,3.18,0,3.43-5.12,0,0,1.6.47.24,5.42s-2.65,7.17-5.88,6-6.35-3.18-6.59-4.9S296.06,86.38,298.33,85Z"/><path class="cls-14" d="M303.68,89a3.48,3.48,0,0,0-2.28-2.15c-1.83-.57-2.46.57-2.46.57S301.32,90,303.68,89Z"/><path class="cls-12" d="M317.63,99.73s-10.1.28-17.42-1.7-12.65-14.45-10.69-19a7.24,7.24,0,0,0-4.07,3.68c-1.25,2.79-.9,7.06.86,9.06s4.22,7.15,8.29,8.42S310.1,101.39,317.63,99.73Z"/><path class="cls-17" d="M323.64,97.28a79.09,79.09,0,0,0-6.38,8.93c-5.3,9.71-12.4,11.61-18.1,10.57C299.16,116.78,301.11,107.88,323.64,97.28Z"/><path class="cls-11" d="M319.21,78.61s11.17,4.55,10.65,9.66-.49,8.35-19.16,17.73c0,0-7.87,6-8.83,7,0,0,7-8.41,13-12.56S331.67,87.28,319.21,78.61Z"/><path class="cls-1" d="M106.42,92.27s5.92-11,6.24-16l2.22.16s-3.59,13-6.75,18.85Z"/><path class="cls-2" d="M114.66,75.88s-21.83-12.68-9.46-32,22.7-30.73,23-43.89c0,0,15.89,15,17.88,45.86C147.67,69.66,138.25,83.55,114.66,75.88Z"/><path class="cls-2" d="M113.66,78.69s-18.31-6.51-12.22-29.41l0,4.94s.65-10.32,11.39-24.73a31.19,31.19,0,0,0-.48,3.67S121.1,19.81,123.11,13A14.49,14.49,0,0,1,123,16.5l16.75,1.84s.88-2.33.69-3.15a87.07,87.07,0,0,1,5,23.8s1.42-2.74,1.32-4c0,0,1.91,18.65-2.47,29.43a13.05,13.05,0,0,0,2.66-3.63S141.37,88.53,113.66,78.69Z"/><path class="cls-1" d="M83.39,62.76s-43,11-59.66-32A170.76,170.76,0,0,0,12.41,7.36S41.77-9.18,76.3,16.51C76.3,16.51,101.24,36.44,83.39,62.76Z"/><path class="cls-2" d="M12.41,7.36S20.92,2,35.8,2A13.5,13.5,0,0,0,32.18.27a53.75,53.75,0,0,1,26.87,6.2s-.3-2.16-1.56-2.92S71.54,9.92,79.72,19.66a4.27,4.27,0,0,0,.06-3.15S91,30,89.61,45.21a13.86,13.86,0,0,0,1.76-3.35s-1,16.53-8.68,20.89c0,0-9.81,5.71-32.24-1.24,0,0,1.86-.18,3.4-.42a60.36,60.36,0,0,1-22.21-12,17.27,17.27,0,0,0,4.24,1.22S24.82,40.58,19.65,26.84a33.15,33.15,0,0,0,3.54,2.67S14.45,9.2,12.41,7.36Z"/><path class="cls-3" d="M128.92,1.6s2.59,42.76-16.23,76.27"/><path class="cls-3" d="M125.07,12.86s2.46,10.06,2.45,16.63c0,0,6.56-11.51,8-19.77"/><path class="cls-3" d="M122.38,17s3.55,14.69,3.57,22c0,0,10.63-17.19,11.56-25.22"/><path class="cls-3" d="M119.83,21.83a211.17,211.17,0,0,0,4.85,23.37S137.13,28.66,139,18.37"/><path class="cls-3" d="M117,27.12s4.19,17.52,5.82,26.05a76.47,76.47,0,0,0,18.95-33.28"/><path class="cls-3" d="M114.6,30.38a231,231,0,0,0,5.69,30.25S135.39,49,142.81,26.57"/><path class="cls-3" d="M110.59,32.79s-1,17.46,7.58,33.8c0,0,20-10.71,26.55-33.45"/><path class="cls-3" d="M106.48,40.11s2.36,21.52,10.12,29.76c0,0,18.5-1.92,30.28-25.82"/><path class="cls-3" d="M103.41,46.82s3.83,17,12.17,25.16c0,0,20.37.11,30.58-16.27"/><path class="cls-3" d="M101.47,54.22s6,15.43,13.08,19.86c0,0,20.26,4.32,30.56-8.47"/><path class="cls-3" d="M100.16,58.28s5.25,13.78,13.17,18.1c0,0,16.31,5.39,28.47-4.54"/><path class="cls-1" d="M127.55,140.76s-12.48-.25-17.07,1.76l-.87-2.05s13.23-2.76,19.85-2.61Z"/><path class="cls-2" d="M109.21,140.92s-1.32,25.21-24.15,23-37.7-6.15-49.57-.46c0,0,6.07-21,32.63-36.85C88.59,114.4,105.25,116.43,109.21,140.92Z"/><path class="cls-2" d="M112.15,140.53s2.58,19.25-20.58,24.3L96,162.55s-9.48,4.13-27.21,1.16a32.08,32.08,0,0,0,3.49-1.24s-15.86-1.66-22.85-.34a14.57,14.57,0,0,1,3.19-1.46l-6-15.74s-2.47.27-3.11.82a86.62,86.62,0,0,1,18.89-15.31s-3.09,0-4.17.66c0,0,15.73-10.22,27.31-11.25a13.26,13.26,0,0,0-4.44-.71S108.26,111.38,112.15,140.53Z"/><path class="cls-3" d="M36.61,162.17s36.85-21.84,75.26-20.4"/><path class="cls-3" d="M48.39,160.45s7.82-6.78,13.67-9.78c0,0-13.23-.57-21.24,1.93"/><path class="cls-3" d="M53.28,161s11.44-9.86,17.9-13.2c0,0-20.14-1.61-27.71,1.23"/><path class="cls-3" d="M58.75,161a209.33,209.33,0,0,0,18.58-15s-20.4-3.52-30.42-.49"/><path class="cls-3" d="M64.76,161.12s13.67-11.73,20.52-17.07A76.52,76.52,0,0,0,47,142.39"/><path class="cls-3" d="M68.75,161.76a230.07,230.07,0,0,0,24.31-18.88s-17.24-8.12-40.59-4.47"/><path class="cls-3" d="M72.73,164.22s16-7.08,26.6-22.18c0,0-18.65-12.88-41.88-8.34"/><path class="cls-3" d="M81.11,164.54s18.08-11.93,21.86-22.6c0,0-10.16-15.57-36.81-15.14"/><path class="cls-3" d="M88.49,164.2s13.36-11.16,16.82-22.31c0,0-9.21-18.18-28.44-19.78"/><path class="cls-3" d="M96,162.55s11-12.41,11.69-20.71c0,0-5.41-20-21.49-23.31"/><path class="cls-3" d="M100.16,161.86s9.87-11,10.1-20c0,0-2.66-17-17.05-23.25"/><path class="cls-3" d="M83.68,61.87C57.69,33.3,15,7.4,15,7.4"/><path class="cls-3" d="M26.54,4s8,11.14,11.58,18.73c0,0-12.25-1.42-19.7-4.76"/><path class="cls-3" d="M33.86,3.47S41.68,19.07,45,27.92c0,0-15-1.17-25.23-6.71"/><path class="cls-3" d="M41.2,2.11c.27.37,15.65,17.92,19.22,38,0,0-14.78-.35-36.13-10.81"/><path class="cls-3" d="M49.23,5S67.15,27.61,66.84,45.45c0,0-30.92.82-45.5-16"/><path class="cls-3" d="M61.45,6.43S76.41,33.9,75.1,53c0,0-27,2.1-47.61-14.28"/><path class="cls-3" d="M74.21,15.62s9.34,29.63,4.67,41.26c0,0-17.1,3.38-41.78-6.22"/><path class="cls-3" d="M80.62,22.28s7.23,24.77,1.22,37.43c0,0-9.55,3.74-26.89.86"/><path class="cls-3" d="M36.91,1.36S53.62,26.71,55.21,36c0,0-19-2.57-33.87-11.2"/><path class="cls-3" d="M53.87,4.89S71.56,27.13,70.81,49c0,0-25.56,1.27-48-15.38"/><path class="cls-3" d="M31,45.21s29.3,14.69,46,9.56c0,0,4.43-8.43-8.42-44.3"/><path class="cls-3" d="M21.57,4a139.76,139.76,0,0,0,7.1,12.17S19,14.53,16,13.09"/><path class="cls-2" d="M108,98.45s-16.39-1.71-29.51-7.2l-1.1,2.35s13.45,5.33,34,8.51Z"/><path class="cls-4" d="M84.44,93.66s2-17.93-23.93-25.22S14.58,74.32,0,72.15c0,0,26.76,30.34,55.33,35.56S84.44,93.66,84.44,93.66Z"/><path class="cls-4" d="M84.35,94.31s2.59-13.47-13.83-23.55l2.58,3.52S64.69,66,43.28,64.51l4.9,2S37.53,64.11,22,67.07l5.25,1L3.08,73.52S13.62,85.9,19.58,89.93a42.94,42.94,0,0,1-6-2.12c-1.36-.77,10.16,8.82,24.19,13.67,0,0-3.91-.57-4.85-.63s14.88,7.9,28.61,7.43c0,0-2.93,1.29-3.87,1.64S82.89,110,84.35,94.31Z"/><path class="cls-5" d="M1.17,72.7S35.6,89.19,84.35,94.31"/><path class="cls-5" d="M16.3,70.61A79,79,0,0,0,31.06,83.46S17.12,83,10.54,82.2"/><path class="cls-5" d="M21.82,69.56S38,84.41,38.89,85.9c0,0-13.66,2.41-23,.94"/><path class="cls-5" d="M27.05,68.33s12.29,11,23.86,20.45c0,0-18.43,2.45-31.33,1.15"/><path class="cls-5" d="M29.28,66.11s18.83,8.7,30.26,24.36c0,0-16.8,6.92-39,2.31"/><path class="cls-5" d="M37.26,65.75s22.39,13.35,29.49,26c0,0-18.84,8.56-40,4.52"/><path class="cls-5" d="M46.23,66.47s17.24,9.33,29.1,26.6c0,0-17.35,8.73-38,8.24"/><path class="cls-5" d="M53.86,66.08S78,81.85,81.2,93.79c0,0-15.08,12.09-35.42,12"/><path class="cls-5" d="M67.09,70.5s14,12.37,16.28,23.6c0,0-7.21,9.5-22.25,14"/><path class="cls-2" d="M129.06,137.12s7.71-5.87,10.59-9.77l1.21.79a34.5,34.5,0,0,1-11.21,12.26Z"/><path class="cls-1" d="M136.45,130.64s-17-41,23.53-63.14A170.9,170.9,0,0,0,181.7,53.23s20.23,27-.75,64.53C181,117.76,164.88,144.91,136.45,130.64Z"/><path class="cls-2" d="M181.7,53.23s6.38,7.74,8.37,22.49a13.57,13.57,0,0,0,1.24-3.81,53.71,53.71,0,0,1-2.65,27.44s2.1-.58,2.69-1.93-4.48,14.77-13.07,24.15a4.27,4.27,0,0,0,3.12-.36S169.52,134,154.23,134.7a14,14,0,0,0,3.56,1.31s-16.53,1.12-21.85-5.88c0,0-6.94-9-3-32.14,0,0,.43,1.83.87,3.32a60.21,60.21,0,0,1,9-23.57,16.83,16.83,0,0,0-.66,4.36S150.38,69.85,163.33,63a33.48,33.48,0,0,0-2.19,3.85S180.14,55.49,181.7,53.23Z"/><path class="cls-3" d="M182,55.75S163.52,100,137.15,131"/><path class="cls-3" d="M173.55,59.41S171.9,75.09,170,80.71c0,0,11.76-12.54,15.83-18.58"/><path class="cls-3" d="M169.63,62s-.35,16.4-2.91,24.9c0,0,17-12.51,21.16-19.7"/><path class="cls-3" d="M165.8,64.24S164.65,81.37,164,91.57c0,0,15-8.75,25.26-19.44"/><path class="cls-3" d="M162,66.91s-1,18.93-1.2,30.36c0,0,24.33-10.63,30.94-19.7"/><path class="cls-3" d="M157.2,67.12s-3.16,20.71,0,36.07c0,0,18.54-5.38,34.42-18.46"/><path class="cls-3" d="M153,70.82s-4.26,22.51.19,38.8c0,0,22.21-5.44,37.69-18.4"/><path class="cls-3" d="M148.24,75.36s-1.57,21.91,1.47,39.06c0,0,20.38-3.62,38.67-14.48"/><path class="cls-3" d="M143.08,81.65s1.12,27.44,4.3,36c0,0,25.49-4.37,41.89-14.53"/><path class="cls-3" d="M140.3,83s-1.07,20,4.42,38.2c0,0,8.25,1.75,41.66-12.33"/><path class="cls-3" d="M137.68,89.14s-1.66,18,4.44,35.84c0,0,28.81-1.64,40.77-10.36"/><path class="cls-3" d="M134.36,98.74s1.06,17.83,6.34,27.92c0,0,20.42,2.42,37.6-3"/><path class="cls-3" d="M132.38,105.07s2.11,17.2,6.62,23.55c0,0,20.25,4.18,33.63-.57"/><path class="cls-1" d="M165.05,220.71c-8.14-14-16.83-33.23-27.47-63.49C108.92,75.71,78.07,58.61,78.07,58.61,57.23,38.66,73,57.06,73,57.06s31.46,14.35,60.25,102.85a337.7,337.7,0,0,0,27.89,63.88Z"/><path class="cls-2" d="M295.76,116.84s-5.22-.65-9.26-9.24a12.85,12.85,0,0,0-5.16-5.52,12.41,12.41,0,0,1,9,6.52,15.14,15.14,0,0,0,5.14,5.43s4.12,3.8,13.53,1.22c0,0,4.85-2.22,8.9-2.2,0,0-5,1.26-7.78,3.75C307,119.6,299.05,119.88,295.76,116.84Z"/><path class="cls-2" d="M294.09,107.05a7.14,7.14,0,0,1,2,3.76c1.12,4.8,2.22,4.44,3.31,5.2s-3.92-.23-3.92-.23-2.37-.89-2.34-6.92a5.28,5.28,0,0,0-1.65-3.2A6.82,6.82,0,0,1,294.09,107.05Z"/><path class="cls-2" d="M297.54,116s5.5.49,8.21-2.44,3.78-3.19,5.23-3.63a8.79,8.79,0,0,0-3.18,3.22c-.8,1.82-2.69,4.78-7.23,3.93S297.54,116,297.54,116Z"/><path class="cls-2" d="M298.41,116.74s-2.28-1.43-.68-4.8,2.26-4.49,2.26-4.49-1.07,4.33-.52,6,1.07,2.4,2,2.69S298.41,116.74,298.41,116.74Z"/><path class="cls-2" d="M293,115.53a5.25,5.25,0,0,0,3.22,4c3,1.46,3.46,1.43,6.06-.43S293,115.53,293,115.53Z"/><path class="cls-2" d="M295.45,116.21S292.65,167,222.8,204l2.66,3.49s59-26.21,72.42-88Z"/><path class="cls-2" d="M189.35,242s3.4-13.28,10-22.9l-2.11-1.5s-6.52,9.93-11.76,26.3Z"/><path class="cls-4" d="M196.45,223.53s16.82,6.07,26.55-13.8-.61-39.85,3-51.5c0,0-31.73,14.91-39.78,37.51S196.45,223.53,196.45,223.53Z"/><path class="cls-4" d="M195.84,223.29s12.51,5.48,23.87-5.77l-3.62,1.3s8.82-5,12.51-22.53l-2.44,3.6s3.45-8.31,2.32-22.06L226.92,182l-2.53-21.5s-12.9,5.77-17.38,9.76a28.54,28.54,0,0,1,2.66-4.46c.88-.94-9.48,6.32-15.61,16.86,0,0,1-3.13,1.12-3.9s-9.1,10.5-10.15,22.09c0,0-.91-2.76-1.14-3.64S181.12,218.23,195.84,223.29Z"/><path class="cls-5" d="M225.37,159.07S206,183.8,195.84,223.29"/><path class="cls-5" d="M225.72,172.24a58.93,58.93,0,0,0-13.8,9.17s2-11.53,3.42-16.84"/><path class="cls-5" d="M226.13,177.11s-15.87,9.85-17.38,10.25c0,0-.81-12,1.6-19.47"/><path class="cls-5" d="M226.73,181.78s-11.78,7.57-22,14.92c0,0-.33-16,2.3-26.48"/><path class="cls-5" d="M228.6,184.19s-10.31,13.6-26.43,19.3a55.59,55.59,0,0,1,2-33.17"/><path class="cls-5" d="M228.07,191s-15.1,15.44-27.9,18.26c0,0-6.1-17.86,0-34.53"/><path class="cls-5" d="M226.42,198.28A69.65,69.65,0,0,1,198,216.06s-6.41-16.65-3.71-33.8"/><path class="cls-5" d="M226,204.75s-17.6,16.26-29.29,16c0,0-9.86-15.58-7.56-32.56"/><path class="cls-5" d="M220.33,214.72s-13.26,8.64-24.19,7.81a46.65,46.65,0,0,1-10.91-22.05"/><path class="cls-18" d="M241.18,115.45s21.55,8.51,19.2,20.7.19,35.85-11.14,44.17-25.22,27.58-40.61,26S174,200.88,174,200.88Z"/><path class="cls-19" d="M243.06,121.63s12.71,17.12,6.51,28.75-10.23,18.34-13.73,22.11-6.51,14.35-13.66,18.92-28.25,8.17-37.09,7.71S243.06,121.63,243.06,121.63Z"/><path class="cls-20" d="M168.74,104.12s15.79-13.88,29.55-10.8,19.34,6.63,25,7.69l5.64,1s8.14.89,13.32,11.24,13.56,28,3.62,43.88S229,180.25,218.18,185.41,253.3,106.78,168.74,104.12Z"/><path class="cls-18" d="M197.38,102.15s13.85-.32,17.91.46,5.14,3.31,7.17,3.59,22.1,14,20.63,26.63-9,33.34-15.77,39.29S210.76,181,210.76,181Z"/><path class="cls-18" d="M127.74,151.44s-6.59-5.6-6.2,5.52,1.35,14.17,6.86,26.11c3.48,7.56,17.5,14.39,21.93,18.36s9.6,5,20.33,5c8.55,0,15.27-.1,17.9-5.25s2.29-7.72,5.68-7.4,12.65,1.91,21.67-4.43,14.77-18.22,16.06-24.31a13.55,13.55,0,0,0-1.77-10.26s-23.1,15.51-27,18.81-38.55,8.07-50.13-.17S127.74,151.44,127.74,151.44Z"/><path class="cls-19" d="M124.55,159.75s17.22,27,24.16,30.58,20.25,7.11,27.56,5.26,43.67-22.46,50.72-31.81C232.61,156.34,124.55,159.75,124.55,159.75Z"/><path class="cls-18" d="M151.19,115.44s-14.74-.15-17.79,3.62-5.34,4.63-8.2,9.77-9.57,10.41-8.12,15.67.2,9.76,2.8,14.59,13.13,9.65,17.31,14.75,13.72,13.29,19.11,15.24,22.14,3.76,28.68,5.06,17.73-1.13,24.24-7.31a103.65,103.65,0,0,0,8.63-8.85s-43.5,6.35-55.79-.77-12.42-19.84-12.1-23.46S148.2,117,151.19,115.44Z"/><path class="cls-21" d="M149.54,117.67s-11.3,7.19-13.8,15.75c0,0-6.24,13.44.52,23.83s16.3,18.8,18.71,22,11.58,8.25,29.31,6.89,4.44-4.87,4.44-4.87Z"/><path class="cls-18" d="M145,161.36s-2.86,5.37-1.14,8.82S150,180.32,152,181.5s34.47,9.52,42.27,6.1,11.23-4.25,13.48-3.74,10.48-1.54,14.65-4.83,4-6.25,7.29-10,6.84-9.81,6.29-15,.39-14.74-2.26-17.75-9.21,14.05-9.68,14.72-22.36,22.1-34,23.16S151.56,171.51,145,161.36Z"/><path class="cls-22" d="M147.15,166.63s6.92,14.2,22.43,17.59c24.89,5.44,38.23-5.74,40.38-5.8,3.84-.12,10.3-8.45,14.48-12.42s6.4-15.79,7.27-22.8-19.36,11.29-19.6,12-16,13.65-23.31,15.05S147.4,166,147.15,166.63Z"/><path class="cls-22" d="M155.44,136s-11.58,17.62-5.9,25.94a22.2,22.2,0,0,0,15.18,9.47c.68,0,4.88-4.41,4.88-4.41l-2.06-8Z"/><path class="cls-20" d="M144.6,158.65a128.29,128.29,0,0,1-4.14-15.31c-1-5.92-2.86-12.1.3-20.18s8.78-15,13.13-16.22,18.93-4,22.52-2.36-11,12.64-11.49,14.22-9.39,21.08-13,27.79A128.11,128.11,0,0,1,144.6,158.65Z"/><path class="cls-21" d="M156.75,150.77s7.25,13.69,8.93,18.73c0,0,20.8-1.62,24.48-3.34s14.63-13,14.63-13l2-7.1.76-3S195.79,154.29,194,155.15s-10.36,1.54-12.41,1.6-13.82-.7-13.82-.7Z"/><path class="cls-23" d="M143.63,153.61c0-.68-1.2-5.93,4.26-15.32s4.63-12.36,5.43-16.65,10.16-15.61,16.75-16.12-6.14,9.14-9,14.74S143.63,153.61,143.63,153.61Z"/><path class="cls-18" d="M154.86,132.12a56.71,56.71,0,0,0-9.14,11.1c-3.79,6.26-4.25,15.09-1.88,19.92s15.55,12.43,21.42,14,38.24,3.71,49.29-11.2c0,0,5.66-8,6.38-9.59a14.81,14.81,0,0,0,.86-4.29,67,67,0,0,1-48.62,17.34s-14.14,2.81-18.94-4.58-3.44-16,.2-25S154.86,132.12,154.86,132.12Z"/><path class="cls-22" d="M209.71,110.71s7.38,18.64,2.85,30.17-8.09,20.21-8.09,20.21L221.79,152s5.87-4.68,4.44-13.64-2.51-19.43-6.07-22.39S209.71,110.71,209.71,110.71Z"/><path class="cls-20" d="M155.47,143.33s-3.39-9-.67-14.84,3.56-14.58,8.82-19.28,8.76-5.22,13-7.53,3.57-3.23,8.42-3.86,12.53,1.08,17.74,4.24,10.67,14.35,12.24,17.72,2.58,11.25-.15,17.38S194.35,120,194.35,120Z"/><path class="cls-8" d="M157.7,143.77s-6.92-13,8.41-26.7,24.28-8.9,31.45-5.23,15.52,9.42,16.93,24.89S157.7,143.77,157.7,143.77Z"/><path class="cls-22" d="M191.24,120.25s8.56-2,12.93,0,9.17,9.42,8.52,12.81-7.33,11.15-7.33,11.15l-3,2.42-10.44-26.14"/><path class="cls-22" d="M156.78,141.13s-2.88,5.94-.1,8.05,7.12,5.29,7.14,4.5.55-3.62.11-3.85-2.27-4.49-2.27-4.49S156.55,141.13,156.78,141.13Z"/><path class="cls-21" d="M158.55,143.49A34.54,34.54,0,0,1,163.1,153l4.73,3.11,11.5-4.87Z"/><path class="cls-24" d="M168.71,122.73s-9.49,3.15-11.47,9.11-2.36,8-.48,10,9.64,8.76,22.55,9.55c0,0-11.44-5-15.14-10.94S158.63,131,168.71,122.73Z"/><path class="cls-22" d="M168.24,123.39s-8.23,2.4-9.54,9.17,4.08,11,7.59,13.81c6.71,5.3,14.94,3.95,14.94,3.95s-14.33-5.86-16.92-10.92S158,130.16,168.24,123.39Z"/><path class="cls-24" d="M179.07,121.63S173,119,165.72,124.35s-6.56,8.22-5.08,12.23,3.55,7.47,7,9.48c3,1.76,8.82,5.57,11.66,5.3s9.77-5,9.77-5,5.23-4.52,5.72-6-1.59.07-1.59.07-11.32,7.53-13.32,6.12-5.21-9.21-5.06-10.45S172.75,129,179.07,121.63Z"/><path class="cls-22" d="M180.81,145.38c-1.88-1.32-2.33-6.47-2.58-8.36-1.06-1-1.62-1.89-1.31-2.74,1.32-3.65,2.31-9.5,3.09-12.52-.39,0-.83-.07-1.3-.09-4.44,1.32-12.57,6.45-12.54,11.77,0,7.37,8.9,15.31,15.34,16.39a22.48,22.48,0,0,0,5.61.34c2.69-1.43,5.35-3.23,5.35-3.23s.41-.35,1-.88a13,13,0,0,0-2.4-1.65C187.89,146.2,181.86,146.12,180.81,145.38Z"/><path class="cls-24" d="M193.16,120.87a10.87,10.87,0,0,1,4.21,1.77c1.51,1.26,3.42,2.35,4,10.1s3.42,11.59,2.09,13.91-9.5,8.87-13.46,9.77c-8.29,1.88-21.65-2.06-21.65-2.06,13.3-4.3,12.64-3.73,17.84-7.67,5-3.81,10.83-8.52,11.72-11.9S193.89,120.94,193.16,120.87Z"/><path class="cls-22" d="M198.56,129.35a10.22,10.22,0,0,1-.13,6.1c1.74-2.92,1.26-4.76,1-7.38-.3-2.89-2.82-4.82-4-5.57A16.72,16.72,0,0,1,198.56,129.35Z"/><path class="cls-21" d="M216.19,135.84s-6.67,14.15-7.57,18.33-11.05,10.37-11.39,10.48-7.06.83-7.06.83l10.2-8.35s6.34-8,6.83-9.35S213.77,137.48,216.19,135.84Z"/><path class="cls-21" d="M194.17,149c-3.8,3.65-12.38,6-17.75,7.15,1.84.21,3.73.41,5.51.54a53.41,53.41,0,0,0,7.4-1.24c4.85-1.21,9.33-4.31,12.19-6.65a10.64,10.64,0,0,0,2-2.18c.95-1.65-.2-4.08-1.16-8.13C200.94,142.06,198.5,144.86,194.17,149Z"/><path class="cls-24" d="M156.49,141.77s-.58,6.48,3.12,8.28,10.29,5.6,18.67,5.93,10.08.72,13.77-1.45,13-10.66,15.2-13.22c0,0,2.19-1.19.3,1.71s-9.8,10.52-12.47,12.49a10,10,0,0,1-6.52,2.1c-1.47,0-10.55.3-13.86,1s-7.25-.52-9.83-1.61-9.25-6.26-9.9-7.63S151.92,143,156.49,141.77Z"/><path class="cls-25" d="M176.05,146.89a20.63,20.63,0,0,0-2.91-4.73c-1.91-2.33-1.52-4.58-.5-8s.92-6.22,2.52-8.27,3.82-8.61,11.28-7.65c0,0,11.35,1,12.33,13.93,0,0,1.56,8.15-7.93,11.72,0,0-8.71,3.37-9.94,3.73S176.05,146.89,176.05,146.89Z"/><path class="cls-22" d="M196.61,129.75c-1.38-4-5.09-6.94-10.15-7.4s-7.27,1.79-9.44,4.23-1.41,4.73-2,7.61-1.36,3.5-.95,7.8a10.28,10.28,0,0,0,.39,2,20.67,20.67,0,0,1,1.58,2.9s3.63,1.05,4.85.68c.56-.17,2.66-.95,4.79-1.76C191.17,144.55,197.59,132.58,196.61,129.75Z"/><path class="cls-24" d="M185.38,145.38s-11.3,5.77-13.7-7.1,9.43-12.32,12.81-11.91c9.18,1.1,8.15,10,8.27,10.3s-2.93,5.75-2.93,5.75Z"/><path class="cls-22" d="M175.39,136.53c-.25,8.22,8.26,9.34,8.66,9.39h0c.23-.26,6.91-4.23,8-11.49-.67-.54-3.58-3.86-4.55-4.53C182.84,128.25,175.6,129.5,175.39,136.53Z"/><path class="cls-24" d="M180.13,139.5s-1.66-4.11.67-6.73,4.1-2.84,6.65-2.43,4,1.56,4.74,3.5,1,7.9-4.52,10.25c0,0,3.21-5.65-1.21-6.53a4.2,4.2,0,0,0-5.22,3.27Z"/><path class="cls-22" d="M180.85,139.71s-.53-6,5.31-5.38,5.47,7,2.65,9.56Z"/><path class="cls-15" d="M181.1,139.5s1.47-4.28,4.73-3.4,4.25,2.72,3.5,5.2S185.37,136.54,181.1,139.5Z"/><path class="cls-24" d="M181.1,139.5s1.47-4.28,4.73-3.4,4.25,2.72,3.5,5.2S185.37,136.54,181.1,139.5Z"/><path class="cls-24" d="M188.57,137.42s-2.2,4.33-7.47,2.08c0,0-3.28-1.29-1.87-6.77,0,0-1.8-.12-2,5.66s.38,8.63,4.1,8.65,7.61-.91,8.42-2.65A6.9,6.9,0,0,0,188.57,137.42Z"/><path class="cls-24" d="M189.11,138.12c-.26,2.12-1.67,4.68-7.33,4.79-4,.09-4.43-4.45-4.31-7.12a18.15,18.15,0,0,0-.26,2.6c-.23,5.78.38,8.63,4.1,8.65a16.7,16.7,0,0,0,6.7-1.19c.69-.37,1.45-.71,1.69-1.22A7.56,7.56,0,0,0,189.11,138.12Z"/><path class="cls-22" d="M181.1,139.49a3.73,3.73,0,0,1,3.07-1.39c2.05.05,2.3,1.43,2.3,1.43S183.18,141.25,181.1,139.49Z"/><path class="cls-24" d="M189.06,118.74s7.13-3.79,11.75-2.42,12.49,8.15,13.83,13.18,2.36,5.5.37,7.61-6.51,10.6-7.71,12.84-14.24,15.4-20.62,16.59c0,0,12.78-11.57,16-15.35s1.4-5.4,4-9.65,4-12.26-.23-17.36-11.32-5.17-15.21-3.91Z"/><path class="cls-26" d="M236.88,124.43a17.37,17.37,0,0,1-4.63-8c-.83-3-1.72-3.52-7.35-8.21-4.63-3.85-14.72-2.93-18.13-2.48a52.42,52.42,0,0,1,4.55,6.78c11.59,4.19,13.05,27.55,9.68,29.48-3.53,2-13.29,16.75-26.58,21.39s-36,5.26-34.63,5.9,13,1.7,15.24,1.16,6.93,1.24,9.83.1,11.35-.15,14.11-1.75,9.44-2.17,13.88-4.48a13.73,13.73,0,0,0,6.53-6.63c.79-1.49,3.08-2.19,8.19-6.74s8-16.74,10-19.4S239,126.29,236.88,124.43Z"/><path class="cls-27" d="M157.55,188.24s23.86-6.54,31,4.52,26.68,28.14,23.6,41.67,8.64,44-5,52.21-36.56,26.63-36.56,26.63Z"/><path class="cls-28" d="M163.65,192s23,5.68,26.58,18.66,5.22,20.75,5.15,25.87,5.32,15.31,2.88,23.31-10.85,25.62-18.39,30.69S163.65,192,163.65,192Z"/><path class="cls-27" d="M88.53,224.26s2.6-20.65,16.09-26.68,20.67-6.65,26-9.29l5.38-2.64s7.3-4.3,19.17.67,31.79,13.77,35.41,32.37,7.62,28.29,2.64,39S159.41,174.39,88.53,224.26Z"/><path class="cls-28" d="M110.41,205.1s11-8.76,14.94-10.64,6.63-.55,8.5-1.58,28.34-2.57,36.51,8.32,17.3,31.84,16.21,40.67S179.63,259,179.63,259Z"/><path class="cls-27" d="M96.09,294.05a43,43,0,0,0,10.83,19.44c8.55,8.53,15.15,17,24.14,15.93s19.33-3.33,25.89-2.92,14.92.42,20.77-5.84,9.5-13.62,7.83-19.29-6.93-13-3.93-14.81,11.73-6.26,14.39-16.8-1.44-23.44-4.89-29a16.33,16.33,0,0,0-9-7s-7.35,26.41-8.12,31.44-25.46,30.05-41,30.67S96.09,294.05,96.09,294.05Z"/><path class="cls-28" d="M99.64,302.56s34,10.69,42.31,9.26S163.72,305,168.3,299s19-44.55,17.83-56.25C185.2,233.46,99.64,302.56,99.64,302.56Z"/><path class="cls-27" d="M78.27,249.16s-12.13,8.93-11.82,13.78-.93,6.93.54,12.74-.1,14.1,5,17.35,7.39,7.57,13.08,9.79,17.84-.48,25,1,21,2,26.85.27,20.82-10.65,27.12-13.64,13.62-11.78,14.35-20.66a92.07,92.07,0,0,0,.49-12.27s-30.76,31.74-46.05,33.67-24.79-8-27.21-11.06S77,252.18,78.27,249.16Z"/><path class="cls-29" d="M78.58,251.92s-3.9,12.62.4,20.9c0,0,4.86,14.44,18,18.47s27.19,4.81,31.56,5.88,15.53-.62,29-12.58,0-6.57,0-6.57Z"/><path class="cls-30" d="M111.52,284s1.64,6,5.6,7.65,12.46,4.25,15,4,35.13-13.68,39-21.18,6-10.24,8.23-11.22,7.4-7.66,8.36-12.82S186.3,243,186.18,238s-1.68-11.93-6-15.72-10.59-11.86-15-12.61,2.89,16.74,3,17.56-1.87,31.16-10.55,39.13S124.37,287.94,111.52,284Z"/><path class="cls-31" d="M117.16,286.81s15.28,4.63,28.52-4.79,21.57-24,22.79-25.77,6.36-12.29,6.83-18-2.07-15.83-6.55-21.89-7.42,20.79-7.12,21.48-3,20.6-7.87,26.18S116.86,286.13,117.16,286.81Z"/><path class="cls-31" d="M101.25,257.56s3.6,21,14.38,24.07A25.53,25.53,0,0,0,135,279.77c.57-.41.72-6.48.72-6.48l-7.6-5Z"/><path class="cls-32" d="M107.89,282.67a159.32,159.32,0,0,1-14.7-9.53C88,269.07,81.91,265.36,78.51,257s-3.92-17.2-1.3-20.85,12.44-14.83,16.61-15.7.39,16.72,1.16,18.26,7.93,22.4,10,29.89A120.89,120.89,0,0,1,107.89,282.67Z"/><path class="cls-33" d="M113.26,268.41s16,6.33,21.13,9.27c0,0,15.76-14.06,17.48-17.67s2.31-19.25,2.31-19.25l-3.62-6.82-1.63-2.86s-1.25,16.1-2.11,17.91-7.3,7.58-8.93,8.89-11.78,7.94-11.78,7.94Z"/><path class="cls-34" d="M104.66,278.7c-.49-.54-5.37-3.93-7.86-14.69s-5.37-12.59-7.89-16.46-3.27-18.55,1.73-23,1.76,11,3.56,17.16S104.66,278.7,104.66,278.7Z"/><path class="cls-35" d="M97.91,254.86a52,52,0,0,0,.77,14.37c1.53,7.27,7.7,14.51,13.2,16.86s21.87.24,27.77-2.17,33.93-20.57,31.9-39.12c0,0-1.32-9.8-1.89-11.48a16.13,16.13,0,0,0-2.47-3.91S166,255.92,140.38,273c0,0-9.45,10.9-18.82,8s-14.62-10.48-18.3-19.79S97.91,254.86,97.91,254.86Z"/><path class="cls-36" d="M126.79,204.27s19.81,10.17,24.64,22,8.35,20.9,8.35,20.9l7.41-17.8s1.32-7.3-6.47-13.49S144.29,202.16,139.21,202,126.79,204.27,126.79,204.27Z"/><path class="cls-32" d="M106.71,263.32s-9.44-5-11.53-11.28-7.88-13.68-7.07-20.63,3.28-9.49,5.08-13.95.5-4.74,4-8.22,11-6.85,17.6-7.55,19.3,4.75,23.08,6.43,10.43,7.29,12.74,13.81-29.48-.9-29.48-.9Z"/><path class="cls-34" d="M109.34,261.9s-15.29-6-12.9-26.22,13.21-21.93,21.76-23.45,21.74-3.14,34.33,8.18S109.34,261.9,109.34,261.9Z"/><path class="cls-37" d="M118.79,223.15s5.46-6.88,10.54-8,14.44,1.79,16.42,4.87S148,233.36,148,233.36l-.66,3.76-27.84-14.2"/><path class="cls-31" d="M106.15,260.79s2,6.45,5.87,6.4,9.72-.2,9.15-.84-2.22-3.18-2.77-3.1-5.17-2.14-5.17-2.14S106,260.92,106.15,260.79Z"/><path class="cls-33" d="M109.34,261.56a42.84,42.84,0,0,1,10.7,4.67l6.16-.46,5.78-10.9Z"/><path class="cls-30" d="M102.26,238.94s-5.41,8.33-2.6,14.24,4,7.75,7,8.16A39.45,39.45,0,0,0,132.08,255s-13,3.13-20.44.68S100.14,251.64,102.26,238.94Z"/><path class="cls-30" d="M102.37,239.76s-4.94,7-1,13.09,11.48,6.2,16.39,6.23a21.77,21.77,0,0,0,15.1-6.07s-16,4.18-21.87,1.78S99,251.41,102.37,239.76Z"/><path class="cls-37" d="M109.89,231.72s-6.9,1.63-8.87,10.34.73,10.52,4.91,12.77,8.41,3.71,12.73,3.17c3.75-.47,11.3-1,13.42-3s4.29-9.91,4.29-9.91.92-6.77.24-8.23-1.24,1-1.24,1-3.65,12.89-6.33,13-11.06-4.07-11.86-5.14S110.16,241.38,109.89,231.72Z"/><path class="cls-30" d="M128.88,249.37c-2.51.11-6.69-3.67-8.29-5-1.58-.11-2.71-.49-3.09-1.35-1.62-3.69-5.14-8.91-6.75-11.77-.35.21-.73.45-1.12.73-2.65,3.76-5.48,12.81-1.52,17,5.48,5.79,18.58,6.61,24.63,3.5a22,22,0,0,0,4.82-3.18,59.78,59.78,0,0,0,2-5.84s.07-.52.15-1.31a15,15,0,0,0-3.16.18C135.25,245.66,130.28,249.31,128.88,249.37Z"/><path class="cls-30" d="M120.81,222.46a12.11,12.11,0,0,1,4.74-1.2c2.17.08,4.53-.24,10.76,5.49s11.37,7,12,9.68-1.19,12.83-3.75,16c-5.37,6.58-19.18,11.68-19.18,11.68,7.66-11.56,8.22-10,9.54-16.26,1.29-6.11,1.86-14.12.09-17.33S121.46,222.06,120.81,222.46Z"/><path class="cls-37" d="M131.49,225.83a11.73,11.73,0,0,1,4.4,4.88c-.74-3.37-2.49-4.52-4.66-6.42-2.38-2.09-5.87-2.06-7.37-1.94A20.81,20.81,0,0,1,131.49,225.83Z"/><path class="cls-33" d="M151,220.62s4.65,14.74,7,18.59-1.33,15-1.53,15.26-5.13,5-5.13,5l2.14-12.85s-.76-10.21-1.36-11.57S150.28,223.41,151,220.62Z"/><path class="cls-37" d="M142.46,244c-.39,5.22-5.66,12.33-9.17,16.55,1.65-1,3.34-2,4.89-3a48.3,48.3,0,0,0,5.11-5.53c3.06-3.93,4.42-9.12,5-12.73a9.73,9.73,0,0,0,0-2.93c-.46-1.89-3.19-3.1-7-5.7C142.83,234.38,142.92,238.09,142.46,244Z"/><path class="cls-30" d="M106.38,261.47s4.33,5.47,8.67,4.61,12.53-1.91,19.61-6.79,8.74-5.64,10.14-9.62,2.7-16.38,2.62-19.76c0,0,.9-2.28,1.51,1.17s-.21,14.32-.92,17.51a9,9,0,0,1-3.76,5.66c-1.23.88-8.39,6.71-10.56,9.31s-6.3,4-9.21,4.76-12.17.76-13.71.07S103.58,265.25,106.38,261.47Z"/><path class="cls-38" d="M128.2,252.45a26,26,0,0,0-6.06-1.17c-3.32-.21-5-2.05-7.2-5.19s-4.65-5-5.28-7.52S105,229.86,111,225.13c0,0,8.77-7.53,20.46.7a11,11,0,0,1,4.43,13.82s-3.21,8.62-3.76,9.76S128.2,252.45,128.2,252.45Z"/><path class="cls-37" d="M128,225.75A13,13,0,0,0,114.58,228c-3.93,3.33-3.55,6.5-3,9.75s3,4.28,5.08,6.7,2,3.39,6,6.06a12.31,12.31,0,0,0,2,1.09,25.28,25.28,0,0,1,3.57.87s3.42-1.9,4-3c.25-.52,1.05-2.58,1.85-4.68C133.1,238.32,131.07,227,128,225.75Z"/><path class="cls-30" d="M119.63,244.19s-12.77-6-3.45-15.3,18.42,2.1,19.12,5.48a34.52,34.52,0,0,1,.62,8.66c-.2.29-10.67,3.12-10.67,3.12Z"/><path class="cls-37" d="M120.44,230.79c-7.2,4.5-2.24,12.12-2,12.47l0,0c.39,0,9.54,12.38,15.39,0,0-.86.81-5.14.7-6.31C132.68,232.19,126.58,227,120.44,230.79Z"/><path class="cls-30" d="M124,245.15s-4.38-2.22-4.42-5.72,1.23-4.76,3.62-6a6.45,6.45,0,0,1,6.45-.16c2,1.06,6.64,5.64,3.9,10.87,0,0-1.57-6.43-5.82-4.41a3.84,3.84,0,0,0-1.84,5.78Z"/><path class="cls-37" d="M124.72,244.87s-4.9-4.42.34-7.5,9.64,2.15,9.24,5.91Z"/><path class="cls-15" d="M124.76,244.56s-2-4.28,1.35-5.59,5.47-.46,6.69,1.94S126.06,239.6,124.76,244.56Z"/><path class="cls-30" d="M124.76,244.56s-2-4.28,1.35-5.59,5.47-.46,6.69,1.94S126.06,239.6,124.76,244.56Z"/><path class="cls-30" d="M129.32,238.33s1.41,4.76-4.56,6.23c0,0-3.62,1-6.53-4.19,0,0-1.55,1,2.54,5.7s6.7,6.57,9.74,4.3,5.53-5.4,4.91-7.27A8.14,8.14,0,0,0,129.32,238.33Z"/><path class="cls-37" d="M130.2,238.54c1.36,1.83,2.17,4.72-2.36,8.29-3.22,2.55-6.9-.79-8.78-3a19.21,19.21,0,0,0,1.71,2.21c4.09,4.7,6.7,6.57,9.74,4.3a15.17,15.17,0,0,0,4.58-5.05,3.49,3.49,0,0,0,.2-1.92C134.89,241.13,132.87,239.44,130.2,238.54Z"/><path class="cls-37" d="M124.76,244.55a3.28,3.28,0,0,1,1.47-3,2.48,2.48,0,0,1,2.94-.29S127.75,244.66,124.76,244.55Z"/><path class="cls-38" d="M115.9,223.29s3-7.36,7.78-9.12,16.22-1.25,21,1.88,6,2.9,5.93,5.78,2.53,12.36,3.22,14.86-.22,20.89-4.54,25.76c0,0,1.85-17,1.73-22s-2.87-5.12-3.88-10.07-5.85-12.09-13-13.54a15.32,15.32,0,0,0-15.29,6.26Z"/><path class="cls-30" d="M159.08,198.39a21.81,21.81,0,0,1-9.68-3.45c-2.93-1.89-4-1.72-12.06-1.95-6.63-.2-14.17,6.73-16.62,9.18a66,66,0,0,1,8.73,2.56c12.54-3.83,31,13.68,29.69,17.29s1.55,21.37-5.83,33.19-25.44,26.26-23.87,25.94,11.82-6.63,13.28-8.46,6.56-3.28,8.08-6,9.14-7.1,10.22-10.05,6.08-7.51,8-12.06a12.45,12.45,0,0,0,.41-9.24c-.46-1.67.89-3.62,1.69-10.35s-5.86-18.11-6.17-21.47S162.15,198.59,159.08,198.39Z"/><path class="cls-39" d="M208.36,223.43s-6.74,18.19,3.4,34.85C228,285,244.4,287.8,247,288.26c19.06,3.28,20.4,3,27.48,3.31s24.47-15,31.43-20.21-31.45-.29-32.26.06-25.71-2.65-33.14-7.94S209.17,223.08,208.36,223.43Z"/><path class="cls-40" d="M242.61,204.8s-25.47,4.66-28,16.77A27.24,27.24,0,0,0,219,243.09c.56.62,8.06.59,8.06.59l5.35-8.61Z"/><path class="cls-41" d="M213.29,214.4s5.66-10.77,10.09-16.67,8.32-12.8,18.19-16.85,20.75-4.89,25.55-2.1,19.65,13.4,21.2,18-20.56,1-22.38,1.86-26.7,9.53-35.7,12A156.52,156.52,0,0,1,213.29,214.4Z"/><path class="cls-42" d="M230.6,218.51s-6,18.05-9.07,23.82c0,0,19.08,17.11,23.72,18.92s24,2,24,2l8-4.24,3.35-1.91s-20-.89-22.3-1.79-10.16-7.9-11.95-9.66-11.1-12.87-11.1-12.87Z"/><path class="cls-43" d="M217,209.26c.62-.56,4.25-6.1,17.22-9.21s14.91-6.37,19.39-9.3,22.5-4.22,28.54,1.21-13.33,2.3-20.73,4.5S217,209.26,217,209.26Z"/><path class="cls-44" d="M245.56,201a70.08,70.08,0,0,0-17.62,1.3c-8.77,1.94-17,9-19.29,15.23s2.16,24.36,5.78,30.86,29.14,37.13,51.76,34.3c0,0,11.92-1.78,13.93-2.47a18.07,18.07,0,0,0,4.54-2.87s-32.78-.49-56.64-28.49c0,0-14.49-10.18-12-20.71s11.27-16.61,22.34-21S245.56,201,245.56,201Z"/><path class="cls-45" d="M311.12,231.59s-10.31,22.37-24.4,28.12-24.82,10-24.82,10l22.76,7.69s9.14,1.25,15.9-7.63S315.68,251,315.3,245.34,311.12,231.59,311.12,231.59Z"/><path class="cls-41" d="M236.12,211.06s5.13-10.66,12.62-13.19,16-9.2,24.61-8.51,12.07,3.35,17.76,5.21,5.9.42,10.58,4.2,9.66,12,11.27,19.36-3.69,21.65-5.35,25.91-7.82,11.84-15.58,14.61-2.19-32.85-2.19-32.85Z"/><path class="cls-43" d="M237.32,213.49s5.71-17.21,30.86-15.18,28.5,14,31.32,23.5,4.8,21.78-7.74,36.16S237.32,213.49,237.32,213.49Z"/><path class="cls-45" d="M287,223.26s9.08,5.87,11,11.49-.59,16.14-4.16,18.43-16.12,3-16.12,3l-4.7-.63,14.37-31.44"/><path class="cls-39" d="M239.18,210.36s-7.71,2.48-7.23,6.74,1.34,10.81,2.06,10.16,3.68-2.58,3.51-3.18,2.06-5.82,2.06-5.82S239,210.15,239.18,210.36Z"/><path class="cls-46" d="M238.59,213.93A42.1,42.1,0,0,1,234,226l1.25,6.84,14.08,6.1Z"/><path class="cls-47" d="M265.66,205.35s-10.86-5.76-17.82-2.46-9.11,4.68-9.28,8,.4,16,10.65,28.14c0,0-5.31-14.36-3.12-22.73S249.78,203.38,265.66,205.35Z"/><path class="cls-48" d="M264.67,205.5s-9.11-5.29-16.23-.71-6.36,13-5.85,18.46c1,10.46,9.17,16.62,9.17,16.62s-6.95-17.7-4.65-24.29S250,202.11,264.67,205.5Z"/><path class="cls-47" d="M275.41,213.62s-2.78-7.63-13.73-9.55-12.87,1.14-15.18,5.85-3.62,9.49-2.47,14.28c1,4.16,2.53,12.55,5.18,14.85s12.7,4.47,12.7,4.47,8.44.82,10.16,0-1.42-1.35-1.42-1.35-16.28-3.66-16.73-6.64,3.77-12.44,5-13.37S263.55,214.22,275.41,213.62Z"/><path class="cls-49" d="M255.79,235.32c-.42-2.79,3.77-7.57,5.25-9.39-.05-1.76.3-3,1.32-3.49,4.36-1.92,10.4-6,13.75-7.87-.31-.39-.64-.8-1-1.23-4.94-2.84-16.39-5.7-21.09-1.17-6.52,6.29-6.06,20.9-1.56,27.53a27.23,27.23,0,0,0,4.46,5.28c3.56,1.18,7.41,2,7.41,2l1.63.13a15.9,15.9,0,0,0-.57-3.52C261.08,242.3,256,236.87,255.79,235.32Z"/><path class="cls-50" d="M288,225.49a13.47,13.47,0,0,1,2,5.25c.15,2.41.8,5-5.55,12.15s-7.4,12.87-10.59,13.67-15.94-.92-20.09-3.68c-8.71-5.78-16.54-21-16.54-21,15.1,8.17,13.2,8.84,21.11,10.12,7.66,1.24,17.6,1.63,21.35-.45S288.61,226.2,288,225.49Z"/><path class="cls-39" d="M285.09,237.49a12.62,12.62,0,0,1-5.53,5.06c4.07-.93,5.3-2.92,7.4-5.4,2.3-2.71,1.88-6.59,1.56-8.27A20.54,20.54,0,0,1,285.09,237.49Z"/><path class="cls-46" d="M294.43,258.59s-18.38,6.14-22.85,8.88-18.59-1-19-1.23-6.73-5.56-6.73-5.56l16.07,2s12.48-1.16,14.1-1.87S290.92,257.82,294.43,258.59Z"/><path class="cls-46" d="M263.89,250.28c-6.48-.28-15.83-5.93-21.41-9.71,1.37,1.81,2.8,3.66,4.19,5.36a63.58,63.58,0,0,0,7.38,5.52c5.18,3.28,11.74,4.63,16.25,5.19a12.93,12.93,0,0,0,3.61-.08c2.27-.57,3.46-3.65,6.24-7.93C275.81,250.38,271.26,250.6,263.89,250.28Z"/><path class="cls-44" d="M238.38,210.64s-6.26,5-4.72,9.8,3.75,13.89,10.57,21.62,7.91,9.56,13,11,20.49,2.49,24.64,2.3c0,0,2.91.93-1.27,1.71s-17.66.21-21.67-.48a12.35,12.35,0,0,1-7.4-4c-1.21-1.34-9.21-9.13-12.65-11.47s-5.67-6.89-6.9-10.11-2.29-13.52-1.61-15.26S233.4,207.63,238.38,210.64Z"/><path class="cls-47" d="M250.41,232.36a25,25,0,0,0,1.74-6.6c.44-3.67,2.78-5.23,6.73-7.27s6.31-4.46,9.48-4.77,10.9-3.91,16.36,3.53c0,0,8.76,10.93-1.91,22.77,0,0-5.91,8.3-17.14,2.89,0,0-10.38-4.88-11.74-5.66S250.41,232.36,250.41,232.36Z"/><path class="cls-48" d="M283.09,236.1c2.35-4.6,1.84-10.41-2-15.3s-7.77-5-11.78-4.8-5.39,2.76-8.45,4.69-4.26,1.76-7.73,5.77c-.6.69,1.06.52.69,1.18-.56,2.29-.25,1.83-.25,1.83s1.84,5.28,3.2,6.06c.62.35.29,3.28,2.81,4.48C265.32,243.82,281.4,239.37,283.09,236.1Z"/><path class="cls-47" d="M259.67,239.37s-14.71-5.14-5.31-18.19,18.94-2.07,21.45,1.27c6.81,9.1-1.95,15.7-2.14,16.1s-7.59,2.27-7.59,2.27Z"/><path class="cls-48" d="M259.06,223c-7.52,6.76-1.29,15.28-1,15.67l0,0c.44,0,9.63,2.55,17-2.62-.1-1.06.38-6.46.16-7.89C272.74,222.59,265.49,217.21,259.06,223Z"/><path class="cls-47" d="M260.44,229.72s2.25-5,6.55-5.11,6,1.23,7.8,3.85,2,4.86.92,7.17-6.2,7.58-12.95,4.68c0,0,7.75-1.94,4.78-6.61a5.15,5.15,0,0,0-7.33-1.86Z"/><path class="cls-43" d="M260.87,230.54s4.9-5.59,9.28.15-1.57,10.8-6.25,10.47Z"/><path class="cls-15" d="M261.27,230.57s5-2.31,7,1.34,1.18,6.07-1.65,7.51S267.51,231.87,261.27,230.57Z"/><path class="cls-41" d="M261.27,230.57s5-2.31,7,1.34,1.18,6.07-1.65,7.51S267.51,231.87,261.27,230.57Z"/><path class="cls-41" d="M269.45,235.46s-5.71,1.72-8.18-4.89c0,0-1.64-4,4.42-7.39,0,0-1.41-1.7-6.74,3s-7.34,7.67-4.21,11,7.27,6,9.51,5.22A8.43,8.43,0,0,0,269.45,235.46Z"/><path class="cls-51" d="M261.27,230.57a4.6,4.6,0,0,1,3.84,1.55c1.69,1.87.68,3.27.68,3.27S261.47,233.91,261.27,230.57Z"/><path class="cls-50" d="M286.47,220s9.41,3.13,12.11,8.39,3.35,18,0,23.48-2.9,6.76-6.45,6.78-15,3.21-18,4-25.76.41-32.24-4.25c0,0,21.13,1.54,27.26,1.24s6-3.35,12-4.63,14.25-6.89,15.23-14.93-5-14.45-9.42-16.83Z"/><path class="cls-50" d="M322.34,243.09c-.46-7.39-6-15.68-9.31-18.33a64.72,64.72,0,0,1-2.17,9.8c6.11,13.85-13.4,35-18,33.6-4.8-1.42-26.15,2.4-41.55-5.46s-35.2-27.51-34.62-25.78,9.48,13,11.9,14.53,4.77,7.2,8.25,8.82,9.76,10,13.52,11.06,9.94,6.54,15.76,8.53a16.79,16.79,0,0,0,11.42.17c2-.56,4.57.88,12.94,1.56s17.22-8.45,24.52-15.78C315,265.81,323.12,255.67,322.34,243.09Z"/></g></g></svg>