<svg xmlns="http://www.w3.org/2000/svg" viewBox="0 0 751.36 826.91"><defs><style>.cls-1{fill:#518236;}.cls-2{fill:#4e7f34;}.cls-3{fill:#02663e;}.cls-13,.cls-4,.cls-5{fill:none;stroke-miterlimit:10;}.cls-4{stroke:#02663e;stroke-width:2px;}.cls-5{stroke:#4b7230;}.cls-6{fill:#008042;}.cls-7{fill:#008363;}.cls-8{fill:#638732;}.cls-9{fill:#8db045;}.cls-10{fill:#ebdba5;}.cls-11{fill:#81a967;}.cls-12{fill:#5d782d;}.cls-13{stroke:#00582d;stroke-width:0.25px;}.cls-14{fill:#de627c;}.cls-15{fill:#ea6368;}.cls-16{fill:#f2a8a3;}.cls-17{fill:#eb758a;}.cls-18{fill:#f09692;}.cls-19{fill:#ed7752;}.cls-20{fill:#ea6365;}.cls-21{fill:#ec746b;}.cls-22{fill:#ef886f;}.cls-23{fill:#ec745b;}.cls-24{fill:#f19563;}.cls-25{fill:#eb7072;}.cls-26{fill:#ed7e7f;}.cls-27{fill:#db615a;}.cls-28{fill:#cf4f4e;}.cls-29{fill:#e95a4a;}.cls-30{fill:#e95a58;}.cls-31{fill:#006935;}.cls-32{fill:#ea636b;}.cls-33{fill:#ee847c;}.cls-34{fill:#6f9639;}.cls-35{fill:#e9637d;}.cls-36{fill:#e96382;}.cls-37{fill:#da5c61;}.cls-38{fill:#7d912f;}.cls-39{fill:#718836;}.cls-40{fill:#006a4e;}.cls-41{fill:#40734c;}.cls-42{fill:#ec724e;}.cls-43{fill:#e36a40;}.cls-44{fill:#e95a48;}.cls-45{fill:#e24a2c;}.cls-46{fill:#ea644f;}.cls-47{fill:#d8492e;}.cls-48{fill:#eb6b69;}.cls-49{fill:#d25754;}.cls-50{fill:#dc5440;}.cls-51{fill:#ea6369;}.cls-52{fill:#d44647;}.cls-53{fill:#dc616b;}</style></defs><title>round-rose</title><g id="Layer_2" data-name="Layer 2"><g id="Layer_1-2" data-name="Layer 1"><path class="cls-1" d="M487.39,187.86S496.76,201.35,499,210l3.74-1.12s-5.25-13.86-12-21.73Z"/><path class="cls-1" d="M498.63,205.84s-9.8,9.48-3.77,24.44,12.42,17.83,12.42,17.83,10.57-21.87-.42-39.11C506.86,209,502.05,203.34,498.63,205.84Z"/><path class="cls-2" d="M492.44,185.21s16.84-.59,27.3-2.91v3.49l-22.07,3.48Z"/><path class="cls-2" d="M517.42,182.88S518,166.62,541.23,166,568,171.85,568,171.85,531.94,213.67,517.42,182.88Z"/><path class="cls-2" d="M471.58,184.83s90.67,26.3,137.73,99.66l6.22-2.08S560.86,196.6,475,180Z"/><path class="cls-2" d="M536,210.44s23.53,10.38,42.21,9.69v3.46S551.86,224.28,536,210.44Z"/><path class="cls-2" d="M575.39,222.2s10.39-18.68,37.38-10.38,24.22,20.77,44.29,27C657.06,238.82,605.85,272,575.39,222.2Z"/><path class="cls-2" d="M551.86,236.74s-10.38,3.46-4.84,20.07,10.38,33.91,6.23,39.45,22.84-13.85,22.14-29.76S565,234,551.86,236.74Z"/><path class="cls-3" d="M518.42,213.46s-7.21,3.65-3.64,11.79S527,228.93,527,228.93s8.58-5.56,3.52-12.42S521.46,211.47,518.42,213.46Z"/><path class="cls-3" d="M545.6,192.1s-7.22,3.64-3.65,11.78,12.25,3.68,12.25,3.68,8.59-5.55,3.52-12.41S548.63,190.1,545.6,192.1Z"/><path class="cls-4" d="M528.14,206.85s11.08-.42,16.51-4"/><path class="cls-4" d="M512.62,202.25s3.54,1.82,7.32,12"/><path class="cls-5" d="M577.33,221.61s49.16,18.81,78.09,17.87"/><path class="cls-5" d="M641.19,231.26s-13,3.63-16.27,4.58c0,0,6,7.27,14.06,10.75"/><path class="cls-5" d="M646.1,233.63,633,237.42s6.79,5.22,11.69,7.27"/><path class="cls-5" d="M638.82,227.62s-19.91,5.85-21.18,6.16c0,0,8.86,10.91,15.65,14.23"/><path class="cls-5" d="M634.56,224s-17.71,5.69-23.87,8.07c0,0,6.64,11.54,16.75,17.38"/><path class="cls-5" d="M627.6,218.61s-19.76,8.85-24,11.7c0,0,7.9,13.43,16.91,18.81"/><path class="cls-5" d="M621.12,215.76s-19.28,7.28-23.71,12.65c0,0,5.21,11.86,13.91,20.07"/><path class="cls-5" d="M612.43,212.6s-17.71,9.64-22.13,13.6c0,0,6.48,13.27,11.22,19.91"/><path class="cls-5" d="M605.47,210.71s-14.7,6.79-22,12.8c0,0,4.27,10.75,11.22,18.34"/><path class="cls-2" d="M528.12,208.51s22.29,16.62,28,29.59l-3.83.73S547.85,227.32,523,207.6Z"/><path class="cls-5" d="M551.86,236.74s24.53,31.82,2.71,59"/><path class="cls-5" d="M555.21,287.69s6.79-8.22,7.74-10.91a28.29,28.29,0,0,1,1.11,11.38"/><path class="cls-5" d="M553.94,279.62s8.54-9.16,9.64-13.43a51.46,51.46,0,0,1,4.74,16.91"/><path class="cls-5" d="M553,273.93s8.85-10,9.64-14.22c0,0,6.64,9.16,9.33,18.33"/><path class="cls-5" d="M551.1,268.08s8.37-14.85,8.21-18c0,0,11.07,9.17,15.5,20.4"/><path class="cls-5" d="M549.2,260.65s7.27-13.74,6.79-16.91c0,0,12.33,5.22,18.82,16.76"/><path class="cls-5" d="M546.35,253.23s8.07-13,7.75-13.76a34.4,34.4,0,0,1,18.34,12.65"/><path class="cls-3" d="M492.8,192.63s15.06,12.54,32.41,17.14,22,0,42.65,18.82c0,0-6.06-10.45-13-14.63s-37.63-10.25-45.16-13.8S492.8,192.63,492.8,192.63Z"/><path class="cls-5" d="M519.17,183.9s25.94-12.85,48.78-12.05"/><path class="cls-5" d="M559.48,168.19s-5,2.67-6.82,4.74a81.37,81.37,0,0,0,8.5,5.73"/><path class="cls-5" d="M554.44,167c-.29,0-4.74,4.54-5.63,6.62a121.38,121.38,0,0,0,10.38,7.11"/><path class="cls-5" d="M550.89,166.71s-6.52,6.82-7.51,8.3c0,0,8.69,6,12.74,8"/><path class="cls-5" d="M547.13,166.32s-6.82,7.4-7.9,9.78c0,0,6.12,4.74,12.54,9.78"/><path class="cls-5" d="M540.81,166.61s-5.73,8.6-7.21,11.36c0,0,8,7.31,14.32,10.28"/><path class="cls-5" d="M535.57,167.6s-5.23,9.19-5.83,11.76c0,0,8.7,8.89,14,11.56"/><path class="cls-5" d="M532,167.8s-5.64,10-6.23,13.14c0,0,7.91,9.78,14.52,11.46"/><path class="cls-5" d="M527.57,169.58s-4.44,7.21-5.43,12.64c0,0,7.31,7.41,13.83,11.36"/><path class="cls-6" d="M558.48,196.35,542,204c3.62,7.92,12.17,3.52,12.17,3.52S561.8,202.64,558.48,196.35Z"/><path class="cls-6" d="M519.45,212.83c-.35.2-.7.42-1,.63,0,0-7.21,3.65-3.64,11.79,2.79,6.36,8.69,5,11.14,4.14Z"/><path class="cls-2" d="M589.42,249.62s15.39,6.86,25.81,9.35l-1.53,3.14-21.37-6.55Z"/><path class="cls-2" d="M612.88,258.48s7.66-14.37,28.79-4.7,21.47,16.94,21.47,16.94S612.44,292.52,612.88,258.48Z"/><path class="cls-2" d="M570.83,240.14s70,63.38,80.1,150l6.5.86s-11.51-101.1-81.36-153.65Z"/><path class="cls-2" d="M617.46,291.37s16.59,19.65,33.69,27.22l-1.52,3.11S625.69,310.79,617.46,291.37Z"/><path class="cls-2" d="M647.75,319.24s17.53-12.24,38.14,7.05,12.67,29.29,28,43.68C713.87,370,653.28,377.38,647.75,319.24Z"/><path class="cls-2" d="M620.23,322s-10.84-1.44-13.15,15.91-5.54,35-11.7,38.19,26.6-2.43,33-17S633.26,325.26,620.23,322Z"/><path class="cls-3" d="M600.38,286.4s-8.08.12-8.44,9,9.4,8.68,9.4,8.68,10.15-1.23,8.61-9.62S604,285.94,600.38,286.4Z"/><path class="cls-3" d="M634.17,279.11s-8.08.12-8.44,9,9.4,8.68,9.4,8.68,10.15-1.23,8.61-9.62S637.77,278.65,634.17,279.11Z"/><path class="cls-4" d="M612,284.72s10.15,4.48,16.59,3.67"/><path class="cls-4" d="M600.08,273.79s2.39,3.18,1.33,14"/><path class="cls-5" d="M649.76,319.56S685.7,358,712.11,369.85"/><path class="cls-5" d="M702.93,356.22s-13.25-2.41-16.64-3c0,0,2.2,9.16,7.93,15.82"/><path class="cls-5" d="M706.29,360.5l-13.45-2.34s3.82,7.67,7.32,11.66"/><path class="cls-5" d="M702.39,351.91s-20.46-3.47-21.74-3.74c0,0,3.17,13.68,7.83,19.65"/><path class="cls-5" d="M700.15,346.78s-18.41-2.65-25-3.22c0,0,.91,13.28,7.44,23"/><path class="cls-5" d="M696.25,338.9s-21.63-.71-26.72,0c0,0,1.21,15.54,7,24.32"/><path class="cls-5" d="M691.67,333.5s-20.51-1.92-26.85,1c0,0-.51,12.94,3.7,24.14"/><path class="cls-5" d="M685.25,326.84s-20.14.91-25.85,2.52c0,0,0,14.78,1.35,22.82"/><path class="cls-5" d="M679.83,322.09s-16.19-.34-25.36,1.88c0,0-.88,11.53,2,21.4"/><path class="cls-2" d="M611.27,286.21s12.75,24.7,12.15,38.85l-3.77-1s1.11-12.27-12.57-40.89Z"/><path class="cls-5" d="M620.23,322s8.09,39.34-23.43,54.22"/><path class="cls-5" d="M600.9,369.24s9.72-4.41,11.74-6.41a28.21,28.21,0,0,1-4,10.72"/><path class="cls-5" d="M603.3,361.44s11.69-4.5,14.56-7.85a51.56,51.56,0,0,1-3.16,17.28"/><path class="cls-5" d="M604.94,355.91s12.32-5.07,14.9-8.56c0,0,1.95,11.15.35,20.57"/><path class="cls-5" d="M605.8,349.82s14-9.68,15.29-12.59c0,0,5.92,13.09,5,25.12"/><path class="cls-5" d="M607.35,342.31s12.57-9.17,13.53-12.22c0,0,8.79,10.1,9.56,23.31"/><path class="cls-5" d="M608.05,334.39s12.93-8.12,13-9A34.33,34.33,0,0,1,632,344.83"/><path class="cls-3" d="M586.49,256.45s8,17.87,21.61,29.61,19.73,9.63,30.09,35.62c0,0-.87-12.06-5.24-18.84s-29.33-25.71-34.54-32.2S586.49,256.45,586.49,256.45Z"/><path class="cls-5" d="M614,260.17S643,260,663.14,270.72"/><path class="cls-5" d="M657.13,263.72s-5.7.19-8.21,1.27a81,81,0,0,0,5.13,8.88"/><path class="cls-5" d="M653.12,260.44c-.26-.12-6.25,2-8,3.48a119.18,119.18,0,0,0,6.2,10.94"/><path class="cls-5" d="M650.06,258.62s-8.85,3.27-10.39,4.17c0,0,5.17,9.22,7.94,12.78"/><path class="cls-5" d="M646.86,256.62s-9.38,3.67-11.4,5.32c0,0,3.43,6.95,7,14.29"/><path class="cls-5" d="M641,254.11s-8.92,5.21-11.46,7.05c0,0,4,10.08,8.37,15.52"/><path class="cls-5" d="M635.91,252.71s-8.74,6-10.4,8c0,0,3.92,11.8,7.54,16.54"/><path class="cls-5" d="M632.62,251.32s-9.43,6.5-11.35,9.08c0,0,2.81,12.26,8,16.67"/><path class="cls-5" d="M627.85,251s-7.17,4.54-10.43,9c0,0,3.32,9.86,7.45,16.27"/><path class="cls-6" d="M643.89,288.58l-18.16-.29c-.21,8.7,9.4,8.5,9.4,8.5S644.11,295.7,643.89,288.58Z"/><path class="cls-6" d="M601.58,286.29c-.41,0-.81.07-1.2.11,0,0-8.08.12-8.44,9-.28,6.94,5.6,8.33,8.2,8.61Z"/><path class="cls-5" d="M499.76,205.93s4.1,28.26,7.21,41.52"/><path class="cls-5" d="M502.3,243.16l1.55-11.69s4.68,7.8,5.27,11.89"/><path class="cls-5" d="M499.57,239.85s2.14-11.3,3.7-13.45a81.69,81.69,0,0,1,6.82,11.5"/><path class="cls-5" d="M497.42,235s2.93-12.08,4.49-14.22c0,0,6.62,5.06,9.74,11.5"/><path class="cls-5" d="M494.69,228.74s4.1-9.94,6.83-12.87c0,0,6.63,5.66,10.13,10.33"/><path class="cls-5" d="M493.33,221.72s4.68-8.38,7.6-10.52a48.27,48.27,0,0,1,10.53,10.13"/><path class="cls-1" d="M646.61,358.89s-5.51,15.47-11.21,22.31l3.09,2.39s8.22-12.33,10.69-22.39Z"/><path class="cls-1" d="M638.53,378.5s-13.41-2.45-22.06,11.16-7.28,20.47-7.28,20.47S633.13,406,640.75,387C640.75,387,642.56,379.82,638.53,378.5Z"/><path class="cls-2" d="M651.71,361.45S662,374.81,670,382l-2.84,2-15.68-15.92Z"/><path class="cls-2" d="M668.13,380.41s13.57-9,27.56,9.56,10.83,25.11,10.83,25.11S651.55,410.14,668.13,380.41Z"/><path class="cls-2" d="M639.87,344.28s31.39,89-.88,170l5.32,3.86s38-94.41,1.51-173.86Z"/><path class="cls-2" d="M656.51,411.52s5.25,25.17,16.69,40l-2.81,2S654.52,432.52,656.51,411.52Z"/><path class="cls-2" d="M669.9,450.44s21.24-2.43,30.2,24.35-2.79,31.78,3.83,51.72C703.93,526.51,647.11,504.21,669.9,450.44Z"/><path class="cls-2" d="M644.39,439.77s-8.86-6.43-19.14,7.74-21.53,28.18-28.45,28,24.55,10.51,37.09.68S654.29,448.85,644.39,439.77Z"/><path class="cls-3" d="M643.85,399s-7.16-3.75-11.7,3.9,4.14,12.1,4.14,12.1,9.51,3.75,12.14-4.36S647.24,400.33,643.85,399Z"/><path class="cls-3" d="M677,408.69s-7.16-3.75-11.7,3.9,4.14,12.1,4.14,12.1,9.51,3.75,12.14-4.36S680.43,410,677,408.69Z"/><path class="cls-4" d="M654.89,403.08s6.79,8.76,12.84,11.12"/><path class="cls-4" d="M649.59,387.78s.59,3.94-5.48,12.93"/><path class="cls-5" d="M671.52,451.68s13.31,50.92,30.92,73.89"/><path class="cls-5" d="M700.84,509.22s-10.5-8.42-13.2-10.57c0,0-2.42,9.12-.55,17.69"/><path class="cls-5" d="M701.77,514.58l-10.72-8.46s-.29,8.56.89,13.75"/><path class="cls-5" d="M702.42,505.18s-16.35-12.8-17.34-13.64c0,0-3.72,13.55-2.46,21"/><path class="cls-5" d="M702.89,499.59S688,488.51,682.44,484.87c0,0-5.51,12.12-4.38,23.75"/><path class="cls-5" d="M703.21,490.81s-18.69-10.92-23.49-12.73c0,0-6.33,14.24-5.45,24.7"/><path class="cls-5" d="M701.76,483.88S684.62,472.43,677.67,472c0,0-6.6,11.14-8.22,23"/><path class="cls-5" d="M699.27,475s-18.15-8.79-23.94-10.08c0,0-7,13-9.66,20.71"/><path class="cls-5" d="M696.76,468.21s-14.08-8-23.2-10.42c0,0-6.26,9.73-8.38,19.8"/><path class="cls-2" d="M653.53,404s-.55,27.8-7.8,40l-2.82-2.69s6.8-10.26,8.38-42Z"/><path class="cls-5" d="M644.39,439.77s-11.6,38.46-46.41,36.55"/><path class="cls-5" d="M604.91,472.14s10.64.74,13.38-.05a28.38,28.38,0,0,1-8.62,7.52"/><path class="cls-5" d="M610.73,466.42s12.42,1.6,16.53,0a51.35,51.35,0,0,1-11,13.7"/><path class="cls-5" d="M614.8,462.34s13.25,1.4,17.18-.44c0,0-3.59,10.73-9.48,18.25"/><path class="cls-5" d="M618.45,457.39s17-1.84,19.44-3.81c0,0-1,14.34-7.56,24.47"/><path class="cls-5" d="M623.39,451.52s15.42-2.09,17.71-4.32c0,0,2.94,13.07-2.68,25.05"/><path class="cls-5" d="M627.78,444.88s15.23-1,15.69-1.7a34.39,34.39,0,0,1,.39,22.27"/><path class="cls-3" d="M645.88,366.07s-1.43,19.54,4.92,36.33,12.78,17.85,9.53,45.64c0,0,5-11,4.35-19.06s-13.57-36.57-15.06-44.76S645.88,366.07,645.88,366.07Z"/><path class="cls-5" d="M668.33,382.43s25.54,13.61,38.19,32.65"/><path class="cls-5" d="M704.56,406.06s-5.1-2.54-7.82-2.78a81,81,0,0,0,.28,10.25"/><path class="cls-5" d="M702.59,401.28c-.17-.24-6.45-1.21-8.66-.73a121.47,121.47,0,0,0,.26,12.58"/><path class="cls-5" d="M700.76,398.21s-9.33-1.33-11.11-1.27c0,0,.16,10.58.91,15"/><path class="cls-5" d="M698.9,394.93s-10-1.23-12.55-.73c0,0-.29,7.74-.65,15.89"/><path class="cls-5" d="M695,390s-10.33.35-13.44.75c0,0-1.28,10.76,0,17.63"/><path class="cls-5" d="M691.13,386.28s-10.52,1.09-13,2.1c0,0-2.17,12.25-1.24,18.14"/><path class="cls-5" d="M688.9,383.5s-11.39,1.23-14.31,2.59c0,0-3.35,12.12-.87,18.48"/><path class="cls-5" d="M684.86,380.92s-8.45.59-13.44,2.95c0,0-1.77,10.25-1.19,17.86"/><path class="cls-6" d="M681.09,421.64l-15.84-8.89c-4.32,7.54,4.23,11.94,4.23,11.94S677.9,428,681.09,421.64Z"/><path class="cls-6" d="M645,399.5a11.9,11.9,0,0,0-1.11-.47s-7.16-3.75-11.7,3.9c-3.54,6,1,10,3.11,11.47Z"/><path class="cls-2" d="M655.77,477.8s3.39,16.51,7.42,26.44l-3.44.58-7.11-21.19Z"/><path class="cls-2" d="M662.23,502s16.13-2.14,20.58,20.68S681.53,550,681.53,550,634.29,521.49,662.23,502Z"/><path class="cls-2" d="M652.67,457.18S641.85,551,577.35,609.58l3.09,5.79s75.5-68.21,77.58-155.59Z"/><path class="cls-2" d="M638.14,524.9s-6.31,24.94-2.52,43.25l-3.41.57S627.15,542.91,638.14,524.9Z"/><path class="cls-2" d="M633.12,565.76s20.15,7.12,16.46,35.12-16.44,27.35-19.23,48.17C630.35,649.05,589.06,604.09,633.12,565.76Z"/><path class="cls-2" d="M614.87,545s-5.15-9.66-20.6-1.43-31.71,15.89-37.86,12.72,17.45,20.21,33,16.87S619.79,557.49,614.87,545Z"/><path class="cls-3" d="M632.24,508.13s-4.79-6.51-12.22-1.63-1.59,12.69-1.59,12.69,6.91,7.54,12.83,1.41S634.72,510.79,632.24,508.13Z"/><path class="cls-3" d="M657.84,531.37s-4.8-6.52-12.23-1.63S644,542.42,644,542.42s6.92,7.54,12.83,1.41S660.32,534,657.84,531.37Z"/><path class="cls-4" d="M640.39,516.61s2.26,10.85,6.67,15.62"/><path class="cls-4" d="M642.33,500.54s-1.2,3.79-10.59,9.21"/><path class="cls-5" d="M634,567.58s-10.36,51.6-4.61,80"/><path class="cls-5" d="M635.16,632.15s-5.74-12.17-7.23-15.29c0,0-6.17,7.14-8.26,15.67"/><path class="cls-5" d="M633.64,637.38l-5.93-12.3s-4,7.57-5.22,12.74"/><path class="cls-5" d="M638.35,629.21s-9.09-18.66-9.61-19.86c0,0-9.28,10.55-11.42,17.8"/><path class="cls-5" d="M641.22,624.4s-8.56-16.51-11.92-22.2c0,0-10.28,8.47-14.36,19.42"/><path class="cls-5" d="M645.36,616.64s-12-18-15.53-21.74c0,0-11.94,10-15.73,19.81"/><path class="cls-5" d="M647.09,609.78S636.7,592,630.67,588.51c0,0-10.82,7.11-17.48,17.06"/><path class="cls-5" d="M648.76,600.68s-12.46-15.85-17.09-19.56c0,0-12,8.6-17.77,14.39"/><path class="cls-5" d="M649.47,593.5s-9.15-13.36-16.29-19.53c0,0-9.88,6-16.21,14.12"/><path class="cls-2" d="M638.75,516.87s-12.68,24.74-24.52,32.49l-1.37-3.66s10.62-6.24,25.94-34Z"/><path class="cls-5" d="M614.87,545s-27.29,29.49-57.73,12.51"/><path class="cls-5" d="M565.19,556.77s9.24,5.33,12,5.82a28.26,28.26,0,0,1-11,3"/><path class="cls-5" d="M572.93,554.18s10.46,6.89,14.85,7.26a51.54,51.54,0,0,1-15.88,7.5"/><path class="cls-5" d="M578.38,552.29s11.3,7.07,15.63,7.14c0,0-7.93,8.08-16.52,12.25"/><path class="cls-5" d="M583.83,549.45s16,5.79,19.14,5.1c0,0-7.2,12.44-17.53,18.67"/><path class="cls-5" d="M590.84,546.34s14.77,4.88,17.81,3.89c0,0-3.09,13-13.39,21.33"/><path class="cls-5" d="M597.69,542.3s14.13,5.79,14.85,5.34a34.29,34.29,0,0,1-9.41,20.19"/><path class="cls-3" d="M648.52,479.4s-9.86,16.93-11.51,34.81,3.66,21.65-11.44,45.19c0,0,9.29-7.72,12.27-15.22s3.83-38.82,6.08-46.83S648.52,479.4,648.52,479.4Z"/><path class="cls-5" d="M661.52,503.94s17,23.44,20,46.09"/><path class="cls-5" d="M683.72,541.07s-3.47-4.52-5.81-5.93a80.82,80.82,0,0,0-4.23,9.33"/><path class="cls-5" d="M684.05,535.91c0-.3-5.27-3.92-7.46-4.45a119.86,119.86,0,0,0-5.29,11.41"/><path class="cls-5" d="M683.75,532.35s-7.81-5.29-9.43-6c0,0-4.5,9.57-5.77,13.9"/><path class="cls-5" d="M683.52,528.58s-8.45-5.48-11-6.16c0,0-3.66,6.83-7.56,14"/><path class="cls-5" d="M682.17,522.4s-9.43-4.22-12.4-5.22c0,0-5.88,9.11-7.75,15.84"/><path class="cls-5" d="M680.32,517.4s-9.93-3.63-12.56-3.79c0,0-7.32,10-9.06,15.76"/><path class="cls-5" d="M679.54,513.93s-10.78-3.9-14-3.95c0,0-8.32,9.42-8.88,16.23"/><path class="cls-5" d="M677,509.84s-7.85-3.18-13.37-3.25c0,0-6.09,8.44-8.9,15.53"/><path class="cls-6" d="M655.8,544.78l-10.34-14.94c-7.19,4.89-1.44,12.58-1.44,12.58S650.14,549.1,655.8,544.78Z"/><path class="cls-6" d="M633,509c-.26-.32-.53-.62-.8-.91,0,0-4.79-6.51-12.22-1.63-5.8,3.82-3.52,9.41-2.23,11.68Z"/><path class="cls-5" d="M639.11,379.47s-20.59,19.78-29.56,30"/><path class="cls-5" d="M610.32,403.2l10.41-5.54s-3.61,8.34-6.6,11.2"/><path class="cls-5" d="M611.42,399.05s10.44-4.83,13.09-4.81a81.11,81.11,0,0,1-5.38,12.24"/><path class="cls-5" d="M614.14,394.48s11.53-4.66,14.18-4.64c0,0-.27,8.34-3.68,14.62"/><path class="cls-5" d="M617.62,388.62s10.47-2.45,14.43-1.94c0,0-.74,8.68-2.5,14.26"/><path class="cls-5" d="M622.53,383.43s9.54-1.07,13,.06A48.54,48.54,0,0,1,633.4,398"/><path class="cls-1" d="M596.5,593.67s-15.85,4.29-24.72,3.51l-.2,3.91s14.82-.29,24.49-4Z"/><path class="cls-1" d="M575.79,598.21S570.15,585.8,554,586.45s-21,5.7-21,5.7,17,17.31,37,12.75C570,604.9,577,602.27,575.79,598.21Z"/><path class="cls-2" d="M597.3,599.31s-5.11,16.06-6.43,26.69l-3.28-1.17,4.13-22Z"/><path class="cls-2" d="M591.1,623.62s15.12,6,7.87,28.09-14.45,23.22-14.45,23.22S557.22,627,591.1,623.62Z"/><path class="cls-2" d="M604.66,579.79S549.43,656.35,464.53,676l-.14,6.56s99.2-22.66,143.67-97.91Z"/><path class="cls-2" d="M558.92,631.81s-17.68,18.68-23.31,36.51l-3.26-1.16S540.54,642.15,558.92,631.81Z"/><path class="cls-2" d="M534.58,665s14.12,16.06-2.78,38.69-27.69,15.84-40.3,32.65C491.5,736.35,477.42,677,534.58,665Z"/><path class="cls-2" d="M528.8,638S529,627,511.53,626.66s-35.43-1.61-39.25-7.39,5.36,26.17,20.59,30.86S527,651.28,528.8,638Z"/><path class="cls-3" d="M562,614.29s-1-8-9.88-7.39-7.58,10.3-7.58,10.3,2.35,9.95,10.51,7.49S562.82,617.82,562,614.29Z"/><path class="cls-3" d="M573,647.07s-1-8-9.88-7.4S555.5,650,555.5,650s2.35,10,10.51,7.49S573.82,650.59,573,647.07Z"/><path class="cls-4" d="M564.93,625.67s-3.33,10.57-1.81,16.89"/><path class="cls-4" d="M574.47,612.59s-2.9,2.73-13.74,2.87"/><path class="cls-5" d="M534.49,667s-34.24,40-43.06,67.55"/><path class="cls-5" d="M504,724s.93-13.43,1.16-16.88c0,0-8.87,3.22-14.86,9.64"/><path class="cls-5" d="M500.07,727.77l.84-13.63s-7.2,4.65-10.78,8.57"/><path class="cls-5" d="M508.17,722.94s1.18-20.72,1.31-22c0,0-13.24,4.67-18.66,10"/><path class="cls-5" d="M513,720.14s.59-18.59.43-25.19c0,0-13.1,2.38-22,9.94"/><path class="cls-5" d="M520.43,715.4s-1.7-21.59-2.94-26.57c0,0-15.32,2.93-23.4,9.62"/><path class="cls-5" d="M525.29,710.25s-.37-20.61-3.95-26.58c0,0-12.92.93-23.58,6.35"/><path class="cls-5" d="M531.19,703.12s-3.14-19.91-5.37-25.41c0,0-14.68,1.64-22.53,3.88"/><path class="cls-5" d="M535.31,697.21s-1.46-16.13-4.68-25c0,0-11.56.41-21,4.41"/><path class="cls-2" d="M563.37,625.1s-23.15,15.4-37.27,16.38l.61-3.86s12.31-.27,39.24-17Z"/><path class="cls-5" d="M528.8,638s-38.21,12.41-56.49-17.28"/><path class="cls-5" d="M479.7,624s5.45,9.16,7.66,11a28.34,28.34,0,0,1-11.08-2.78"/><path class="cls-5" d="M487.71,625.52s5.77,11.12,9.42,13.59a51.61,51.61,0,0,1-17.53-1.21"/><path class="cls-5" d="M493.39,626.54s6.4,11.68,10.16,13.86c0,0-10.87,3.17-20.4,2.62"/><path class="cls-5" d="M499.54,626.71s11.18,12.89,14.21,13.8c0,0-12.36,7.34-24.41,7.74"/><path class="cls-5" d="M507.17,627.42s10.51,11.47,13.65,12.09c0,0-9.06,9.86-22.1,12.09"/><path class="cls-5" d="M515.12,627.24s9.5,12,10.35,11.91a34.33,34.33,0,0,1-18.07,13"/><path class="cls-3" d="M590.19,597.16s-16.87,10-27,24.77-7.38,20.67-32.06,33.85c0,0,11.88-2.2,18.14-7.29s22.29-32,28.17-37.91S590.19,597.16,590.19,597.16Z"/><path class="cls-5" d="M589.55,624.93s3.39,28.75-5,50"/><path class="cls-5" d="M590.8,668.17s-.82-5.64-2.17-8a81.91,81.91,0,0,0-8.25,6.08"/><path class="cls-5" d="M593.61,663.83c.1-.28-2.68-6-4.34-7.53a119.21,119.21,0,0,0-10.18,7.38"/><path class="cls-5" d="M595.09,660.58s-4.23-8.43-5.3-9.86c0,0-8.59,6.16-11.81,9.31"/><path class="cls-5" d="M596.72,657.17s-4.69-8.91-6.56-10.73c0,0-6.52,4.18-13.42,8.53"/><path class="cls-5" d="M598.57,651.12s-6.18-8.29-8.28-10.61c0,0-9.58,5.08-14.49,10"/><path class="cls-5" d="M599.39,645.86s-6.89-8-9.11-9.45c0,0-11.3,5.21-15.6,9.33"/><path class="cls-5" d="M600.4,642.44s-7.5-8.66-10.28-10.28c0,0-11.87,4.16-15.67,9.83"/><path class="cls-5" d="M600.22,637.65s-5.3-6.61-10.08-9.36c0,0-9.44,4.4-15.35,9.21"/><path class="cls-6" d="M564.62,657.77l-1.72-18.08c-8.67.76-7.4,10.28-7.4,10.28S557.58,658.78,564.62,657.77Z"/><path class="cls-6" d="M562.21,615.47c-.07-.4-.16-.79-.25-1.18,0,0-1-8-9.88-7.39-6.92.5-7.65,6.49-7.64,9.1Z"/><path class="cls-2" d="M504.05,669s-11.63,12.19-17.48,21.17l-2.44-2.49,13.35-17.93Z"/><path class="cls-2" d="M487.82,688.14s11,12-5.24,28.69-23.17,14.54-23.17,14.54S455.91,676.28,487.82,688.14Z"/><path class="cls-2" d="M519.22,654.7s-83.2,44.59-168.14,25l-3,5.84s99.09,23.12,172.06-25Z"/><path class="cls-2" d="M455.31,681.39s-24.08,9-37,22.6l-2.42-2.48S434.25,682.63,455.31,681.39Z"/><path class="cls-2" d="M418.88,700.57s5.64,20.61-19.46,33.55-31.83,2.09-50.54,11.67C348.88,745.79,362.27,686.24,418.88,700.57Z"/><path class="cls-2" d="M425.54,673.72S430.54,664,415,656s-31.14-17-32-23.85-6.65,25.86,5,36.76S418.07,684.9,425.54,673.72Z"/><path class="cls-3" d="M465.72,667s2.61-7.65-5.64-11-11.32,5.94-11.32,5.94-2.26,10,6.16,11.34S465,670.53,465.72,667Z"/><path class="cls-3" d="M461.23,701.26s2.62-7.66-5.63-11-11.33,5.94-11.33,5.94-2.25,10,6.16,11.34S460.46,704.8,461.23,701.26Z"/><path class="cls-4" d="M463.4,678.5s-7.63,8-9,14.39"/><path class="cls-4" d="M477.71,670.94s-3.8,1.18-13.61-3.45"/><path class="cls-5" d="M417.91,702.35s-48.3,20.92-68.32,41.83"/><path class="cls-5" d="M365.51,740.1s6.72-11.66,8.43-14.65c0,0-9.38-1-17.57,2.15"/><path class="cls-5" d="M360.35,741.84,367.07,730s-8.5,1-13.44,3"/><path class="cls-5" d="M369.75,741.05s10.15-18.11,10.83-19.22c0,0-14-1.61-21.14.77"/><path class="cls-5" d="M375.34,740.66s8.68-16.44,11.43-22.45c0,0-12.82-3.61-24.14-.72"/><path class="cls-5" d="M384.07,739.64s7.94-20.14,9-25.16c0,0-15.05-4.08-25.25-1.62"/><path class="cls-5" d="M390.69,737.14s8.7-18.68,8.11-25.62c0,0-12-4.82-24-4.62"/><path class="cls-5" d="M399.12,733.32s5.91-19.27,6.31-25.19c0,0-13.91-5-21.95-6.39"/><path class="cls-5" d="M405.42,729.82s5.75-15.14,6.75-24.52c0,0-10.56-4.7-20.84-5.26"/><path class="cls-2" d="M462.25,677.31s-27.56,3.69-40.67-1.62l2.23-3.2s11.18,5.16,42.74,1.89Z"/><path class="cls-5" d="M425.54,673.72s-39.78-5.6-43.2-40.29"/><path class="cls-5" d="M387.53,639.64s.89,10.63,2.09,13.21a28.23,28.23,0,0,1-8.75-7.36"/><path class="cls-5" d="M394.07,644.52s.31,12.52,2.5,16.34a51.5,51.5,0,0,1-15.22-8.77"/><path class="cls-5" d="M398.72,647.92s.64,13.31,3.06,16.92c0,0-11.16-1.92-19.49-6.59"/><path class="cls-5" d="M404.17,650.78s4.4,16.48,6.72,18.63c0,0-14.32,1.18-25.33-3.75"/><path class="cls-5" d="M410.72,654.76s4.42,14.92,7,16.85c0,0-12.46,4.89-25.16,1.17"/><path class="cls-5" d="M418,658.08s3.3,14.91,4.08,15.25a34.33,34.33,0,0,1-21.95,3.78"/><path class="cls-3" d="M498.6,664s-19.53,1.56-35.15,10.4-15.7,15.35-43.65,16.38c0,0,11.64,3.23,19.5,1.4s34.07-19,41.93-21.72S498.6,664,498.6,664Z"/><path class="cls-5" d="M485.85,688.64S476.3,716,459.41,731.37"/><path class="cls-5" d="M468,728.05s1.74-5.43,1.56-8.15a80.4,80.4,0,0,0-10.08,1.84"/><path class="cls-5" d="M472.45,725.38c.21-.21.22-6.57-.6-8.67a120.38,120.38,0,0,0-12.39,2.16"/><path class="cls-5" d="M475.2,723.1s-.1-9.43-.43-11.18c0,0-10.43,1.77-14.71,3.19"/><path class="cls-5" d="M478.16,720.76s-.3-10.06-1.19-12.52c0,0-7.69.89-15.8,1.78"/><path class="cls-5" d="M482.48,716.13S480.56,706,479.69,703c0,0-10.83.37-17.43,2.67"/><path class="cls-5" d="M485.53,711.76s-2.68-10.23-4-12.48c0,0-12.44-.28-18.12,1.55"/><path class="cls-5" d="M487.93,709.13s-2.95-11.07-4.74-13.74c0,0-12.48-1.47-18.39,2"/><path class="cls-5" d="M489.87,704.75s-1.87-8.26-5-12.84c0,0-10.41-.18-17.83,1.55"/><path class="cls-6" d="M449.05,707.23l6.38-17c-8.12-3.12-11.16,6-11.16,6S442.28,705,449.05,707.23Z"/><path class="cls-6" d="M465.43,668.15c.11-.39.21-.78.29-1.17,0,0,2.61-7.65-5.64-11-6.44-2.59-9.72,2.49-10.86,4.83Z"/><path class="cls-5" d="M575.33,599.25s-28-5.64-41.53-7.16"/><path class="cls-5" d="M539.41,589.13l10.49,5.39s-8.92,1.79-13,1"/><path class="cls-5" d="M543.44,587.67s9.93,5.82,11.43,8a81.73,81.73,0,0,1-13.13,2.57"/><path class="cls-5" d="M548.75,587.28s10.4,6.82,11.9,9c0,0-7,4.54-14.11,5.31"/><path class="cls-5" d="M555.55,586.81s8,7.2,9.82,10.75c0,0-7.55,4.34-13.14,6.08"/><path class="cls-5" d="M562.61,587.88s6.33,7.23,7.36,10.7a48.3,48.3,0,0,1-13.08,6.51"/><path class="cls-1" d="M381.91,686.16s-12.71-10.39-17.24-18l-3.29,2.11s8.85,11.88,17.5,17.59Z"/><path class="cls-1" d="M366.16,672s6.82-11.81-3.1-24.53-16.83-13.73-16.83-13.73-4.15,23.93,11.15,37.48C357.38,671.19,363.57,675.32,366.16,672Z"/><path class="cls-2" d="M377.79,690.1s-16,5.2-25.45,10.31l-1-3.36,20.27-9.42Z"/><path class="cls-2" d="M354.42,699.21S358.33,715,336.15,722s-27.29,1.77-27.29,1.77S332,673.6,354.42,699.21Z"/><path class="cls-2" d="M398,684.73s-94.4-.35-159.82-57.94l-5.42,3.7S308.88,698,396,690.34Z"/><path class="cls-2" d="M329,677.81s-25.47-3.51-43.25,2.29l-.95-3.32S309.91,668.88,329,677.81Z"/><path class="cls-2" d="M287.86,677.35S283,698.17,254.79,697.6s-29-13.3-50-13.76C204.78,683.84,244.88,637.81,287.86,677.35Z"/><path class="cls-2" d="M306.49,656.9s9-6.18-.87-20.63-19.3-29.75-16.83-36.21-18.15,19.59-13.11,34.7S294.61,663.18,306.49,656.9Z"/><path class="cls-3" d="M345,670.08s5.94-5.49.26-12.33-12.79-.17-12.79-.17-6.73,7.7,0,12.9S342.67,672.84,345,670.08Z"/><path class="cls-3" d="M324.79,698.1s5.94-5.49.26-12.33-12.79-.17-12.79-.17-6.72,7.7,0,12.9S322.42,700.85,324.79,698.1Z"/><path class="cls-4" d="M337.52,679.12s-10.54,3.45-14.79,8.36"/><path class="cls-4" d="M353.7,679.26s-3.9-.76-10.33-9.5"/><path class="cls-5" d="M286.16,678.45s-52.44-4.57-80,4.3"/><path class="cls-5" d="M222.11,686.74s11.46-7.06,14.39-8.89c0,0-7.78-5.33-16.48-6.46"/><path class="cls-5" d="M216.74,685.81l11.57-7.26s-8-3.14-13.24-3.77"/><path class="cls-5" d="M225.39,689.58s17.53-11.1,18.67-11.75c0,0-11.52-8.05-19-9.37"/><path class="cls-5" d="M230.49,691.9s15.46-10.33,20.73-14.31c0,0-9.56-9.27-20.89-12.11"/><path class="cls-5" d="M238.65,695.16s16.57-13.94,19.89-17.85c0,0-11.3-10.75-21.44-13.44"/><path class="cls-5" d="M245.67,696.11s16.54-12.29,19.32-18.68c0,0-8.28-10-18.9-15.47"/><path class="cls-5" d="M254.9,696.76s14.37-14.14,17.53-19.15c0,0-9.88-11-16.26-16.07"/><path class="cls-5" d="M262.1,696.67s12.27-10.58,17.61-18.35c0,0-7.06-9.16-15.83-14.54"/><path class="cls-2" d="M337.08,677.51s-26-9.85-35-20.76l3.49-1.76s7.38,9.86,36.69,22Z"/><path class="cls-5" d="M306.49,656.9s-32.33-23.85-18.84-56"/><path class="cls-5" d="M289.26,608.84s-4.27,9.77-4.45,12.62a28.46,28.46,0,0,1-4.19-10.64"/><path class="cls-5" d="M292.7,616.24s-5.69,11.16-5.58,15.57a51.46,51.46,0,0,1-9.21-15"/><path class="cls-5" d="M295.17,621.45s-5.77,12-5.35,16.33c0,0-8.91-7-14-15.06"/><path class="cls-5" d="M298.61,626.55s-4,16.59-2.95,19.59c0,0-13.16-5.77-20.5-15.35"/><path class="cls-5" d="M302.47,633.17s-3.21,15.22-1.88,18.14c0,0-13.29-1.63-22.7-10.94"/><path class="cls-5" d="M307.25,639.53s-4.19,14.68-3.66,15.36a34.37,34.37,0,0,1-21.11-7.12"/><path class="cls-3" d="M375.4,683.07s-17.92-7.92-35.87-7.57-21.11,6-46.19-6.36c0,0,8.71,8.38,16.49,10.5s39-.5,47.22.85S375.4,683.07,375.4,683.07Z"/><path class="cls-5" d="M352.45,698.71s-21.4,19.49-43.59,25"/><path class="cls-5" d="M318,724.9s4.11-3.95,5.25-6.44a81.25,81.25,0,0,0-9.74-3.17"/><path class="cls-5" d="M323.18,724.65c.29-.08,3.31-5.67,3.6-7.91a121.46,121.46,0,0,0-11.93-4"/><path class="cls-5" d="M326.69,724s4.39-8.35,4.93-10c0,0-10-3.41-14.45-4.19"/><path class="cls-5" d="M330.4,723.31s4.52-9,4.91-11.58c0,0-7.19-2.87-14.75-6"/><path class="cls-5" d="M336.4,721.28s3.15-9.84,3.81-12.9c0,0-9.7-4.83-16.6-5.94"/><path class="cls-5" d="M341.16,718.9s2.51-10.28,2.37-12.91c0,0-10.8-6.16-16.66-7.26"/><path class="cls-5" d="M344.53,717.73s2.67-11.14,2.37-14.35c0,0-10.29-7.23-17.12-7"/><path class="cls-5" d="M348.31,714.79s2.29-8.15,1.75-13.65c0,0-9.07-5.11-16.42-7.12"/><path class="cls-6" d="M311.23,697.55l13.7-11.92c-5.66-6.61-12.67,0-12.67,0S306.31,692.41,311.23,697.55Z"/><path class="cls-6" d="M344.23,671c.28-.29.55-.59.81-.89,0,0,5.94-5.49.26-12.33-4.43-5.34-9.73-2.45-11.85-.92Z"/><path class="cls-2" d="M266.84,654.85s-16.69-2.37-27.39-1.9l.61-3.43,22.34.41Z"/><path class="cls-2" d="M241.84,652.78s-3.41,15.92-26.39,12.44-25.3-10.38-25.3-10.38S232.91,619.93,241.84,652.78Z"/><path class="cls-2" d="M287.31,658.85s-84.68-41.7-118.24-122.14l-6.49,1s38.87,94,120.48,125.34Z"/><path class="cls-2" d="M228.4,622.41s-21.36-14.32-39.88-16.9l.6-3.4S215.14,606,228.4,622.41Z"/><path class="cls-2" d="M191.6,604s-13.47,16.59-38.6,3.71-20.23-24.67-38.91-34.3C114.09,573.36,170.31,549.58,191.6,604Z"/><path class="cls-2" d="M217.31,593.74s10.82-1.59,8.27-18.91-4.31-35.21.74-39.93-24.9,9.64-27,25.44S203.88,594.18,217.31,593.74Z"/><path class="cls-3" d="M246.18,622.49s7.74-2.33,5.64-11-11.42-5.75-11.42-5.75-9.42,4-5.63,11.6S242.84,623.93,246.18,622.49Z"/><path class="cls-3" d="M215.7,638.8s7.74-2.34,5.64-11-11.42-5.76-11.42-5.76-9.42,4-5.64,11.62S212.36,640.23,215.7,638.8Z"/><path class="cls-4" d="M235.46,627.31s-11-1.52-17,1"/><path class="cls-4" d="M249.94,634.54s-3.17-2.4-5.12-13.07"/><path class="cls-5" d="M189.59,604.19S144.46,577.1,115.81,573"/><path class="cls-5" d="M128.39,583.57s13.39-1.32,16.83-1.68c0,0-4.65-8.2-12-13"/><path class="cls-5" d="M124,580.38l13.58-1.45s-5.79-6.32-10.25-9.2"/><path class="cls-5" d="M130.09,587.56s20.63-2.28,21.93-2.38c0,0-6.82-12.28-12.93-16.73"/><path class="cls-5" d="M133.66,591.89s18.42-2.52,24.91-3.78c0,0-4.53-12.52-13.47-20"/><path class="cls-5" d="M139.57,598.39s21-5.27,25.7-7.33c0,0-5.44-14.61-13.38-21.47"/><path class="cls-5" d="M145.46,602.32s20.25-3.8,25.55-8.32c0,0-3.07-12.58-10.2-22.19"/><path class="cls-5" d="M153.46,607s19.12-6.41,24.16-9.53c0,0-4.06-14.2-7.57-21.56"/><path class="cls-5" d="M160,610s15.67-4.13,23.87-8.78c0,0-2.33-11.32-7.85-20"/><path class="cls-2" d="M235.76,625.68s-19-20.25-22.36-34l3.91,0s2.31,12.1,23.33,35.85Z"/><path class="cls-5" d="M217.31,593.74s-18.6-35.6,7.62-58.57"/><path class="cls-5" d="M222.9,543s-8.13,6.9-9.53,9.38a28.37,28.37,0,0,1,.9-11.4"/><path class="cls-5" d="M222.74,551.15s-10,7.54-11.84,11.55a51.48,51.48,0,0,1-1.72-17.48"/><path class="cls-5" d="M222.68,556.92s-10.45,8.27-12,12.33c0,0-4.94-10.19-6-19.68"/><path class="cls-5" d="M223.53,563s-10.84,13.17-11.24,16.31c0,0-9.29-11-11.69-22.78"/><path class="cls-5" d="M224.1,570.66s-9.55,12.27-9.64,15.47c0,0-11.23-7.29-15.6-19.78"/><path class="cls-5" d="M225.61,578.47s-10.2,11.36-10,12.19A34.34,34.34,0,0,1,199.73,575"/><path class="cls-3" d="M267.78,647.48s-12.64-15-28.93-22.54-21.62-3.83-38.72-26c0,0,4.15,11.35,10.22,16.67s35.27,16.65,42.06,21.46S267.78,647.48,267.78,647.48Z"/><path class="cls-5" d="M240.29,651.47s-27.78,8.13-50.14,3.37"/><path class="cls-5" d="M197.86,659.91s5.43-1.75,7.54-3.48a81.67,81.67,0,0,0-7.37-7.12"/><path class="cls-5" d="M202.61,662c.29,0,5.46-3.65,6.7-5.54a119.71,119.71,0,0,0-9-8.81"/><path class="cls-5" d="M206.06,662.87s7.61-5.57,8.84-6.86c0,0-7.5-7.45-11.15-10.1"/><path class="cls-5" d="M209.69,663.91s8-6.1,9.49-8.25c0,0-5.21-5.74-10.65-11.82"/><path class="cls-5" d="M216,664.72s7.14-7.46,9.08-9.92c0,0-6.6-8.6-12.31-12.62"/><path class="cls-5" d="M221.3,664.66s6.75-8.13,7.79-10.56c0,0-7-10.27-11.8-13.82"/><path class="cls-5" d="M224.83,665.09s7.29-8.84,8.42-11.85c0,0-6.08-11-12.3-13.82"/><path class="cls-5" d="M229.52,664.11s5.63-6.32,7.55-11.5c0,0-5.9-8.57-11.63-13.6"/><path class="cls-6" d="M203.75,632.36l17.54-4.71c-2.19-8.42-11.37-5.59-11.37-5.59S201.58,625.58,203.75,632.36Z"/><path class="cls-6" d="M245.06,622.94c.38-.14.76-.29,1.12-.45,0,0,7.74-2.33,5.64-11-1.64-6.74-7.68-6.47-10.25-6Z"/><path class="cls-5" d="M365.05,672.19s-11.71-26.05-18.35-37.93"/><path class="cls-5" d="M352.38,637.09l1.71,11.68s-6.64-6.21-8.33-10"/><path class="cls-5" d="M355.91,639.53s1,11.46.14,14a81.67,81.67,0,0,1-9.72-9.18"/><path class="cls-5" d="M359.31,643.62s.52,12.43-.39,14.92c0,0-7.77-3-12.54-8.38"/><path class="cls-5" d="M363.65,648.87s-1.2,10.69-3,14.25c0,0-7.93-3.62-12.59-7.15"/><path class="cls-5" d="M366.89,655.24s-2.19,9.35-4.41,12.21a48.4,48.4,0,0,1-12.91-6.85"/><path class="cls-1" d="M183,567.62s.7-16.4,4.12-24.62l-3.66-1.37s-4.21,14.2-3.6,24.55Z"/><path class="cls-1" d="M184.88,546.5s13.54-1.62,17.78-17.18.9-21.7.9-21.7-21.64,11-23.32,31.38C180.24,539,180.64,546.43,184.88,546.5Z"/><path class="cls-2" d="M177.33,566.68s-13.77-9.73-23.5-14.2l2.11-2.78,19.68,10.58Z"/><path class="cls-2" d="M156,553.42s-10.3,12.6-29.16-1-17.76-20.79-17.76-20.79S163.09,520.12,156,553.42Z"/><path class="cls-2" d="M193.71,579.59s-56.28-75.78-49.38-162.67l-6.21-2.11s-8.38,101.4,49.9,166.55Z"/><path class="cls-2" d="M158,520.27S145.49,497.77,130.2,487l2.09-2.75S153.65,499.62,158,520.27Z"/><path class="cls-2" d="M133.66,487s-19.57,8.6-36-14.34-6.73-31.18-18.94-48.29C78.68,424.4,139.55,428.93,133.66,487Z"/><path class="cls-2" d="M161.18,489.69s10.36,3.53,16-13,12.25-33.29,18.91-35.18-26.56-2.8-35.64,10.3S149,484,161.18,489.69Z"/><path class="cls-3" d="M173.73,528.46s8,1.46,10-7.18-7.53-10.34-7.53-10.34-10.19-.77-10.31,7.75S170.11,528.22,173.73,528.46Z"/><path class="cls-3" d="M139.17,529s8,1.47,10-7.18-7.53-10.33-7.53-10.33-10.2-.78-10.32,7.75S135.54,528.79,139.17,529Z"/><path class="cls-4" d="M162,527.85s-9.08-6.37-15.56-6.83"/><path class="cls-4" d="M171.57,540.9s-1.72-3.59,1.42-14"/><path class="cls-5" d="M131.75,486.33S104,441.61,80.38,424.87"/><path class="cls-5" d="M86.73,440l15.74,6.2s-.38-9.43-4.7-17.07"/><path class="cls-5" d="M84.27,435.17,97,440.08s-2.26-8.26-4.91-12.87"/><path class="cls-5" d="M86.42,444.35s19.4,7.39,20.6,7.9c0,0-.45-14-3.85-20.79"/><path class="cls-5" d="M87.62,449.82s17.54,6.18,23.89,8c0,0,1.69-13.2-2.83-24"/><path class="cls-5" d="M89.91,458.31s21.09,4.91,26.21,5.22c0,0,1.83-15.48-2.09-25.21"/><path class="cls-5" d="M93.35,464.5s19.75,5.87,26.53,4.27c0,0,3-12.59,1.07-24.4"/><path class="cls-5" d="M98.36,472.27s19.93,3,25.84,2.57c0,0,2.88-14.5,3.12-22.65"/><path class="cls-5" d="M102.75,478s15.81,3.48,25.24,3.1c0,0,3.1-11.14,2.16-21.39"/><path class="cls-2" d="M163,526.53s-7.69-26.71-4.36-40.47l3.5,1.74s-3.47,11.82,4.38,42.56Z"/><path class="cls-5" d="M161.18,489.69s-.28-40.16,33.54-48.62"/><path class="cls-5" d="M189.34,447.11s-10.38,2.43-12.76,4a28.29,28.29,0,0,1,6-9.74"/><path class="cls-5" d="M185.47,454.29s-12.34,2.14-15.8,4.87a51.61,51.61,0,0,1,6.45-16.34"/><path class="cls-5" d="M182.78,459.4s-13.07,2.57-16.28,5.49c0,0,.26-11.31,3.67-20.24"/><path class="cls-5" d="M180.76,465.2s-15.66,6.76-17.45,9.38c0,0-3.26-14,0-25.61"/><path class="cls-5" d="M177.78,472.27s-14.12,6.55-15.65,9.35c0,0-6.66-11.61-4.84-24.72"/><path class="cls-5" d="M175.55,479.9s-14.26,5.45-14.49,6.27A34.33,34.33,0,0,1,154.11,465"/><path class="cls-3" d="M181.52,560.55s-4.39-19.1-15.43-33.26S148.61,514,143.51,486.5c0,0-1.49,12,1.47,19.5s23.77,30.93,27.61,38.31S181.52,560.55,181.52,560.55Z"/><path class="cls-5" d="M155.25,551.54s-28.43-5.45-46.14-19.91"/><path class="cls-5" d="M113.65,539.67s5.63.92,8.3.34a81.74,81.74,0,0,0-3.3-9.7"/><path class="cls-5" d="M117,543.66c.23.18,6.52-.75,8.48-1.87a121.59,121.59,0,0,0-4-11.93"/><path class="cls-5" d="M119.6,546.05s9.31-1.49,11-2.07c0,0-3.28-10.06-5.31-14.08"/><path class="cls-5" d="M122.35,548.63s9.91-1.77,12.21-3c0,0-2-7.48-4.08-15.38"/><path class="cls-5" d="M127.56,552.22s9.76-3.38,12.62-4.68c0,0-2-10.66-5.19-16.85"/><path class="cls-5" d="M132.33,554.6s9.73-4.15,11.75-5.83c0,0-1.54-12.34-4.18-17.69"/><path class="cls-5" d="M135.28,556.6s10.52-4.54,12.9-6.7c0,0-.37-12.57-4.63-17.91"/><path class="cls-5" d="M139.89,557.87s7.91-3,12-6.78c0,0-1.34-10.32-4.14-17.42"/><path class="cls-6" d="M131.48,517.85l17.75,3.83c1.9-8.49-7.56-10.16-7.56-10.16S132.65,510.83,131.48,517.85Z"/><path class="cls-6" d="M172.53,528.34c.4.06.8.09,1.2.12,0,0,8,1.46,10-7.18,1.62-6.75-3.87-9.26-6.36-10Z"/><path class="cls-2" d="M139.07,456.72s-8.1-14.78-14.89-23.07l3.12-1.56,13,18.13Z"/><path class="cls-2" d="M125.75,435.47S111,442.28,100,421.79s-6.85-26.47-6.85-26.47S146.69,408.64,125.75,435.47Z"/><path class="cls-2" d="M148.13,475.51s-17.35-92.79,27-167.85L170.42,303s-52,87.47-28.17,171.57Z"/><path class="cls-2" d="M142,406.51s-1.33-25.68-10.37-42.06l3.09-1.55S147.19,386.07,142,406.51Z"/><path class="cls-2" d="M134.74,366s-21.36-.85-26.1-28.69,7.63-31,4.15-51.7C112.79,285.6,165.51,316.36,134.74,366Z"/><path class="cls-2" d="M158.32,380.46s7.76,7.71,20.1-4.72,25.6-24.54,32.41-23.33-22.64-14.15-36.54-6.37S149.92,370,158.32,380.46Z"/><path class="cls-3" d="M152.6,420.8s6.5,4.8,12.16-2.06-2.23-12.59-2.23-12.59-8.83-5.17-12.67,2.44S149.45,419,152.6,420.8Z"/><path class="cls-3" d="M121.28,406.16s6.51,4.8,12.17-2.06-2.24-12.59-2.24-12.59-8.82-5.16-12.67,2.45S118.13,404.35,121.28,406.16Z"/><path class="cls-4" d="M142.31,415.1s-5.36-9.7-11-13"/><path class="cls-4" d="M145.2,431s0-4,7.4-11.94"/><path class="cls-5" d="M133.34,364.52s-5.35-52.36-19.23-77.76"/><path class="cls-5" d="M113.18,303.17s9.09,9.93,11.43,12.47c0,0,3.79-8.64,3.26-17.4"/><path class="cls-5" d="M113.09,297.73l9.3,10s1.59-8.42,1.22-13.72"/><path class="cls-5" d="M111,306.92s14.2,15.15,15,16.14c0,0,5.75-12.82,5.65-20.38"/><path class="cls-5" d="M109.68,312.37s13.06,13.24,17.95,17.68c0,0,7.31-11.13,8-22.79"/><path class="cls-5" d="M108,321s16.8,13.66,21.26,16.18c0,0,8.44-13.11,9.18-23.57"/><path class="cls-5" d="M108.4,328.07s15.17,13.94,22,15.47c0,0,8.24-10,11.66-21.46"/><path class="cls-5" d="M109.49,337.26s16.58,11.46,22.1,13.63c0,0,8.94-11.77,12.73-19"/><path class="cls-5" d="M110.93,344.32s12.69,10.06,21.33,13.85c0,0,7.67-8.65,11.31-18.28"/><path class="cls-2" d="M143.8,414.37s4.81-27.39,13.84-38.28l2.38,3.09s-8.3,9.1-14.73,40.16Z"/><path class="cls-5" d="M158.32,380.46s17.36-36.23,51.46-29"/><path class="cls-5" d="M202.3,354.53s-10.41-2.37-13.23-2a28.22,28.22,0,0,1,9.66-6.11"/><path class="cls-5" d="M195.67,359.29s-12-3.5-16.34-2.56a51.32,51.32,0,0,1,13-11.85"/><path class="cls-5" d="M191,362.69s-12.88-3.41-17.05-2.2c0,0,5.2-10.06,12.17-16.58"/><path class="cls-5" d="M186.65,367s-17-.79-19.79.78c0,0,3.2-14,11.22-23"/><path class="cls-5" d="M180.87,372.06s-15.55-.3-18.16,1.55c0,0-.9-13.36,6.48-24.34"/><path class="cls-5" d="M175.52,378s-15.2-1.36-15.77-.72a34.38,34.38,0,0,1,3-22.07"/><path class="cls-3" d="M145.54,453.05s4.41-19.09.71-36.65-9.89-19.6-2.42-46.56c0,0-6.6,10.12-7.22,18.17s7.8,38.21,8,46.53S145.54,453.05,145.54,453.05Z"/><path class="cls-5" d="M125.87,433.44s-23.16-17.37-32.74-38.12"/><path class="cls-5" d="M93.69,404.53s4.65,3.29,7.3,4a80.55,80.55,0,0,0,1.29-10.17"/><path class="cls-5" d="M94.9,409.56c.13.27,6.19,2.19,8.44,2.05A120.47,120.47,0,0,0,105,399.14"/><path class="cls-5" d="M96.24,412.87s9,2.75,10.78,3c0,0,1.47-10.48,1.41-15"/><path class="cls-5" d="M97.57,416.4s9.69,2.75,12.29,2.65c0,0,1.48-7.6,3.09-15.6"/><path class="cls-5" d="M100.69,421.91s10.25,1.25,13.39,1.32c0,0,2.92-10.44,2.72-17.41"/><path class="cls-5" d="M103.93,426.14s10.56.54,13.12-.09c0,0,4-11.77,4-17.73"/><path class="cls-5" d="M105.7,429.23s11.45.53,14.54-.37c0,0,5.17-11.45,3.69-18.12"/><path class="cls-5" d="M109.29,432.4s8.45.72,13.74-.85c0,0,3.32-9.86,3.91-17.46"/><path class="cls-6" d="M119.27,392.74,133.55,404c5.44-6.8-2.34-12.45-2.34-12.45S123.4,386.94,119.27,392.74Z"/><path class="cls-6" d="M151.57,420.17c.34.22.69.43,1,.63,0,0,6.5,4.8,12.16-2.06,4.42-5.35.58-10-1.32-11.81Z"/><path class="cls-5" d="M184,545.75s13.84-25,19.37-37.43"/><path class="cls-5" d="M204.54,514.57l-8.32,8.37s1-9,3-12.66"/><path class="cls-5" d="M204.71,518.86s-8.55,7.7-11.09,8.47A82,82,0,0,1,195.14,514"/><path class="cls-5" d="M203.46,524s-9.63,7.86-12.17,8.62c0,0-2.21-8-.8-15"/><path class="cls-5" d="M201.86,530.65s-9.27,5.44-13.21,6.12c0,0-1.86-8.51-1.82-14.36"/><path class="cls-5" d="M198.7,537.06s-8.79,3.85-12.41,3.79A48.37,48.37,0,0,1,184,526.41"/><path class="cls-1" d="M159.64,335.11s13.75-9,22.43-11l-1-3.77S167,325.2,159,331.72Z"/><path class="cls-1" d="M177.94,324.39s9.2,10.07,24.31,4.46S220.43,317,220.43,317s-21.56-11.19-39.1-.7C181.33,316.25,175.53,320.9,177.94,324.39Z"/><path class="cls-2" d="M157.14,330S157,313.14,155,302.62l3.48.1,2.86,22.16Z"/><path class="cls-2" d="M155.52,305s-16.24-1-16.16-24.29,6.57-26.54,6.57-26.54S186.71,291.32,155.52,305Z"/><path class="cls-2" d="M156.17,350.83S185,261,259.71,216l-1.9-6.29s-87.34,52.21-106.39,137.52Z"/><path class="cls-2" d="M183.6,287.22s11-23.22,10.88-41.92l3.46.1S197.88,271.7,183.6,287.22Z"/><path class="cls-2" d="M196.48,248.12s-18.38-10.91-9.31-37.65,21.44-23.62,28.24-43.51C215.41,167,247.16,219.1,196.48,248.12Z"/><path class="cls-2" d="M210.34,272.06s3.16,10.47,19.92,5.41,34.19-9.41,39.61-5.1-13.18-23.22-29.11-23S207.94,258.84,210.34,272.06Z"/><path class="cls-3" d="M186.12,304.82s3.44,7.32,11.68,4,4-12.14,4-12.14-5.31-8.74-12.31-3.88S184.21,301.73,186.12,304.82Z"/><path class="cls-3" d="M165.53,277.05s3.44,7.32,11.68,4,4-12.14,4-12.14-5.31-8.74-12.31-3.88S163.63,274,165.53,277.05Z"/><path class="cls-4" d="M179.78,294.92s-.1-11.09-3.5-16.62"/><path class="cls-4" d="M174.75,310.3s1.91-3.48,12.18-7"/><path class="cls-5" d="M195.94,246.17s20.21-48.61,20.08-77.55"/><path class="cls-5" d="M207.4,182.61s3.27,13.06,4.12,16.4c0,0,7.44-5.79,11.15-13.76"/><path class="cls-5" d="M209.91,177.78,213.33,191s5.41-6.65,7.6-11.49"/><path class="cls-5" d="M203.7,184.87S209,205,209.26,206.22c0,0,11.15-8.54,14.66-15.24"/><path class="cls-5" d="M200,189s5.18,17.85,7.37,24.08c0,0,11.73-6.3,17.86-16.25"/><path class="cls-5" d="M194.37,195.83s8.29,20,11,24.35c0,0,13.66-7.51,19.29-16.37"/><path class="cls-5" d="M191.35,202.23s6.71,19.48,12,24.06c0,0,12-4.87,20.46-13.33"/><path class="cls-5" d="M187.94,210.83s9.13,18,12.95,22.51c0,0,13.46-6.1,20.23-10.65"/><path class="cls-5" d="M185.84,217.73s6.38,14.89,12.17,22.33c0,0,10.87-4,18.65-10.7"/><path class="cls-2" d="M181.44,295s17.25-21.8,30.38-27.09l.62,3.85s-11.63,4.06-32.06,28.33Z"/><path class="cls-5" d="M210.34,272.06s32.5-23.61,59.06-1"/><path class="cls-5" d="M261.36,270.17s-8-7-10.68-8.05a28.2,28.2,0,0,1,11.4-.79"/><path class="cls-5" d="M253.26,271.2s-8.92-8.79-13.15-10a51.31,51.31,0,0,1,17-4.25"/><path class="cls-5" d="M247.55,272s-9.7-9.13-14-10c0,0,9.36-6.38,18.6-8.81"/><path class="cls-5" d="M241.65,273.72S227,264.92,223.87,265c0,0,9.48-10.8,20.82-14.9"/><path class="cls-5" d="M234.17,275.4s-13.54-7.66-16.71-7.27c0,0,5.56-12.18,17.28-18.33"/><path class="cls-5" d="M226.66,278s-12.73-8.43-13.52-8.14a34.32,34.32,0,0,1,13.16-18"/><path class="cls-3" d="M164.56,329.84s13-14.69,18.06-31.91.63-21.94,20-42.1c0,0-10.62,5.76-15,12.54s-11.31,37.33-15.08,44.75S164.56,329.84,164.56,329.84Z"/><path class="cls-5" d="M156.59,303.23s-12.1-26.29-10.66-49.1"/><path class="cls-5" d="M142,262.49s2.52,5.11,4.54,6.95a82.56,82.56,0,0,0,6-8.33"/><path class="cls-5" d="M140.71,267.49c0,.3,4.41,4.87,6.45,5.82a120.57,120.57,0,0,0,7.41-10.17"/><path class="cls-5" d="M140.31,271s6.63,6.71,8.08,7.74c0,0,6.27-8.52,8.36-12.51"/><path class="cls-5" d="M139.81,274.78s7.21,7,9.55,8.18c0,0,4.91-6,10.13-12.26"/><path class="cls-5" d="M139.92,281.11s8.43,6,11.16,7.53c0,0,7.53-7.79,10.67-14"/><path class="cls-5" d="M140.76,286.37s9,5.5,11.59,6.16c0,0,9.13-8.43,12-13.69"/><path class="cls-5" d="M140.86,289.93s9.81,5.92,13,6.6c0,0,10-7.62,11.87-14.19"/><path class="cls-5" d="M142.51,294.43s7.08,4.65,12.49,5.79c0,0,7.61-7.1,11.75-13.5"/><path class="cls-6" d="M170.15,264.29,177.38,281c8-3.39,3.86-12.06,3.86-12.06S176.54,261.16,170.15,264.29Z"/><path class="cls-6" d="M185.51,303.78c.2.36.4.71.61,1,0,0,3.44,7.32,11.68,4,6.43-2.61,5.27-8.54,4.46-11Z"/><path class="cls-2" d="M224.28,234.89s7.3-15.2,10.09-25.54l3.09,1.62-7.15,21.17Z"/><path class="cls-2" d="M233.81,211.68s-14.14-8.06-3.88-28.91,17.54-21,17.54-21S267.82,213.09,233.81,211.68Z"/><path class="cls-2" d="M214.28,253.19s65.35-68.12,152.17-75.79l1.05-6.48s-101.39,8.63-155.91,77Z"/><path class="cls-2" d="M266.82,208.05s20.11-16,28.16-32.91l3.06,1.61S286.46,200.36,266.82,208.05Z"/><path class="cls-2" d="M295.53,178.56s-11.73-17.87,8.14-37.93,29.63-11.83,44.46-26.72C348.13,113.91,353.8,174.69,295.53,178.56Z"/><path class="cls-2" d="M297.5,206.14S295.75,217,313,219.74s34.86,6.54,37.84,12.78-1.67-26.65-16.1-33.42S301.14,193.21,297.5,206.14Z"/><path class="cls-3" d="M261.36,225s-.11,8.09,8.76,8.7,8.94-9.15,8.94-9.15-.94-10.18-9.37-8.88S261,221.36,261.36,225Z"/><path class="cls-3" d="M255,191s-.12,8.09,8.75,8.69,8.94-9.14,8.94-9.14-.94-10.18-9.36-8.88S254.68,187.38,255,191Z"/><path class="cls-4" d="M260,213.3s4.77-10,4.14-16.48"/><path class="cls-4" d="M248.74,224.91s3.25-2.29,14-.92"/><path class="cls-5" d="M295.91,176.56s39.47-34.83,52-60.89"/><path class="cls-5" d="M334.07,124.46s-2.79,13.16-3.49,16.55c0,0,9.23-1.95,16.05-7.48"/><path class="cls-5" d="M338.45,121.22l-2.73,13.38s7.78-3.6,11.87-7"/><path class="cls-5" d="M329.75,124.87s-4.05,20.36-4.36,21.63c0,0,13.77-2.79,19.86-7.27"/><path class="cls-5" d="M324.55,127s-3.17,18.32-3.92,24.88c0,0,13.3-.53,23.17-6.78"/><path class="cls-5" d="M316.57,130.63s-1.33,21.62-.78,26.72c0,0,15.56-.77,24.51-6.26"/><path class="cls-5" d="M311,135.06s-2.5,20.46.2,26.87c0,0,12.93.88,24.24-3"/><path class="cls-5" d="M304.2,141.29s.34,20.16,1.78,25.91c0,0,14.77.42,22.85-.7"/><path class="cls-5" d="M299.3,146.57s-.8,16.18,1.15,25.41c0,0,11.5,1.2,21.45-1.44"/><path class="cls-2" d="M261.47,214.08s25.07-12,39.19-11l-1.14,3.74s-12.23-1.45-41.23,11.41Z"/><path class="cls-5" d="M297.5,206.14s39.56-7,53.53,25"/><path class="cls-5" d="M344.18,226.81s-4.13-9.83-6.07-11.92a28.32,28.32,0,0,1,10.6,4.3"/><path class="cls-5" d="M336.45,224.19s-4.16-11.81-7.43-14.77a51.53,51.53,0,0,1,17.19,3.64"/><path class="cls-5" d="M331,222.39s-4.72-12.46-8.13-15.14c0,0,11.2-1.63,20.57.25"/><path class="cls-5" d="M324.91,221.36s-9.28-14.31-12.15-15.64c0,0,13.26-5.55,25.25-4.27"/><path class="cls-5" d="M317.45,219.6s-8.81-12.82-11.83-13.87c0,0,10.34-8.5,23.57-8.89"/><path class="cls-5" d="M309.55,218.67s-7.75-13.15-8.59-13.24a34.33,34.33,0,0,1,19.71-10.38"/><path class="cls-3" d="M231,238s18.1-7.52,30.23-20.76,10.18-19.45,36.45-29.06c0,0-12.07.52-19,4.69s-26.53,28.59-33.17,33.61S231,238,231,238Z"/><path class="cls-5" d="M235.53,210.6s.64-28.94,11.94-48.81"/><path class="cls-5" d="M240.3,167.6s0,5.7,1,8.24a80.22,80.22,0,0,0,9-4.87"/><path class="cls-5" d="M236.92,171.51c-.14.27,1.82,6.31,3.25,8.06a120.52,120.52,0,0,0,11.11-5.89"/><path class="cls-5" d="M235,174.53s3,8.94,3.86,10.5c0,0,9.38-4.91,13-7.58"/><path class="cls-5" d="M232.91,177.67s3.4,9.48,5,11.54c0,0,7-3.23,14.49-6.58"/><path class="cls-5" d="M230.24,183.41s5,9.06,6.72,11.66c0,0,10.19-3.7,15.75-7.93"/><path class="cls-5" d="M228.69,188.51s5.71,8.9,7.71,10.61c0,0,11.91-3.57,16.75-7.06"/><path class="cls-5" d="M227.22,191.75s6.22,9.61,8.75,11.61c0,0,12.33-2.47,16.89-7.55"/><path class="cls-5" d="M226.73,196.51s4.33,7.28,8.68,10.68c0,0,10-3,16.48-7"/><path class="cls-6" d="M264.78,181.55,264,199.69c8.69.46,8.76-9.15,8.76-9.15S271.9,181.53,264.78,181.55Z"/><path class="cls-6" d="M261.28,223.77c0,.41.05.81.08,1.2,0,0-.11,8.09,8.76,8.7,6.92.47,8.48-5.37,8.84-7.95Z"/><path class="cls-5" d="M178.06,323.26s28.37-3.29,41.7-6"/><path class="cls-5" d="M215.35,321.79,203.7,319.9s7.93-4.46,12-4.93"/><path class="cls-5" d="M212,324.42s-11.24-2.46-13.34-4.08a80.69,80.69,0,0,1,11.69-6.5"/><path class="cls-5" d="M207,326.43s-12-3.27-14.09-4.89c0,0,5.25-6.48,11.77-9.42"/><path class="cls-5" d="M200.71,329s-9.82-4.38-12.66-7.19c0,0,5.84-6.46,10.61-9.84"/><path class="cls-5" d="M193.66,330.14s-8.25-4.92-10.31-7.9A48.63,48.63,0,0,1,193.79,312"/><path class="cls-7" d="M415.82,133.39S493.07,128.56,518.35,85l8.15,2.63S489,131.31,424.18,141.41Z"/><path class="cls-8" d="M364.66,170.49S284.53,73.31,427.75,0c0,0,13.24,51.34,1.31,104.19S383.42,167.08,364.66,170.49Z"/><path class="cls-9" d="M284.48,70.16s82.84,58.37,109.72,135.16l3.48-1.22s-5.95-31.46-46.22-77.43-65.28-59.44-65.28-59.44Z"/><path class="cls-9" d="M326.3,102.72S322.68,79,314.76,63.07l1.91-.87s10.52,25.33,11.58,42.45Z"/><path class="cls-10" d="M308.09,56.47s-7.93-12-2-17.17c0,0,7.78-3.84,9.23-1s4.3,11,3.57,14-4.5,6.37-5,6.21S308.09,56.47,308.09,56.47Z"/><path class="cls-10" d="M313.84,38.72s2.87-2.9,5.75-2.79,6.48,13.8,3.55,17.84-4.87,1-4.87,1S314,38.23,313.84,38.72Z"/><path class="cls-10" d="M306.09,39.65a8.84,8.84,0,0,1,5.9-4.08c4.3-1,7.39-.24,7.31,1.24s-13.19,2.49-13.19,2.49"/><path class="cls-9" d="M305.34,50.33s4.67,7.79,9.41,5.08c0,0,3.63-1.57,2.8-9.5A13,13,0,0,1,320.84,54s2.91-5.35,2.34-10.38c0,0,5.51,16.16-5,22.83C318.17,66.47,305.77,70.36,305.34,50.33Z"/><path class="cls-10" d="M343.52,88.37s-8.82-14.16,2-20.38,17.68,15.72,13.21,20.33-5.6,6-6.16,5.61S343.52,88.37,343.52,88.37Z"/><path class="cls-10" d="M320.06,123.36s-12.25-8.9-16.32-2,1.94,20.63,12.32,13.75,4.25-11,4.25-11"/><path class="cls-10" d="M275.31,87.7s-13.08-4.35-16.46.49-1.28,15.46,2.14,17.71,10.51,2.21,15.17-2.47S281.75,93.36,275.31,87.7Z"/><path class="cls-10" d="M272.14,69.94s-9.27-.4-6.67-12.67,19-6.65,20.38,2S277.86,71.8,272.14,69.94Z"/><path class="cls-9" d="M287.23,70.74s-8.21,5.52-16.54-.9c0,0,13-2.74,13-11.46S292.73,65.57,287.23,70.74Z"/><path class="cls-9" d="M273.37,87.36A9.74,9.74,0,0,1,276,99c-3.16,7.19-3.89,7.45-3.89,7.45s10.74,1.11,13.25-5,1.49-9.65-1.94-12.51S276.62,86.23,273.37,87.36Z"/><path class="cls-9" d="M286.26,94.62s19.39-3.14,27.78-1.21l2.33,2s-27.14-.44-30.57.76Z"/><path class="cls-9" d="M349.9,130.36s-17.38-3.85-26.39-2.93l-.08,2.66s21.62.34,29.42,2.89Z"/><path class="cls-9" d="M346.24,124.54s3-16.27,3.39-28.57L351,95.1s.7,22.88-3.25,30.15Z"/><path class="cls-9" d="M342.36,88s6.6,11.88,7.42,14.23,7.86-.72,9.41-6.74.76-9.4.76-9.4-5,5.41-8,5S344.64,87,342.36,88Z"/><path class="cls-9" d="M316.82,121.65s4.86,4.59,2.85,8.13a21.34,21.34,0,0,1-4.88,5.77s10.55.58,11.9-6S321.91,121.7,316.82,121.65Z"/><path class="cls-11" d="M505,159.89s41.32-14.28,99.82-9.74l-.76,2S535.07,149,503,165.48Z"/><path class="cls-11" d="M603.16,150.76s24.61-35.89,59.71-9.88C662.87,140.88,640.82,170.06,603.16,150.76Z"/><path class="cls-11" d="M575,151.63a301.37,301.37,0,0,0,19.44,29.54l-1.62,1.16s-16.16-21.62-20.89-31.43Z"/><path class="cls-11" d="M542.62,151.81s-1.53,13,6,23.87l-2.46.91s-9.54-13.26-7.1-23.84Z"/><path class="cls-11" d="M571,149.54s12.53-15,27-22.41l-2-2.42s-19.55,11.66-29.08,25.23Z"/><path class="cls-11" d="M539.06,152.75s1.58-11.39,19-20.78l-.89-1.91S544,133.79,534.4,154.27Z"/><path class="cls-11" d="M594.42,181.17s9.41-8.86,33.46,17.5c0,0-4.55,14-19.63,8.9S587.73,188.3,594.42,181.17Z"/><path class="cls-11" d="M546.16,176.59s15.87-5.47,27,15.75c0,0,5,10.63,3.13,20.65,0,0-20.86,5.07-28.51-9.62S546.16,176.59,546.16,176.59Z"/><path class="cls-11" d="M595.49,126.38S611,136.68,625,123,637.67,95.2,637.67,95.2s-11.73-12.63-32.45,6S595.49,126.38,595.49,126.38Z"/><path class="cls-11" d="M558.05,132s17.6-3.32,22.18-16.18A42.73,42.73,0,0,0,581.7,92s-18.27-.54-26.28,17.69S558.05,132,558.05,132Z"/><path class="cls-8" d="M394,226.33s-53.29-50.57-115.27-14.75-58.69,82.76-58.69,82.76,50.67,33.5,108.78,8.35S391.28,241.8,394,226.33Z"/><path class="cls-12" d="M226.08,296s-.11.64-.29,1.65c14.81,7.76,56.54,25.21,103,5.07,58.1-25.15,62.44-60.89,65.18-76.36a81.5,81.5,0,0,0-6.53-5.34l-.2,4.36S356.24,311.41,226.08,296Z"/><path class="cls-13" d="M394,226.33s-111.68,10.5-174,68"/><path class="cls-13" d="M222.76,278.65s13.31-3.26,21-2.52a135.7,135.7,0,0,0-.92,28.61"/><path class="cls-13" d="M227.4,263.8a177.44,177.44,0,0,1,39-.9s-9,28.16-4.23,46.83"/><path class="cls-13" d="M225,270.53s17.32-1.29,29.81-1c0,0-2.35,25.49-1.76,38.61"/><path class="cls-13" d="M232.93,253.34s34.6-1.7,49.61,2c0,0-17.55,32.53-13.26,55.94"/><path class="cls-13" d="M240.8,243.87s32.73.31,54.49,6.06c0,0-16.09,32.9-19.79,61.89"/><path class="cls-13" d="M246.5,236.4s31.83.26,61.21,8.74c0,0-23.4,43.28-18.49,66.12"/><path class="cls-13" d="M258,226.21s44.41,5,64.19,15.13c0,0-20.71,42.8-25.23,70.27"/><path class="cls-13" d="M270,217.23s34.68,3.07,64.87,19.92c0,0-21.64,43.66-25,72.07"/><path class="cls-13" d="M282.19,210.94s28.16,2.48,68.31,22.46c0,0-21.34,37.42-24.92,70"/><path class="cls-13" d="M295.56,204.71s28.38,4.27,69.08,25.47c0,0-19,43.78-25,65.82"/><path class="cls-13" d="M317.21,200s35,9,63,28.47c0,0-11.3,32.52-23.5,58.45"/><path class="cls-14" d="M239.69,201.18s23.59,31.33,52.54,37.65,33.32,5.28,47.62-2c3.49-1.78-16.57-45.49-16.57-45.49Z"/><path class="cls-15" d="M336.61,238.49s-10.85-17.55-11.39-27.76-.59-16-.59-16,19.32-65.07,8.26-71.14,14.37-3.74,27.53,14.33S378.23,221.78,336.61,238.49Z"/><path class="cls-16" d="M329.69,185.17s28.12,4.73,30.92-24S335,121,322.81,118.59,329.69,185.17,329.69,185.17Z"/><path class="cls-17" d="M245.12,150.3s-20.83,11-18.8,30.9S253,216.93,274,205.46c0,0,12.21,10.9,26.39,6s22.32-8.95,27.21-18.79c0,0,10.5-16,7-31.12S245.12,150.3,245.12,150.3Z"/><path class="cls-18" d="M246.63,157.37s2,7.22,4.76,9.4c0,0-1.08,15.38,14.56,25.46,15.06,9.7,29.26,7.22,43-4.65,0,0,20.22,1.91,30.06-15.38,0,0,3.86-9.9-5.76-19,0,0,3.51-14.75-4-27.36S246.63,157.37,246.63,157.37Z"/><path class="cls-16" d="M257,166.4S233,156.31,246.48,132.23s30-25.07,38-20.22l8,4.86s9.06-12.26,24.64-8,15.57,22.25,10.24,34.34S257,166.4,257,166.4Z"/><path class="cls-18" d="M257,162.41s1.39-9.6,4.15-14.29,7.78-13.19,10.55-14.44,13.83-9.72,25.92-1l3.16,2.57s11.72-8,18.21-3.35,13.26,11.76,10.55,15.41S257,162.41,257,162.41Z"/><path class="cls-16" d="M267.47,146.38s-9.39,5.55-11.52,21,19.08,22,27.32,22.71,15.34-2.65,18.73-8.47l3.38-5.82s18.47,8.62,29.76-.57,2.46-22.48-8.76-28.07S267.47,146.38,267.47,146.38Z"/><path class="cls-18" d="M272.67,165.42c6.17,1.38,36.47,3.36,43.8-.72,6.88-3.81,15.83-5.36,14.36-14.8a30.07,30.07,0,0,0-4.45-2.74c-7.05-3.5-28.52-2.91-43.49-2-9.65,1.28-16.92,2.6-16.92,2.6S266.49,164,272.67,165.42Z"/><path class="cls-16" d="M275.51,163.93s-14.12-10.71-7.65-24.82,18.55-13,24.28-6.76a91.86,91.86,0,0,0,7.83,8s12.23-17.34,20.89-8.59,16.94,22.94-3.86,27.86C317,159.59,289.73,168.32,275.51,163.93Z"/><path class="cls-18" d="M286.56,165.34s9.36-13.59,20.47-12.8,9.5,7.69,9.5,7.69S301.34,166.9,286.56,165.34Z"/><path class="cls-19" d="M528.68,226.6s-114.5-1.25-123.13,6.32A134.18,134.18,0,0,1,385.8,246.7s49.09,26,87,16.17S529.38,226.49,528.68,226.6Z"/><path class="cls-20" d="M369.6,138.2s-37.85,59.27,18.62,110.29c0,0,15.33,5.92,32.08-16.6S369.6,138.2,369.6,138.2Z"/><path class="cls-21" d="M472.65,118.07S439.14,96.63,415.44,107s-35.52,20.54-35.52,20.54-40.87,25-3.4,71.55Z"/><path class="cls-21" d="M522.32,151s16.84,10.27,22,28.71-.82,44.24-25.6,53c0,0-40.88,25-73.4,4.46S522.32,151,522.32,151Z"/><path class="cls-22" d="M395.52,112.77s-27,1.1-26.65,24.4,12.33,42,12.33,42-16,19.68,6.2,39.34,67.05,31.28,88.29,5.24c0,0,12.36,14.95,24.57,14.16s26.1-4.69,30.78-15.69.24-38.43-20.79-55.82Z"/><path class="cls-23" d="M395,112.91s-29.47,14.94,3.23,53l4.42-16.39S394.8,112.56,395,112.91Z"/><path class="cls-23" d="M506.22,175s11.8,21.9-5.91,28.08-18.46.13-18.46.13S460.53,222,441.14,219.67s-42.45-36.46-42.45-36.46-19.8-21.73-4.11-31.91S506.22,175,506.22,175Z"/><path class="cls-22" d="M505.24,175.41s29-9.11,15.24-35.66-52.82-31.85-66.82-18.9c0,0-29.9-25.21-54.34-10.14s-11.74,38.38-2.58,48.67S505.24,175.41,505.24,175.41Z"/><path class="cls-23" d="M506,173.21s-5.78-29.34-25.09-32.54c0,0-17.52-25.11-38.65-11.55,0,0-17.12-10.3-30,15,0,0-19.53-.67-21.39,9.76S506,173.21,506,173.21Z"/><path class="cls-24" d="M423.12,154s-27.2-8.81-32.26-.12,3.49,23.78,11.89,27.85c0,0-.63,12.75,15.36,25.42s42.83,17,60.14-10.59c0,0,23.6,9.35,29.43-1.08s.27-21.24-5.78-25.35c0,0-.94-31.52-26.7-23.47A172.83,172.83,0,0,1,423.12,154Z"/><path class="cls-25" d="M479.09,147.13s27,16.5,13.66,38.92c0,0-16,19.14-33.47,2.7,0,0-18.65,2.3-26.78-5.93S410.62,161.15,418,152.41,479.09,147.13,479.09,147.13Z"/><path class="cls-24" d="M442.23,134.72s4.55-11.12,15.91-7.93S476,141,476.88,145.1c0,0,23.12,12.06,17.14,32.52,0,0-13.18,30.64-37.93,5.42S442.23,134.72,442.23,134.72Z"/><path class="cls-25" d="M446.56,133.15s10.67-2.38,22.39,18.58c0,0,7.55,6.87,7.67,15s-4.27,23.1-17.14,18.31S446.56,133.15,446.56,133.15Z"/><path class="cls-24" d="M468.11,157.57s-9-20.32-18.49-23.64-22.46-6.57-29.11,3.24-2.2,24.18,11.85,30.65S468.11,157.57,468.11,157.57Z"/><path class="cls-25" d="M469.84,158.35S462,147,457.69,143.4s-14.07-4.22-20.79,5.5a11.25,11.25,0,0,0-.24,8.38S430,161.7,431.5,167,469.84,158.35,469.84,158.35Z"/><path class="cls-24" d="M441.29,158.42s-10.89,2-11.62,10.09,9.55,16,14.92,13.42c0,0,14.88,7.09,23,1s5-15,1.1-16.65S441.29,158.42,441.29,158.42Z"/><path class="cls-26" d="M462.67,171.63s9.34-1.68,9.58-8.48S463,152.63,461,154c0,0,.19-10.23-10.94-11.32s-13.22,10.2-10,15S462.67,171.63,462.67,171.63Z"/><path class="cls-27" d="M439.73,157.1s8.14-3.93,14.71,1,11.33,10.71,10.57,12.63S444.41,178.4,439.73,157.1Z"/><path class="cls-28" d="M521.51,42.41s1.9-2.42,4.44-2,18.17,6.49,20.4,8.91-1.84,5.27-2,5.44a62.54,62.54,0,0,1-8.09.2C536.07,54.81,521.51,42.41,521.51,42.41Z"/><path class="cls-29" d="M524.79,43.12c.18-.16,6.8,5.48,7.21,8.23s-14.35-1.74-14.35-1.74L511.22,46l-2.49-4.63a46.83,46.83,0,0,1,4.76-1.15C513.72,40.38,524.79,43.12,524.79,43.12Z"/><path class="cls-30" d="M527.9,49.27s4.85-3.58,10.26-.63,6.23,4.94,6.23,4.94,3.27-5.42,8.6-2.18,10.38,9.43,9.58,12-19.94-.16-19.94-.16L532.56,57.6Z"/><path class="cls-31" d="M510.26,95.14a10.86,10.86,0,0,0,7,8c6.12,2.13,10.08-.31,10.08-.31Z"/><path class="cls-19" d="M505.9,36.28a51.56,51.56,0,0,1,23.29,2c12,4.08,20,8.54,24.14,11.94,0,0-3.57,3.63-9.71,0s-9.11-5.76-9.11-5.76-5.5,2.65-12.88-1.6A20.18,20.18,0,0,1,505.9,36.28Z"/><path class="cls-32" d="M499.82,35.68s8.47-.56,14.89,4.91,7.77,8,7.77,8,7.39-.6,11.91,3.18,11,12.67,11,12.67-25.18,4.91-25.7,4.35-19.9-19-19.9-19S500,35.86,499.82,35.68Z"/><path class="cls-33" d="M522,55.26s-5.67-6.51-12.69-6.26c0,0-2.25-11-9.52-13.32,0,0-7.45-2.46-10.3,5.69S480.83,82.9,515.61,98.5Z"/><path class="cls-19" d="M516.08,100.14s-9.81-6.15-5.8-34.39c2-13.88,11.61-15.88,18.88-13.61s9.24,7,9.24,7a25.49,25.49,0,0,1,18.82,1.3c10.24,4.73,11,8.18,11,8.18a9.41,9.41,0,0,1,6.54,2.6c2.94,2.81,3.4,9.3-1.31,14.68S543.74,114,516.08,100.14Z"/><path class="cls-19" d="M551.86,49.41S572.62,60.68,575.71,73c0,0-13.71-3.24-17.36-10.58S549.36,53.45,551.86,49.41Z"/><path class="cls-31" d="M513.78,99.14S504.89,94.56,500.63,89c0,0,10,6,13,8.07a21.21,21.21,0,0,1,4.57-4.22,55.61,55.61,0,0,0-.78,6.08s6.86,1.45,11.24-.35c0,0-4.44,3.23-7.26,3.93,0,0,11.25,1.89,15.21,1.69,0,0-8.12.93-14.17-.57S513.78,99.14,513.78,99.14Z"/><path class="cls-34" d="M467.51,705s-35.78,32.36-12.33,73.91,28.38,48,28.38,48,28.78-32.15,37.27-51.93,11.25-65.92-13.69-87.91-15.58-13.73-15.58-13.73Z"/><path class="cls-34" d="M463,729.93s10.19,10.68,17,3.46,8.19-17.49,8.19-17.49l-9.36-8.25Z"/><path class="cls-17" d="M506.32,557.63s15.86-29.06,41.36-31.7,38.07,1.6,45.76,18.53c0,0,16.73-12.82,33.74,8.25s32.15,48.77,16.47,64c0,0,13.81,11.79,10.47,37.75s-34.51,27.1-34.51,27.1Z"/><path class="cls-35" d="M520.68,557.08s3.21-.92,9.29-7.08,22.45-25.2,40.25-13.33c25.45,11.36,14.92,15.07,30.14,10.41C627.85,540.4,636.65,575,636.65,575s6.84,18.92-3.08,50.36c0,0,2.13.21,4.58,10.39s5.69,30.71-9.35,44.4S520.35,556.62,520.68,557.08Z"/><path class="cls-17" d="M516.06,558s-12.85-11.43-36,5.66-20.16,50.8-4.41,69.62c0,0-10.7,9.5-6.1,24.1s24.61,23.3,25.3,22.8S505,657.72,505,657.72Z"/><path class="cls-35" d="M517.94,557.66s-37.08-18.93-43.84,34.83c-4.47,9.84,8.95,16.88,7.61,28.76-2,18.13-11.82,33,10.53,60.11,9.41,11.4,28.91-12.5,28.64-13.36S517.94,557.66,517.94,557.66Z"/><path class="cls-26" d="M625.47,620.73s29.88-36.4,3.14-61.68-40.32-2.77-40.32-2.77-6.28-23.23-32-18-28.42,20.94-28.42,20.94-19.66-9.67-37.34,9.11S487,618.75,487,618.75a28.21,28.21,0,0,0-4.39,23.56c3.47,14,14.64,27,14.64,27Z"/><path class="cls-26" d="M627.37,632.24s18,33.6-5.32,54.47S586,702.54,586,702.54s-2.52,19.16-30.07,20.6-38-18.17-38-18.17-20.76-7-27.4-27.49S496,647.92,496,647.92s-11.5-36.9.8-45.8l15.83-11.47s2.84,50.2,19.53,62.25S573,670.7,573,670.7,627.15,645.53,627.37,632.24Z"/><path class="cls-25" d="M623,614.42s-.57-10.48-9.19-22.87-19.83-36.6-45-22.28a105.13,105.13,0,0,1-9.6,5.6c1.29-.93-9.63-3.09-16.11-4.21-17-2.94-52.44,20.76-35.78,38.92s70.16-24.45,70.16-24.45Z"/><path class="cls-25" d="M628.42,632.4s-4.24,25.61-25.84,35.37-28.32,12.67-38.46,13.89-24.63-8.64-28.55-16.08-17.74-.14-24.63-20.14-13-37.18-5.6-47.65S539.9,658,539.9,658l32.53,6.34S628.62,632,628.42,632.4Z"/><path class="cls-17" d="M515.88,627.45s-20.79-21.26-2.32-40.73,36.65-16.7,45.87-7.2c0,0,15.72-21,39-6s15,30.81,15,30.81,14,7.67,15,22-14,35.68-33.16,33.16c0,0-7.43-50.39-29.71-53S515.88,627.45,515.88,627.45Z"/><path class="cls-14" d="M592.76,610.67c-14.82-23.71-48.67-31.3-67.87-13.17-12.91,12.17-12.75,22.08-11.26,27.28a31.66,31.66,0,0,0,2.25,2.67s27.42-23.61,49.7-21c18.34,2.15,26.62,36.68,29,48.81l2.24.76C605,639.53,607.59,634.38,592.76,610.67Z"/><path class="cls-36" d="M525.81,603.63a40.56,40.56,0,0,1,28.1-10c17.3.6,23.85,13.19,24.18,13.66s6.55-1,14.78,8.75,10.61,16.91,7.38,19.25-30.62,7.88-44.93-1.2S531.23,619.85,525.81,603.63Z"/><path class="cls-37" d="M562.09,613c-12.39-7.37-26.57.28-30.28,2.56,5.65,7.69,13.46,12.12,23.51,18.51,7,4.45,17.18,5.38,26.09,4.91C580.76,632.8,574.67,620.44,562.09,613Z"/><path class="cls-36" d="M525.81,603.63a31.45,31.45,0,0,0-11,27.87c2,18.25,17.57,27.81,26.85,26.72,0,0,5.15,12,20,18.55s32-10.51,35.35-18.8,5.1-23.38,4.46-23.62-21.21,12.78-34.41,10.4S531.37,624.9,525.81,603.63Z"/><path class="cls-14" d="M525.42,604.38s-2,16.94,20,40.84,54,8,56.08-9.92c0,0-24.16,10-24.73,10.18s-19.11-1.16-19.6-1.51-20.57-18.37-20.57-18.37Z"/><path class="cls-36" d="M601.16,632.94s-23.46,9-43.92.18-31.43-29.49-31.43-29.49-1,10.57,9.79,22.9,5.18,5.86,5.18,5.86a28.1,28.1,0,0,0,12,16.6c9.88,6.2,25.47,6.39,32.77,1.57S604.11,635.72,601.16,632.94Z"/><path class="cls-8" d="M374.05,652.1s-20.52-8.3-27.61-15l2.78-1.57s24.13,13.54,28.49,14.75Z"/><path class="cls-38" d="M355,642.41s-49.72,15.06-58.37-49.29C296.66,593.12,365.4,587.76,355,642.41Z"/><path class="cls-39" d="M355,642.41c0-.19,0-.35.08-.54-11-1.21-50.4-8.37-58.09-48.77l-.36,0C305.31,657.47,355,642.41,355,642.41Z"/><path class="cls-13" d="M355.11,641.87s-27.73-12-58.45-48.75"/><path class="cls-13" d="M347.08,609.08s1.82,22.11.9,29.4a56.46,56.46,0,0,1-19.36,3.34"/><path class="cls-13" d="M342.13,604.15s1.29,25-.06,30.24c0,0-13.72,3.34-25.71.55"/><path class="cls-13" d="M337.45,601.08s2.19,25.6-.65,30.13c0,0-17.28,1.89-26.22-2.16"/><path class="cls-13" d="M332.23,598.72s1.39,23.4-1.27,28c0,0-14.65-1.46-23.79-3.32"/><path class="cls-13" d="M326.45,597.26s.36,21.24-2.64,23.31-21-4.42-21-4.42"/><path class="cls-13" d="M321.55,595.36s-1.15,18.54-3.27,20.17c0,0-12.31-1-17.42-4"/><path class="cls-13" d="M315.62,594.68s.64,16.46-2.75,16.24-13.56-5.29-13.56-5.29"/><path class="cls-13" d="M310.36,593.73S309,606.58,308.12,606s-10-5-10-5"/><path class="cls-8" d="M376.1,650s-7,19.93-14.9,29.29l3.55,1.06s12.62-16.82,14.79-31Z"/><path class="cls-8" d="M365.19,677.93S336,667.2,315.88,697.63s-3.06,60.14-3.06,60.14,44.38-4,61.32-35.39S372.91,678.92,365.19,677.93Z"/><path class="cls-12" d="M368.12,678.7a8.9,8.9,0,0,0-4.91.95s11.92,30.43-13.73,54.86c-18.14,17.29-29,21.75-33.73,22.89,10.15-1.52,44.07-8.47,58.39-35C389.18,694.48,376.55,681.87,368.12,678.7Z"/><path class="cls-13" d="M363.21,679.65s-33.44,37.55-49,77.13"/><path class="cls-13" d="M307.13,726.62s19-8.23,28.23-10c0,0,3.68,17.4-.44,35.6"/><path class="cls-13" d="M308.19,716.33a105.14,105.14,0,0,1,32.14-7.06s4.53,26-.56,41.84"/><path class="cls-13" d="M311.3,707s19.18-4.58,34.39-5c0,0,5.28,24.15,1.83,45.3"/><path class="cls-13" d="M315.88,697.63s14.21-4.13,35.51-3.68c0,0,8.22,23.47,4.55,47"/><path class="cls-13" d="M324.13,688.58A139.12,139.12,0,0,1,356.5,688s9.2,23.66,8.81,45.76"/><path class="cls-13" d="M334.59,681c.65-.28,13.69.07,25.6,2.24,0,0,11.38,13.94,13.95,39.13"/><path class="cls-19" d="M462.05,607.57s-7.13,97.25-1.15,105a113.58,113.58,0,0,1,10.67,17.52S496.3,689.73,489.92,657,462,607,462.05,607.57Z"/><path class="cls-20" d="M378.49,738.11s48.38,35.31,94.73-10c0,0,5.84-12.72-12.41-28.15S378.49,738.11,378.49,738.11Z"/><path class="cls-21" d="M366.83,649.45s-20,27.35-12.45,48S370,728.77,370,728.77s19.13,36.07,60.64,6.67Z"/><path class="cls-21" d="M397.48,609s9.63-13.77,25.58-17.16,37.55,3,43.72,24.56c0,0,19.13,36.07-.09,62.63S397.48,609,397.48,609Z"/><path class="cls-22" d="M358.25,714.73s-.49,23.06,19.32,23.94S414,730.42,414,730.42s15.88,14.66,33.77-3.19,30.13-55.33,9.12-74.77c0,0,13.36-9.72,13.33-20.13s-2.6-22.43-11.7-27-32.65-2.24-48.55,14.72Z"/><path class="cls-23" d="M358.34,715.15s11.14,25.84,45.22.06l-13.7-4.62S358,715.33,358.34,715.15Z"/><path class="cls-23" d="M417,623.93s19.25-8.87,23.56,6.51-.86,15.7-.86,15.7,14.8,19.11,11.81,35.47-33.24,34.15-33.24,34.15-19.52,15.69-27.35,1.81S417,623.93,417,623.93Z"/><path class="cls-22" d="M417.29,624.78s-6.21-25.12-29.5-14.83-29.87,43.21-19.6,55.79c0,0-23,24.08-11.49,45.65s32,12,41.23,4.77S417.29,624.78,417.29,624.78Z"/><path class="cls-23" d="M415.47,624s-25.24,3.35-29,19.6c0,0-22.27,13.57-11.86,32.24,0,0-9.66,14,11.16,26.33,0,0-1.6,16.57,7.17,18.7S415.47,624,415.47,624Z"/><path class="cls-24" d="M394.76,693.45s-8.93,22.66-1.81,27.42,20.4-1.71,24.3-8.63c0,0,10.81,1.21,22.42-11.72s16.7-35.51-5.81-51.67c0,0,9.19-19.57.63-25.08s-18-1.35-21.85,3.58c0,0-26.84-.87-21.37,21.45A147,147,0,0,1,394.76,693.45Z"/><path class="cls-25" d="M391.87,645.52s15.46-22.09,33.81-9.56c0,0,15.42,14.65.53,28.59,0,0,1,16-6.46,22.45s-19.59,17.45-26.62,10.7S391.87,645.52,391.87,645.52Z"/><path class="cls-24" d="M379.38,676.19s-9.22-4.46-5.9-14,13-14.4,16.55-15c0,0,11.48-19,28.55-12.85,0,0,25.35,12.82,2.6,32.52S379.38,676.19,379.38,676.19Z"/><path class="cls-25" d="M378.27,672.43s-1.46-9.2,17-18c0,0,6.23-6.06,13.15-5.72s19.41,4.84,14.66,15.53S378.27,672.43,378.27,672.43Z"/><path class="cls-24" d="M400.17,655.4S382.42,662,379.1,669.87s-6.78,18.74,1.21,24.91,20.43,3.15,26.68-8.45S400.17,655.4,400.17,655.4Z"/><path class="cls-25" d="M400.92,654s-10.08,6-13.35,9.54-4.33,11.74,3.58,18a9.58,9.58,0,0,0,7.11.65s3.4,5.94,8,4.9S400.92,654,400.92,654Z"/><path class="cls-24" d="M399.47,678.24s1.15,9.37,8,10.42,14.08-7.28,12.2-12c0,0,6.81-12.27,2.1-19.47s-12.5-5.05-14.09-1.81S399.47,678.24,399.47,678.24Z"/><path class="cls-26" d="M411.83,660.77s-.93-8-6.7-8.59-9.44,7.34-8.38,9.07c0,0-8.69-.7-10.2,8.7s8,11.77,12.22,9.29S411.83,660.77,411.83,660.77Z"/><path class="cls-27" d="M398.27,679.5s-2.91-7.13,1.59-12.45,9.7-9.07,11.3-8.32S416.62,676.64,398.27,679.5Z"/><path class="cls-40" d="M718.71,188.64s-69.86,57.24-77.93,98.7l2.35,2.31s-1-31.76,77-99.4Z"/><path class="cls-40" d="M731.61,179.17s-5.19-6.22-13-.21c0,0-6.41,5.5-.51,11.64s11.64,4.34,14,1.83A9.61,9.61,0,0,0,731.61,179.17Z"/><path class="cls-41" d="M732.15,192.43a9.59,9.59,0,0,0-.39-13.09c-3.35,2.37-12.16,8.76-13.64,11.26C724,196.74,729.76,194.94,732.15,192.43Z"/><path class="cls-40" d="M707.22,200.27s-5.79-5.66-12.94,1.1c0,0-5.81,6.12.67,11.63s12,3.15,14.15.41A9.61,9.61,0,0,0,707.22,200.27Z"/><path class="cls-41" d="M709.1,213.41a9.6,9.6,0,0,0-1.72-13c-3.09,2.7-11.21,9.94-12.43,12.58C701.44,218.52,707,216.15,709.1,213.41Z"/><path class="cls-40" d="M689.06,217.8s-5.79-5.67-12.93,1.1c0,0-5.82,6.11.67,11.63s12,3.14,14.14.4A9.6,9.6,0,0,0,689.06,217.8Z"/><path class="cls-41" d="M690.94,230.93a9.59,9.59,0,0,0-1.71-13c-3.09,2.7-11.22,9.95-12.43,12.59C683.29,236,688.81,233.67,690.94,230.93Z"/><path class="cls-41" d="M665.88,243.64s30.66-.61,69.72-21.06l.79,1.22s-30.49,19.48-72.67,21.83Z"/><path class="cls-40" d="M749.73,216S746,208.79,737.09,213c0,0-7.42,4-2.94,11.27S744.61,231,747.48,229A9.61,9.61,0,0,0,749.73,216Z"/><path class="cls-41" d="M747.48,229a9.58,9.58,0,0,0,2.36-12.88c-3.76,1.61-13.73,6-15.69,8.14C738.62,231.54,744.61,231,747.48,229Z"/><path class="cls-40" d="M723.09,228.1s-3.93-7.09-12.71-2.64c0,0-7.32,4.2-2.67,11.34s10.61,6.44,13.44,4.42A9.6,9.6,0,0,0,723.09,228.1Z"/><path class="cls-41" d="M721.15,241.22a9.59,9.59,0,0,0,2.05-12.94c-3.72,1.71-13.58,6.34-15.49,8.52C712.35,243.94,718.32,243.24,721.15,241.22Z"/><path class="cls-40" d="M701.48,237.87s-2.69-7.64-12.09-4.73c0,0-7.92,2.91-4.54,10.73s9.38,8.13,12.51,6.61A9.61,9.61,0,0,0,701.48,237.87Z"/><path class="cls-41" d="M697.36,250.48a9.57,9.57,0,0,0,4.2-12.4c-4,1-14.46,4-16.71,5.79C688.23,251.68,694.23,252,697.36,250.48Z"/><path class="cls-41" d="M661.94,248.21s-5.58-45,7-95.66l-1.73-.89s-15.46,63.5-6.33,98.41Z"/><path class="cls-40" d="M673.62,137.41s-7.66-2.63-11.2,6.56c0,0-2.62,8,5.61,10.21s12.2-2.33,12.94-5.72A9.59,9.59,0,0,0,673.62,137.41Z"/><path class="cls-41" d="M681,148.46a9.59,9.59,0,0,0-7.13-11c-1.63,3.77-5.85,13.8-5.81,16.71C676.27,156.36,680.23,151.85,681,148.46Z"/><path class="cls-40" d="M665.61,161s-8-1.27-9.91,8.38c0,0-1.2,8.36,7.28,9.1s11.61-4.39,11.76-7.86A9.59,9.59,0,0,0,665.61,161Z"/><path class="cls-41" d="M674.74,170.66a9.59,9.59,0,0,0-8.91-9.6c-1,4-3.39,14.6-2.85,17.46C671.46,179.26,674.59,174.13,674.74,170.66Z"/><path class="cls-40" d="M661.27,187.15s-8.08-.64-9.22,9.14c0,0-.55,8.42,8,8.49s11.23-5.28,11.11-8.75A9.6,9.6,0,0,0,661.27,187.15Z"/><path class="cls-41" d="M671.13,196a9.59,9.59,0,0,0-9.64-8.87c-.64,4.05-2.23,14.82-1.47,17.62C668.53,204.86,671.25,199.5,671.13,196Z"/><path class="cls-8" d="M635,304.34s-8.29-17.11-9.22-28.13l-2.93,1.59s2.7,18.75,10.36,29.13Z"/><path class="cls-8" d="M624.14,279.61s25.42-11.83,18.78-44-36.43-40.19-36.43-40.19-25.67,30.84-16.4,61.63S618.6,283.91,624.14,279.61Z"/><path class="cls-12" d="M621.78,281a8,8,0,0,0,2.52-3.73s-27-11.75-26.28-43.65c.51-22.57,4.54-32.3,6.85-36.07-5.49,7.44-22.62,33.5-14.78,59.52C598.32,284.4,614.4,284.35,621.78,281Z"/><path class="cls-13" d="M624.3,277.26S621.6,232,606.22,197"/><path class="cls-13" d="M630,211.61S623.13,229,618.41,236c0,0-13.45-8.72-22.44-22.93"/><path class="cls-13" d="M635.88,218.83a94.66,94.66,0,0,1-15.93,25s-19.5-13.66-26.34-27"/><path class="cls-13" d="M639.85,226.73s-9.29,15.15-18.66,25.14c0,0-18.77-12-30.07-27.63"/><path class="cls-13" d="M642.92,235.62s-6.4,11.7-20.22,25c0,0-20.21-9.68-32.89-27"/><path class="cls-13" d="M643.45,246.64a125.44,125.44,0,0,1-20.23,21s-20.94-9.17-34.79-23.48"/><path class="cls-13" d="M641.63,258.13c-.23.59-8.75,8.69-17.71,14.91,0,0-16.13-1.61-33.83-16"/><path class="cls-34" d="M675.13,425.32s-23.82,22.41-7.39,50.25,19.86,32.18,19.86,32.18,19.08-22.16,24.58-35.68,6.76-44.82-10.42-59.39L691,403.58Z"/><path class="cls-17" d="M645.59,375.35s7.58-14.55,20.19-16.11,18.88.43,22.85,8.75c0,0,8.17-6.51,16.8,3.76s16.39,23.86,8.77,31.56c0,0,6.95,5.7,5.55,18.6s-16.84,13.76-16.84,13.76Z"/><path class="cls-35" d="M652.7,374.93s1.58-.48,4.53-3.59,10.88-12.7,19.82-7c12.72,5.39,7.53,7.32,15,4.87,13.55-3.57,18.25,13.5,18.25,13.5s3.56,9.31-1.06,25c0,0,1.07.09,2.38,5.1s3.11,15.17-4.21,22.1S652.53,374.71,652.7,374.93Z"/><path class="cls-17" d="M650.42,375.42s-6.48-5.54-17.77,3.15-9.51,25.36-1.52,34.54a11.75,11.75,0,0,0-2.8,12c2.42,7.19,12.42,11.31,12.76,11.05S645.88,425,645.88,425Z"/><path class="cls-35" d="M651.35,375.25s-18.55-9-21.39,17.67c-2.12,4.92,4.59,8.28,4,14.18-.84,9-5.54,16.49,5.79,29.69,4.77,5.56,14.21-6.47,14.06-6.9S651.35,375.25,651.35,375.25Z"/><path class="cls-26" d="M705.23,405.47s14.46-18.32,1-30.59-20-1-20-1-3.33-11.45-16-8.59-13.89,10.64-13.89,10.64-9.82-4.6-18.41,4.87-1.29,25-1.29,25a14,14,0,0,0-1.94,11.72c1.85,6.91,7.51,13.24,7.51,13.24Z"/><path class="cls-26" d="M706.28,411.16s9.24,16.47-2.12,27-17.73,8.18-17.73,8.18-1.07,9.53-14.71,10.5-19-8.64-19-8.64-10.35-3.27-13.84-13.36,2.47-14.7,2.47-14.7-6.05-18.17,0-22.7l7.74-5.83s1.88,24.84,10.27,30.65,20.37,8.43,20.37,8.43S706.29,417.74,706.28,411.16Z"/><path class="cls-25" d="M704,402.37s-.38-5.19-4.77-11.24S689,373.18,676.7,380.52a52.32,52.32,0,0,1-4.71,2.86c.63-.47-4.8-1.44-8-1.93-8.48-1.29-25.79,10.79-17.36,19.63s34.54-12.79,34.54-12.79Z"/><path class="cls-25" d="M706.8,411.23S704.94,424,694.33,429s-13.91,6.55-18.92,7.25-12.28-4-14.3-7.7-8.79.11-12.4-9.74-6.77-18.3-3.22-23.56,17.7,29.52,17.7,29.52l16.17,2.83S706.9,411,706.8,411.23Z"/><path class="cls-17" d="M651,409.85s-10.5-10.34-1.54-20.16,18-8.62,22.66-4c0,0,7.59-10.55,19.27-3.34s7.76,15.13,7.76,15.13,7,3.66,7.62,10.74S700.16,426,690.64,425c0,0-4.16-24.9-15.22-26S651,409.85,651,409.85Z"/><path class="cls-14" d="M688.93,400.8c-7.58-11.61-24.42-15-33.76-5.88-6.28,6.16-6.11,11.06-5.32,13.63a15.43,15.43,0,0,0,1.14,1.3s13.36-12,24.43-10.88c9.11.89,13.54,17.93,14.82,23.92l1.12.35C695.27,415,696.5,412.41,688.93,400.8Z"/><path class="cls-36" d="M655.68,398a20.1,20.1,0,0,1,13.83-5.24,14.09,14.09,0,0,1,12.12,6.53c.16.22,3.23-.55,7.4,4.19s5.42,8.29,3.84,9.47-15.09,4.2-22.27-.16S658.52,405.94,655.68,398Z"/><path class="cls-37" d="M673.75,402.23c-6.21-3.53-13.16.4-15,1.56,2.87,3.76,6.78,5.88,11.83,8.95,3.52,2.14,8.56,2.5,13,2.18C683.19,411.88,680.06,405.82,673.75,402.23Z"/><path class="cls-36" d="M655.68,398a15.57,15.57,0,0,0-5.17,13.91c1.15,9,9,13.62,13.56,13a19.82,19.82,0,0,0,10.08,9c7.42,3.12,15.75-5.51,17.34-9.66s2.3-11.63,2-11.74-10.38,6.54-17,5.48S658.64,408.44,655.68,398Z"/><path class="cls-14" d="M655.49,398.33s-.84,8.41,10.29,20,26.85,3.43,27.69-5.45c0,0-11.87,5.19-12.15,5.28s-9.49-.39-9.73-.56-10.37-8.91-10.37-8.91Z"/><path class="cls-36" d="M693.3,411.76s-11.54,4.69-21.76.5S655.68,398,655.68,398s-.4,5.25,5.07,11.26,2.62,2.85,2.62,2.85a14,14,0,0,0,6.12,8.11c5,3,12.69,2.92,16.25.47S694.79,413.11,693.3,411.76Z"/><path class="cls-42" d="M582.06,290.57s-1.35-16.63,11.79-24.08a30.64,30.64,0,0,1,25.75-2.43c.59.31,7.41-14.14,31.55-10.65s34.51,26.27,35.46,29.62S582.44,289.56,582.06,290.57Z"/><path class="cls-43" d="M584.44,289a18.25,18.25,0,0,1,11.62-8.56A39.23,39.23,0,0,1,628,274s11.56-5.58,23.91-1.66c0,0,14.19-6,32.6,6.57S584.54,288.41,584.44,289Z"/><path class="cls-42" d="M649.89,274.3s4.82-4.75,16.83-2.59,29.53,9.69,33.35,20.32S698.41,318,698.41,318s11,16.47-.3,33.4-34.44,21.89-37,20.62S649.89,274.3,649.89,274.3Z"/><path class="cls-43" d="M651.76,274.61s15.78,2.56,21.39,13.91c0,0,19,10.32,15.63,31.08s-12.88,37.32-18.42,42.6S651.76,274.61,651.76,274.61Z"/><path class="cls-42" d="M598.61,285.3c-.41-.07-25.07.48-29.83,25.41,0,0-1.71,9.67,1.68,15.05,0,0-7.43,15.13-.71,28a25,25,0,0,0,20,13.32s14.33,19.37,31.54,21.88,54.17-15.22,51.53-39.22S598.61,285.3,598.61,285.3Z"/><path class="cls-43" d="M596.52,287.66s-4.95,4.31-5.83,8.85-12.43,13.71-10.5,22.83,10.62,17.19,10.62,17.19.3,16.89,9.64,23.23S618.58,372,618.58,372s17.66,8.28,32.81-1.9c0,0,7.34-4.88,9.43-7.24,0,0,17.35-4.13,19.84-26.46S596.52,287.66,596.52,287.66Z"/><path class="cls-44" d="M593.48,303.78s-.48-20.67,10.26-27.31,25.42.86,25.42.86,9.7-8.08,24.15-1.76,15.86,16.92,15.86,16.92,12.5,1.74,16.41,10.05,2.1,32.58-6.93,40.06S593.48,303.78,593.48,303.78Z"/><path class="cls-45" d="M597.5,300.89s9.16-5.62,14.42-8.32,7.79-6,15.42-4.88,17.1,7.1,20.06,9.85,21.12,8.62,27.94,19.1S597.5,300.89,597.5,300.89Z"/><path class="cls-46" d="M654.56,308.15s11.32-2.42,21.36,8.44,5.46,33.7-10,40c0,0-6.89,3.14-14,1.69,0,0-2.89,10.76-11.29,11.81s-20.34-2.45-22.07-5.85S654.56,308.15,654.56,308.15Z"/><path class="cls-45" d="M654.56,308.15s18.77,19.1-3.09,37.43c0,0-15.38,19.51-28.47,19.66s24.12-27.9,24.12-27.9Z"/><path class="cls-46" d="M610,296.8s-15.51,1.89-19.4,9.21-5.52,23.54,5.52,29c0,0-4.3,11.66.4,17.67s19.62,16.54,30.25,11.44,20.52-24.93,20.52-24.93Z"/><path class="cls-47" d="M609.29,297.4s-9.73,4.82-9.37,12.26,2.48,9.21,2.48,9.21-3.15,11.56,2.45,17.29,16.09,6.73,18.28,7.23,9.93,3.6,15.34,1.78a21.27,21.27,0,0,0,8.78-6Z"/><path class="cls-48" d="M606.24,317.93s-5.65-10.72,1-19.3,15.18-13,22.92-9.06a32.47,32.47,0,0,1,12,11.17s12.88,3.79,17.22,12,5.35,28.28-16.45,28.72S606.24,317.93,606.24,317.93Z"/><path class="cls-49" d="M612,313a49.8,49.8,0,0,1,12.26-5.54c6.08-1.57,8.08-.82,12.75,1.93s5,6.2,5,6.2,5.89,3.09,7.47,6.47,5.31,17.19-5.93,19.06S612,313,612,313Z"/><path class="cls-48" d="M620.48,311.57A21.33,21.33,0,0,0,609.43,314c-5.31,3-6,14.23-4.72,16.85s7.1,16.63,21,8.8a9.25,9.25,0,0,0,9.24,5.2c6.89-.45,19.67-10,12.2-20.89C647.16,324,621,311.23,620.48,311.57Z"/><path class="cls-50" d="M619.4,312.11s-3.88,2.92-3.66,6.79,1.66,9.93,7.82,12.2,21.32,5.17,21.89-3.55S619.4,312.11,619.4,312.11Z"/><path class="cls-51" d="M617.8,321.08a23.31,23.31,0,0,1,1.6-9c1.78-4,5.09-6,11.28-4.71s9,6.72,9.63,9.8c0,0,6.36,1.89,7.07,5.41s-4.44,12.49-17,9.32Z"/><path class="cls-52" d="M617.33,320.92s.27-3.56,5.61-5.79c5.54-2.3,30,12.61,10.88,17.28Z"/><path class="cls-51" d="M617.8,321.08s1.23-4.06,5.43-3.66,16.07,6,15.92,9.54-5,5.71-7.79,5.13S621.86,320.61,617.8,321.08Z"/><path class="cls-52" d="M617.8,321.08s5.69-1.78,9.18,1.21,4.9,6.61,4.38,9.8C631.36,332.09,619.46,331,617.8,321.08Z"/><path class="cls-53" d="M3.59,373.19a7.8,7.8,0,0,1,6-7.4c6-1.51-1.07,5.26-1.62,5.62S3.59,373.19,3.59,373.19Z"/><path class="cls-32" d="M2.91,378a3.33,3.33,0,0,1-.43-4.08c1.38-2.36,3.39-4.18,5-4.21,0,0-.43-4.07,2-5.81a36.32,36.32,0,0,1,5.71-3.1l3.84,11.38-5.42,8.67Z"/><path class="cls-19" d="M44.24,404.27S25,405.7,17.6,393.08s-10.38-21.74-7.5-27.93,5.44-11.32,16.13-9,31.61,19.21,24.83,38.77A11.26,11.26,0,0,1,44.24,404.27Z"/><path class="cls-33" d="M12,376.32a8.16,8.16,0,0,0-10.63,1.81c-4.82,5.57,4,21.57,16.12,27.27s22.19,5.36,29.1-2S12,376.32,12,376.32Z"/><path class="cls-31" d="M51.53,401.85s-8.26,9.7-20,8.61S15.4,408,13.18,409c0,0,7.46-5.75,22.81-5.7,0,0,6.7-.37,9.31-1.86s-6.61-13.55-12.77-17.55c0,0,14.25,5.36,17.08,10.25,0,0,.39-12.08-2.61-19.71S44.81,364,44.81,364s2.45,6.59,5.17,10.39S60.8,389.17,51.53,401.85Z"/><path class="cls-31" d="M49.9,402.13s2.45,1.18,3.08-.1,4.13-3.86,1.18-6.64Z"/><path class="cls-31" d="M53.12,400.14s55.09,40.05,87.78,49.55l1-2s-35.66-11.5-88-49.3Z"/><path class="cls-7" d="M148.13,439.85S96.5,448.71,76.22,385.7,75.29,302,75.29,302,168.41,334.5,148.13,439.85Z"/><path class="cls-19" d="M120.71,426.14s64.11,58.87,72.83,59a102.17,102.17,0,0,1,18.17,2.24s-14.53-39.65-41-53.35S120.26,425.84,120.71,426.14Z"/><path class="cls-20" d="M165.76,556.93s51.51-14.28,45.49-71.82c0,0-5.66-11.13-26.57-6.91S165.76,556.93,165.76,556.93Z"/><path class="cls-21" d="M97.26,516s8.06,29.14,26.71,35.33,30.52,6.43,30.52,6.43,35.84,6.6,38.27-38.73Z"/><path class="cls-21" d="M85.92,472.1s-4.3-14.37,2.16-27.41,22.94-24.6,41.42-17c0,0,35.83,6.6,43.77,34.76S85.92,472.1,85.92,472.1Z"/><path class="cls-22" d="M138.18,558.15s15.86,13.12,27.46-.26,14.38-30,14.38-30,19.06-3,16.48-25.39-22-51.74-47.27-47.82c0,0,.61-14.73-6.69-20.48s-17.14-10.61-25.38-6.77S97.5,449,100.56,469.53Z"/><path class="cls-23" d="M138.52,558.31s24.26,6.53,25.1-31.6l-10.83,7S138.48,558.63,138.52,558.31Z"/><path class="cls-23" d="M107.21,466.71s4.45-18.39,17.61-12.88,10.51,9.3,10.51,9.3,21.57.24,31.36,11.39,5.48,42.18,5.48,42.18.16,22.35-13.89,20.14S107.21,466.71,107.21,466.71Z"/><path class="cls-22" d="M108,467s-21-9.58-26.73,12.42,13.68,44.84,28.18,44.64c0,0,4.1,29.44,25.57,33.33s26.14-15.74,26.19-26.21S108,467,108,467Z"/><path class="cls-23" d="M106.39,467.83S94.76,487.35,104.05,499c0,0-2.84,23.1,16,26.16,0,0,4.45,14.52,24.61,6.78,0,0,10.7,10.3,17,5.34S106.39,467.83,106.39,467.83Z"/><path class="cls-24" d="M143.52,520.8s10.91,18.81,18.18,16.46,10.11-15.22,7.43-21.78c0,0,6.83-6.89,4.23-22.19s-15.6-31.35-39.39-24.56c0,0-8.59-17.27-17.19-14.34s-10.94,11.87-9.61,17.28c0,0-15.48,18.3,3.18,26.83A131.29,131.29,0,0,1,143.52,520.8Z"/><path class="cls-25" d="M108.38,496.27s-6.89-23,12.05-28.95c0,0,18.79-2.68,20.29,15.47,0,0,11.72,8.18,12.13,17s1.36,23.37-7.26,24.55S108.38,496.27,108.38,496.27Z"/><path class="cls-24" d="M122.92,522s-8.22,4-13-3.61-2.89-17.07-1.29-19.86c0,0-6.94-18.57,6.83-27.1,0,0,23-10.64,24.2,16.2S122.92,522,122.92,522Z"/><path class="cls-25" d="M119.67,520.69s-7.24-4.07-3.22-21.87c0,0-.78-7.73,3.28-12.38s14.15-10.9,19-1.65S119.67,520.69,119.67,520.69Z"/><path class="cls-24" d="M119.89,495.94s-5.22,16.07-1.55,22.76,9.36,15.12,18.11,12.95S150,519.1,145.31,508.3,119.89,495.94,119.89,495.94Z"/><path class="cls-25" d="M119.31,494.62s-1.37,10.39-.72,14.63,5.81,9.53,14.54,7.44a8.52,8.52,0,0,0,4.4-4.61s6,.91,7.83-2.86S119.31,494.62,119.31,494.62Z"/><path class="cls-24" d="M135.49,509.09s7.19,4.37,11.7.19,2.71-13.89-1.63-15.17c0,0-4.81-11.57-12.46-12.26s-10.46,5.95-9.07,8.86S135.49,509.09,135.49,509.09Z"/><path class="cls-26" d="M130.11,490.75s-6.13-3.8-9.72-.07-.1,10.67,1.7,10.89a8.61,8.61,0,0,0,.44,12c5.74,6.26,12.65,1,13.27-3.41S130.11,490.75,130.11,490.75Z"/><path class="cls-27" d="M135.7,510.62s-6.6-1.91-7.83-8-1-11.8.44-12.51S143.87,496.2,135.7,510.62Z"/></g></g></svg>