<svg xmlns="http://www.w3.org/2000/svg" xmlns:xlink="http://www.w3.org/1999/xlink" viewBox="0 0 110 110"><defs><style>.cls-1{mask:url(#mask);filter:url(#luminosity-noclip-2);}.cls-12,.cls-2{mix-blend-mode:multiply;}.cls-2{fill:url(#radial-gradient);}.cls-3{isolation:isolate;}.cls-4{fill:#e2bf6d;}.cls-5{fill:#e8914f;}.cls-6{fill:#cf5636;}.cls-7{fill:#d9a66a;}.cls-11,.cls-8{fill:#ef633f;}.cls-8{opacity:0.75;}.cls-9{fill:#ffdf9c;}.cls-10{fill:#beb988;}.cls-11{opacity:0.34;}.cls-12{fill:#cfa195;}.cls-13,.cls-16{fill:#fff;}.cls-13{opacity:0.15;}.cls-14{mask:url(#mask-2);}.cls-15{opacity:0.57;fill:url(#Áåçûìÿííûé_ãðàäèåíò_892);}.cls-16{opacity:0.24;mix-blend-mode:screen;}.cls-17{filter:url(#luminosity-noclip);}</style><filter id="luminosity-noclip" x="4.61" y="-8413.34" width="65.43" height="32766" filterUnits="userSpaceOnUse" color-interpolation-filters="sRGB"><feFlood flood-color="#fff" result="bg"/><feBlend in="SourceGraphic" in2="bg"/></filter><mask id="mask" x="4.61" y="-8413.34" width="65.43" height="32766" maskUnits="userSpaceOnUse"><g class="cls-17"/></mask><radialGradient id="radial-gradient" cx="786.22" cy="-657.13" r="60.73" gradientTransform="matrix(0.03, -0.87, 0.9, -0.16, 589.7, 604.14)" gradientUnits="userSpaceOnUse"><stop offset="0.23" stop-color="#f4f4f4"/><stop offset="0.67" stop-color="#515151"/><stop offset="1"/></radialGradient><filter id="luminosity-noclip-2" x="4.61" y="6.47" width="65.43" height="64.78" filterUnits="userSpaceOnUse" color-interpolation-filters="sRGB"><feFlood flood-color="#fff" result="bg"/><feBlend in="SourceGraphic" in2="bg"/></filter><mask id="mask-2" x="4.61" y="6.47" width="65.43" height="64.78" maskUnits="userSpaceOnUse"><g class="cls-1"><path class="cls-2" d="M17.38,18.09c13.87-13.33,36-15.92,47.66-4S66.1,36.82,52.83,53.29C41.94,66.83,23.21,78.15,11.59,66.22S3.51,31.42,17.38,18.09Z"/></g></mask><radialGradient id="Áåçûìÿííûé_ãðàäèåíò_892" cx="786.22" cy="-657.13" r="60.73" gradientTransform="matrix(0.03, -0.87, 0.9, -0.16, 589.7, 604.14)" gradientUnits="userSpaceOnUse"><stop offset="0.23" stop-color="#fff"/><stop offset="0.67" stop-color="#f7ebc2"/><stop offset="1" stop-color="#f3f9f7"/></radialGradient></defs><title>star02</title><g class="cls-3"><g id="Layer_2" data-name="Layer 2"><g id="Layer_1-2" data-name="Layer 1"><circle class="cls-4" cx="55" cy="55" r="55" transform="translate(-17.28 26.26) rotate(-23.32)"/><path class="cls-5" d="M55,110a55,55,0,0,0,51.26-35.06C90.77,81.55,71.51,89.06,54.74,89.55c-7,.21-14.07-.68-21,.19-5.51.69-11.15,2.73-15,6.53A54.8,54.8,0,0,0,55,110Z"/><path class="cls-6" d="M43.69,78a34.17,34.17,0,0,0-18.81-.13c-3.83,1.07-6.52,3.9-10.06,2.1a23.83,23.83,0,0,0-10-2.54,55.09,55.09,0,0,0,9,13.9q1.37-.4,2.67-.93c5.48-2.15,10.48-5.39,16-7.4,7-2.54,14.53-3,22-3.49C52.22,76.39,46.81,75.84,43.69,78Z"/><path class="cls-5" d="M109.84,51c-4,6.55-11.15,10.86-18.51,13.31C83.18,67.06,74.54,67.92,66.21,70c-3.56.89-7.33,2.16-9,5.69a4.77,4.77,0,0,0,6.46,6.6,2,2,0,0,0-.37-3.9h0c-.69-2.42,1.31-5,3.73-5.72s5-.06,7.37.86,4.63,2.14,7.12,2.54c3.41.56,6.86-.43,10.18-1.42,6.17-1.82,12.61-3.81,17.16-8.35a.52.52,0,0,0,.1-.11A54.82,54.82,0,0,0,110,55C110,53.67,109.94,52.35,109.84,51Z"/><path class="cls-6" d="M108.61,42.75a54.71,54.71,0,0,0-5-13.57A72.44,72.44,0,0,1,48.69,53.07c-8.66-.21-17.38-2-25.93-.55-6.94,1.17-13.36,4.42-19.42,8A25.8,25.8,0,0,0,.51,62.42a54.34,54.34,0,0,0,2,9.06c19.42.1,39,0,58-4.16C78.32,63.42,95.79,55.59,108.61,42.75Z"/><path class="cls-5" d="M102.52,33.62c.77-.65,1.52-1.34,2.23-2.07a55.36,55.36,0,0,0-4.94-8.43C97.09,29.24,94,34.85,87.94,37.87c-14.06,7-30.41,6.9-46.1,6.9C28.06,44.77,10.41,42,.23,50,.09,51.67,0,53.33,0,55A55.4,55.4,0,0,0,1,65.21a7.93,7.93,0,0,1,1.3-.38,37.19,37.19,0,0,1,7.61-.28,15.09,15.09,0,0,0,7.41-1.43c2.23-1.22,3.95-3.69,3.59-6.2,4.26-2.74,7.82-2.28,12.83-1.54s9.84,2.44,14.79,3.49a57.62,57.62,0,0,0,26.28-.6,5.45,5.45,0,0,0,3.16-1.67c.74-1,.56-2.69-.59-3.08,0-1.92,3.07-3.9,5-4.23s3.92-.12,5.71-.83c3.12-1.24,4.51-4.76,6.51-7.46C96.68,38.07,99.74,36,102.52,33.62Z"/><path class="cls-7" d="M86.42,9.87c-10,7.39-23.53,8.6-36.07,7.94C38.75,17.2,27,15.35,15.54,16.7a55,55,0,0,0-13,21.74,55.38,55.38,0,0,1,37-8.67c7.74,1,15.26,3.61,23,3.86A39,39,0,0,0,87.2,25.72c3-2.28,5.78-5.21,6.51-8.9a6.66,6.66,0,0,0,.11-.78A55.28,55.28,0,0,0,86.42,9.87Z"/><path class="cls-5" d="M84,8.24A48.63,48.63,0,0,1,64.84,14.3c-10.63,1.21-21.36-.11-32.05-.55A104.18,104.18,0,0,0,18.33,14a53.65,53.65,0,0,0-3.87,3.82C21.07,16.65,28.25,17,35,17.59c11.53,1,23.29,3.21,34.55.54a61.05,61.05,0,0,0,17.9-7.57C86.28,9.75,85.13,9,84,8.24Z"/><path class="cls-8" d="M76,25c.24,1.27-2.33,2.82-5.74,3.46s-6.37.15-6.61-1.11S66,24.5,69.39,23.85,75.76,23.7,76,25Z"/><path class="cls-9" d="M102.12,39c.51.47.2,1.62-.69,2.55s-2,1.31-2.51.84-.2-1.62.69-2.56S101.62,38.51,102.12,39Z"/><ellipse class="cls-9" cx="26.75" cy="65.45" rx="3.77" ry="1.79"/><path class="cls-9" d="M67.61,27.21l2.47-.16a5.86,5.86,0,0,0,2.56-.55c.39-.22.77-.65.6-1.07s-.67-.48-1.1-.47a11.26,11.26,0,0,0-5,1.2c-.24.11-.49.28-.5.54C66.63,27.12,67.2,27.23,67.61,27.21Z"/><path class="cls-10" d="M27.08,64.83a3.51,3.51,0,0,0-2.56,1.11,3.4,3.4,0,0,0,2.87.45c.4-.12.82-.39.82-.8S27.59,64.83,27.08,64.83Z"/><path class="cls-6" d="M84.23,77.15c.06-4.25,3.55-7.56,6.78-10.32q3.4-2.93,6.82-5.84c3.34-2.87,9.9-6.61,9.68-11A62.05,62.05,0,0,1,104,73.42c-2.54,7.74-9.19,15.89-15.61,20.91-7.61,6-17.27,8.48-26.67,10.68-5,1.16-10,2.27-15.16,2s-10.35-2-13.84-5.69c-1.68-1.82-2.79-5-.91-6.57a4,4,0,0,1,3.88-.43,31.91,31.91,0,0,1,3.64,1.85,12.34,12.34,0,0,0,9.68.47,6,6,0,0,0,11.15-4.17c-.24-1.14-.81-2.19-1-3.33A3.14,3.14,0,0,1,60,86c1.56-1.18,3.65.26,5.37,1.17,3.44,1.81,7.57,1.39,11.42.92,3-.36,6.51-1.11,7.63-3.9C85.28,82,84.21,79.52,84.23,77.15Z"/><path class="cls-5" d="M82.21,62.87a1.16,1.16,0,0,0,.86,1.39,3.39,3.39,0,0,0,1.81-.12l8.2-2.07A6.59,6.59,0,0,0,96.4,60.5c1.49-1.62,1-4.16,1.42-6.31a1.71,1.71,0,0,0-1.95.52,14.84,14.84,0,0,0-1.22,1.79c-1.16,1.64-3.15,2.44-5,3.15L83.33,62A1.69,1.69,0,0,0,82.21,62.87Z"/><path class="cls-5" d="M26.12,75.47a2.07,2.07,0,0,0,1.26.13l8-.82-.26-1.3a11.71,11.71,0,0,0-7.11-1,3.31,3.31,0,0,0-2.09,1A1.41,1.41,0,0,0,26.12,75.47Z"/><path class="cls-5" d="M53.23,82.42a3,3,0,0,0-1.37-.15q-6.3.35-12.55,1.25a3.2,3.2,0,0,0-1.43.44,1.15,1.15,0,0,0-.48,1.31,1.66,1.66,0,0,0,.94.73,26.24,26.24,0,0,0,7.42,2.42A8.92,8.92,0,0,0,53,86.36a3.53,3.53,0,0,0,1.13-2A1.86,1.86,0,0,0,53.23,82.42Z"/><path class="cls-5" d="M75.6,36.93a1.77,1.77,0,0,0,1.13.51c3.55.58,7.12-.67,10.48-1.95a15.89,15.89,0,0,0,5.06-2.69,5.55,5.55,0,0,0,2-5.13A2.45,2.45,0,0,0,92,25.58,3.85,3.85,0,0,0,89.83,27c-3.53,3.52-8.54,5-12.91,7.43a3.5,3.5,0,0,0-1.28,1A1.29,1.29,0,0,0,75.6,36.93Z"/><path class="cls-11" d="M13.53,19a45.4,45.4,0,1,1-2.92,3.66A55.1,55.1,0,1,0,13.53,19Z"/><path class="cls-12" d="M95.07,92.61a55,55,0,0,0-2.63-77.85c-.25-.22-.34,0-.59-.22A57,57,0,0,1,18.19,95.86a54.77,54.77,0,0,0,31.14,13.85c.27,0,.54,0,.81.06.59.06,1.18.11,1.78.14s1.4,0,2.1.07h.47A55.1,55.1,0,0,0,95.07,92.61Z"/><path class="cls-13" d="M0,55A54.67,54.67,0,0,0,5,77.88c19.55,5,39.56-1.44,54.39-17.17C74.74,44.41,80.27,22.53,72.89,3A55,55,0,0,0,0,55Z"/><g class="cls-14"><path class="cls-15" d="M17.38,18.09c13.87-13.33,36-15.92,47.66-4S66.1,36.82,52.83,53.29C41.94,66.83,23.21,78.15,11.59,66.22S3.51,31.42,17.38,18.09Z"/></g><path class="cls-16" d="M30.56,104.27A55,55,0,1,0,32.32,4.9,54.14,54.14,0,0,1,101,80.32,54.66,54.66,0,0,1,30.56,104.27Z"/></g></g></g></svg>