<svg xmlns="http://www.w3.org/2000/svg" xmlns:xlink="http://www.w3.org/1999/xlink" viewBox="0 0 110 110"><defs><style>.cls-1{mask:url(#mask);filter:url(#luminosity-noclip-2);}.cls-2{mix-blend-mode:multiply;fill:url(#radial-gradient);}.cls-3{isolation:isolate;}.cls-4{fill:#f6d57c;}.cls-5{fill:#bd6420;opacity:0.47;}.cls-6{fill:#a68a53;}.cls-7{fill:#cbc385;}.cls-8{fill:#cbaa75;}.cls-9{fill:#db7227;}.cls-10{fill:#a3eaf0;}.cls-11{fill:#d27d28;}.cls-12{fill:#a57045;}.cls-13{fill:#a3d7f0;}.cls-14{fill:#ecb24f;}.cls-15{fill:#de5f2a;}.cls-16{fill:#c0641f;}.cls-17{fill:#fffae6;}.cls-18,.cls-19{fill:#fff;}.cls-18{opacity:0.24;mix-blend-mode:screen;}.cls-19{opacity:0.15;}.cls-20{mask:url(#mask-2);}.cls-21{opacity:0.49;fill:url(#Áåçûìÿííûé_ãðàäèåíò_883);}.cls-22{filter:url(#luminosity-noclip);}</style><filter id="luminosity-noclip" x="4.61" y="-8270.68" width="65.43" height="32766" filterUnits="userSpaceOnUse" color-interpolation-filters="sRGB"><feFlood flood-color="#fff" result="bg"/><feBlend in="SourceGraphic" in2="bg"/></filter><mask id="mask" x="4.61" y="-8270.68" width="65.43" height="32766" maskUnits="userSpaceOnUse"><g class="cls-22"/></mask><radialGradient id="radial-gradient" cx="796.5" cy="-941.76" r="59.65" gradientTransform="matrix(0.03, -0.89, 0.91, -0.16, 859.14, 577.61)" gradientUnits="userSpaceOnUse"><stop offset="0" stop-color="#fff"/><stop offset="0.77"/></radialGradient><filter id="luminosity-noclip-2" x="4.61" y="6.47" width="65.43" height="64.78" filterUnits="userSpaceOnUse" color-interpolation-filters="sRGB"><feFlood flood-color="#fff" result="bg"/><feBlend in="SourceGraphic" in2="bg"/></filter><mask id="mask-2" x="4.61" y="6.47" width="65.43" height="64.78" maskUnits="userSpaceOnUse"><g class="cls-1"><path class="cls-2" d="M17.38,18.09c13.87-13.33,36-15.92,47.66-4S66.1,36.82,52.83,53.29C41.94,66.83,23.21,78.15,11.59,66.22S3.51,31.42,17.38,18.09Z"/></g></mask><radialGradient id="Áåçûìÿííûé_ãðàäèåíò_883" cx="796.5" cy="-941.76" r="59.65" gradientTransform="matrix(0.03, -0.89, 0.91, -0.16, 859.14, 577.61)" gradientUnits="userSpaceOnUse"><stop offset="0" stop-color="#fff"/><stop offset="0.77" stop-color="#f3f9f7"/></radialGradient></defs><title>star05</title><g class="cls-3"><g id="Layer_2" data-name="Layer 2"><g id="Layer_1-2" data-name="Layer 1"><circle class="cls-4" cx="55" cy="55" r="54.95"/><path class="cls-5" d="M13.53,19a45.4,45.4,0,1,1-2.92,3.66A55.1,55.1,0,1,0,13.53,19Z"/><path class="cls-6" d="M85.12,83.69a56.79,56.79,0,0,1-67,12A55,55,0,0,0,92.44,14.76c-.25-.22-.34,0-.59-.22A57.29,57.29,0,0,1,85.12,83.69Z"/><path class="cls-7" d="M86.09,9.69A54.94,54.94,0,0,0,18,14.37a45,45,0,0,0,8.36,1.27c18,1.35,36-1.16,53.71-4A16.36,16.36,0,0,0,86.09,9.69Z"/><path class="cls-7" d="M109.8,51.13c-8.61,5.6-18.71,8.76-28.89,10.34-11.26,1.75-22.71,1.67-34.1,1.59C31.09,63,15,62.77.13,57.92A54.67,54.67,0,0,0,3.08,73c7.45.75,15.05-1.3,22.59-2,17.71-1.64,35.49,4.29,53.19,2.53,7.62-.75,15-2.93,22.38-5.09l7.56-2.22A55.34,55.34,0,0,0,110,55C110,53.7,109.89,52.41,109.8,51.13Z"/><path class="cls-7" d="M106.05,35.38a2.43,2.43,0,0,0,.13-.38,54.71,54.71,0,0,0-3.51-7.32,10.63,10.63,0,0,0-5.58-.84,28.69,28.69,0,0,0-7.21,2.07l-9.42,3.63c-2.32.9-4.65,1.79-7,2.48-7.94,2.3-16.33,2.29-24.6,2.27-11.14,0-22.29-.07-33.43-.43-3.89-.13-8.23-.53-11.24-2.72A54.7,54.7,0,0,0,.63,47l28.15,4.79a4.85,4.85,0,0,0,2.62,0,1.69,1.69,0,0,0,1.06-2.11c-.27-.56-1-1-.87-1.59s1-.74,1.6-.68c10.64.93,20.7,6.64,31.36,5.93,12.24-.81,22.3-9.84,34-13.46C101.43,39,104.78,38.1,106.05,35.38Z"/><path class="cls-8" d="M109.78,51.15A61.83,61.83,0,0,1,99.2,56.59a56.73,56.73,0,0,1-4.84,13.83q3.45-.94,6.88-2l7.54-2.21A55.44,55.44,0,0,0,109.78,51.15Z"/><path class="cls-8" d="M100.17,39.35c2.42-.77,4.84-1.75,5.88-4a2.32,2.32,0,0,0,.13-.37c-.3-.76-.62-1.52-1-2.27l-.3-.67c-.21-.46-.43-.91-.65-1.36s-.36-.73-.55-1.09-.24-.44-.35-.66c-.24-.43-.47-.86-.71-1.28a10.34,10.34,0,0,0-5.08-.86A57.06,57.06,0,0,1,100.17,39.35Z"/><path class="cls-9" d="M54,81.39,43.38,76.93a20.24,20.24,0,0,0-8.33-1.48,21.76,21.76,0,0,0-7.54,1.07l-9.79,3.74c4.35,4.29,13.42,9.32,18.76,9.72C42.82,90.46,49.11,84.93,54,81.39Z"/><path class="cls-9" d="M74.84,79.26a14.44,14.44,0,0,0-9.48,3.2,13.2,13.2,0,0,0,9,.36,3.66,3.66,0,0,0,1.89-1.15,1.55,1.55,0,0,0-.07-2A2.12,2.12,0,0,0,74.84,79.26Z"/><path class="cls-9" d="M56.46,80.24c1.8.61,3.76,0,5.66.06,2.71.08,18.54.46,21.26.54-2.7,2.48-20,2.47-23.62,2-3.38-.43-12.42-.34-16.32.75.84-1.57.21-4,2-4.29A65,65,0,0,1,56.46,80.24Z"/><path class="cls-5" d="M81.43,87.32a6.29,6.29,0,0,0-3,.18A2.21,2.21,0,0,0,77,89.81c-4.1,2.11-8.57-2.81-13.18-2.65-2.35.08-4.42,1.48-6.53,2.53C49.38,93.6,41.6,97,33.05,94.86c-6.9-1.72-14.2-4-21-9.07a1.13,1.13,0,0,0-1.81,1.07.35.35,0,0,0,.06.14c5.93,3,14.91,12.36,21.32,13.87,10.52,2.49,23.51,2.58,34.28,1.71C73,102,76,98.69,83,97.47c5.28-.93,9.36-6.57,14.57-7.68.24-.28.46-.58.69-.87Z"/><path class="cls-9" d="M6.12,80.11c5.28,1.43,18.32,1.79,20.73.53,5-2.6-16.12-2.31-21.78-2.69Q5.58,79,6.12,80.11Z"/><path class="cls-9" d="M95.45,77.42C89.2,78.23,71.86,79.94,65.9,82c16.53,2,25.35-1.74,32.26-2.59,2.58-.31,4.59-2,7.17-2.32.31-.72.61-1.44.89-2.17A46.5,46.5,0,0,1,95.45,77.42Z"/><path class="cls-10" d="M79.76,71a26,26,0,0,0-12.6-1.35c-3,.43-6.31,1.36-9.07,0C56.91,69,55.92,68,54.65,67.7c-3.69-1-5.89,2.14-9.58,3.07-4,1-7.45-3.4-11.54-3.47-2.21,0-4.21,1.2-6.31,1.89A11.75,11.75,0,0,1,19,68.81c-.33.54-1.21,0-1.26-.68s.22-1.31-.05-1.88c-.38-.82-1.54-.82-2.43-.66-2.83.54-5.59,1.51-8.46,1.68A10.24,10.24,0,0,1,1.16,66a53.59,53.59,0,0,0,2.61,8.84c.43,1.11,9.59.17,10.76,0,4.85-.59,9.37-2.64,14.15-3.21,10.78-1.29,20.6,2.32,30.77,5.15a5.82,5.82,0,0,0,3.13.3,1.88,1.88,0,0,0,.3-.12,13.36,13.36,0,0,1,7-1.46,77,77,0,0,0,38.09-6,54.88,54.88,0,0,0,1.6-8.36A148,148,0,0,1,79.76,71Z"/><path class="cls-11" d="M.28,60,1.54,60c10.59.49,21.35,5.06,31.46,1.9A137.47,137.47,0,0,1,.05,55.18C.06,56.8.14,58.39.28,60Z"/><path class="cls-11" d="M109.94,54.51a56.76,56.76,0,0,0-.45-6.57c-5.57,5.79-13.76,9.15-21.77,10.93-10.31,2.28-13.79,9.22-34.66,4.92C69,62.15,88.59,61.63,103.88,57A29.58,29.58,0,0,0,109.94,54.51Z"/><path class="cls-10" d="M106.64,36.17c-6.14,3.28-13.33,5.24-19.81,7.77-9.61,3.74-18.66,10.78-28.64,8.18l-26-6.76a4.13,4.13,0,0,0-1.59-.21,2.21,2.21,0,0,0-1.72,2.69c.37,1.39,1.92,2.79,2.94,1.25L32,50.53c-1.76.08-3.58-1.07-5.11-.23a3.47,3.47,0,0,1-2.05.49c-3.13-.33-4.79-3.25-7.49-4.27-1.71-.66-3.62-.46-5.44-.66-2.61-.28-5-1.38-7.57-2.12a17.25,17.25,0,0,0-2.94-.61q-.57,2.59-.9,5.28a91.4,91.4,0,0,0,12,3.54,1.87,1.87,0,0,0,2.3-1.75v0c9.08,3.93,27.88,7.23,28.78,4.13l-1.51-1.22c7.8-2.05,15.72,2.91,23.78,3,4.8.05,9.43-1.64,13.88-3.41,7.9-3.14,20.34-7.19,28.27-12.21C107.6,39,107.15,37.57,106.64,36.17Z"/><path class="cls-12" d="M102.44,27.27q-1.48-2.52-3.21-4.88c-8.16,2.57-16.51,4.57-25,4C68,26,61.8,24.29,55.66,25.32c-4.54.77-14.33.74-18.62,2.43C25.58,32.24,16.91,35.6,5.15,31.88c-.42.9-.82,1.82-1.19,2.76a2.24,2.24,0,0,0,.36.51,5.9,5.9,0,0,0,3.82,1.28,363.41,363.41,0,0,0,69.26-.52,2.49,2.49,0,0,0,1.52-.52c.4-.38.41-1.17-.1-1.37l1.69-.88C87.24,29.62,95.05,29.09,102.44,27.27Z"/><path class="cls-11" d="M95.19,17.54C89.88,20,83.88,21,78,21.35c-7.36.45-14.77,0-22.11.83-9.53,1.05-18.77,4.19-28.33,5A59.33,59.33,0,0,1,8.49,25.75,55.08,55.08,0,0,0,5,32.31a54,54,0,0,0,6,2.34c5.22,1.63,10.93,2.19,16.17.58,4.95-1.51,9.56-4.93,14.71-4.45,2.26.21,4.39,1.18,6.61,1.67s4.92-.1,7.1-.77a1.6,1.6,0,0,0,1.07-1.61l-3.4-1.69a4.1,4.1,0,0,1,5.61-1.83c2.34,3,6.29,4.37,10.09,4.46s7.52-.93,11.18-2c6.69-1.85,13.36-3.59,20-5.4A54.85,54.85,0,0,0,95.19,17.54Z"/><path class="cls-10" d="M70.53,14.14l17.81-2.81c-.94-.72-1.91-1.42-2.9-2.08-10,3.33-20.68,4.32-31.21,5.25-11.82,1.05-24.13,2-35.51-.76-.88.78-1.75,1.57-2.58,2.41C33.77,19.77,52.53,17,70.53,14.14Z"/><path class="cls-13" d="M96.17,66.43a56.64,56.64,0,0,1-4,8A82.32,82.32,0,0,0,108,69.52c0-.1.06-.19.08-.28.08-.29.15-.57.22-.86.14-.58.28-1.17.41-1.76,0-.17.07-.34.11-.52.33-1.63.59-3.28.78-4.94A141.89,141.89,0,0,1,96.17,66.43Z"/><path class="cls-13" d="M106.6,36.19a61.76,61.76,0,0,1-6.45,2.91q.25,2.67.27,5.37a67.13,67.13,0,0,0,7.55-4C107.58,39,107.12,37.6,106.6,36.19Z"/><path class="cls-14" d="M43.23,78.87c1.17.71,2.36,1.78,2.33,3.15,0,1.55-1.57,2.61-3,3.24-4.37,2-9.88,2.46-13.68-.46-.82-.63-1.53-1.4-2.39-2h0a2,2,0,0,1-.1-3.29,15.37,15.37,0,0,1,16.85-.64Z"/><path class="cls-15" d="M41.92,83.39a17.69,17.69,0,0,1-11.86.23,1.57,1.57,0,0,1-.48-2.76,11.05,11.05,0,0,1,12.88.19,1.54,1.54,0,0,1,.71,1.08C43.18,82.76,42.51,83.16,41.92,83.39Z"/><path class="cls-9" d="M56.26,61.2C41,61.1,25,60.72,10.7,56,7.24,54.88,3.36,55.84.06,54.34c0,.22,0,.44,0,.66,0,1.31.06,2.6.15,3.88a12.92,12.92,0,0,0,2.55,1c9.78,2.82,20,3.57,30.19,4,22.65,1,45.53.57,67.69-4.23a40.09,40.09,0,0,0,9.28-2.92c0-.58,0-1.15,0-1.73a55.13,55.13,0,0,0-.28-5.63A69.67,69.67,0,0,1,89.07,58C78.38,60.69,67.28,61.28,56.26,61.2Z"/><path class="cls-16" d="M96.79,24.56l3.34-.9a54.85,54.85,0,0,0-4.94-6.12c-.43.2-.87.37-1.3.55A57.56,57.56,0,0,1,96.79,24.56Z"/><path class="cls-16" d="M105.33,77.07c.31-.72.61-1.44.89-2.17a46.5,46.5,0,0,1-10.77,2.52c-1.43.19-3.43.42-5.74.69q-1.24,1.74-2.66,3.4c4.45-.77,8-1.74,11.11-2.12C100.74,79.08,102.75,77.38,105.33,77.07Z"/><path class="cls-16" d="M109.62,49.4a63.93,63.93,0,0,1-10,5.18,56.89,56.89,0,0,1-1.25,5.55c.77-.16,1.54-.31,2.3-.48a40.31,40.31,0,0,0,9.25-2.91A54.53,54.53,0,0,0,109.62,49.4Z"/><path class="cls-17" d="M86.32,33.25a2.68,2.68,0,0,0-1.62.55c-.23.18-.24.55.08.63A2.15,2.15,0,0,0,87,33.8a.34.34,0,0,0-.24-.58H85.51a.35.35,0,0,0,0,.69h1.22l-.25-.58a1.49,1.49,0,0,1-1.52.45l.09.63a2.15,2.15,0,0,1,1.27-.47C86.76,33.92,86.76,33.23,86.32,33.25Z"/><path class="cls-17" d="M91.94,33.41h-1a.35.35,0,0,0-.33.44.88.88,0,0,0,1.68,0c.09-.43-.58-.61-.66-.18a.19.19,0,0,1-.36,0l-.33.44h1A.35.35,0,0,0,91.94,33.41Z"/><path class="cls-17" d="M83.1,39a2.58,2.58,0,0,0-1.77.42.35.35,0,0,0,.09.63,1.67,1.67,0,0,0,1.89-.67c.25-.36-.34-.71-.6-.35a1,1,0,0,1-1.11.36c0,.21.05.42.08.63a2,2,0,0,1,1.42-.33C83.54,39.79,83.53,39.1,83.1,39Z"/><path class="cls-17" d="M37.66,21.94l1.44.11c.32,0,.42-.39.24-.59a1,1,0,0,0-1.15-.28c-.4.16-.23.83.19.66a.37.37,0,0,1,.47.11l.25-.59-1.44-.11C37.22,21.22,37.22,21.91,37.66,21.94Z"/><path class="cls-17" d="M42.9,20.63h1.42a.35.35,0,0,0,.24-.59,1.09,1.09,0,0,0-1.15-.26c-.41.14-.23.81.19.66a.4.4,0,0,1,.47.09c.08-.2.16-.4.25-.59H42.9A.35.35,0,0,0,42.9,20.63Z"/><path class="cls-17" d="M17.76,23l1,.06a.35.35,0,0,0,.3-.52A1.25,1.25,0,0,0,17.68,22a.35.35,0,0,0,.19.67.52.52,0,0,1,.62.23l.3-.52-1-.06C17.31,22.28,17.32,23,17.76,23Z"/><path class="cls-17" d="M47.16,57.14A2,2,0,0,0,49.58,57a.36.36,0,0,0-.06-.55,3.84,3.84,0,0,0-2.54-.3.35.35,0,0,0-.15.58,2.8,2.8,0,0,0,2.77.66c.43-.13.24-.8-.18-.66a2.1,2.1,0,0,1-2.1-.49l-.15.57a3.08,3.08,0,0,1,2,.24l-.07-.54a1.34,1.34,0,0,1-1.59.07C47.13,56.31,46.79,56.9,47.16,57.14Z"/><path class="cls-17" d="M54.07,59.1a.59.59,0,1,0,1.09-.28c-.19-.4-.78,0-.6.35l.2-.07C54.74,58.65,54.05,58.65,54.07,59.1Z"/><path class="cls-17" d="M96.09,52.33a1.15,1.15,0,0,0,1.85-.62c0-.2-.09-.46-.33-.44l-1,.11c-.44,0-.44.73,0,.69l1-.11-.33-.43a.46.46,0,0,1-.71.31C96.23,51.57,95.74,52.05,96.09,52.33Z"/><path class="cls-17" d="M89.32,54.32c-.21-.36-1-.27-.9.22s.71.62,1,.2c.15-.2,0-.43-.2-.51a1.75,1.75,0,0,0-1-.1c-.44.08-.25.74.18.67a1,1,0,0,1,.64.1c-.07-.17-.14-.34-.2-.51l.15,0,.1.24-.38.06C89,55,89.56,54.7,89.32,54.32Z"/><path class="cls-17" d="M18,54.56l1.05,0a.35.35,0,0,0,.24-.59,1.64,1.64,0,0,0-2-.34.35.35,0,0,0-.07.54,1.82,1.82,0,0,0,2.48.32c.35-.26,0-.86-.35-.59a1.15,1.15,0,0,1-1.64-.21c0,.18-.05.36-.07.54a.91.91,0,0,1,1.11.23l.25-.59-1.05,0A.35.35,0,0,0,18,54.56Z"/><path class="cls-17" d="M22,55.05l1.63.18a.34.34,0,0,0,.33-.43A1.19,1.19,0,0,0,22.25,54c-.4.18-.05.77.35.59a.5.5,0,0,1,.68.37l.33-.44L22,54.36C21.54,54.31,21.55,55,22,55.05Z"/><path class="cls-17" d="M61.58,77.19a2.23,2.23,0,0,0,1.66-.8c.18-.21.08-.61-.24-.58l-1.62.11c-.44,0-.44.72,0,.69L63,76.49c-.09-.19-.17-.39-.25-.58a1.58,1.58,0,0,1-1.17.59C61.14,76.53,61.14,77.22,61.58,77.19Z"/><path class="cls-17" d="M83.29,70.49a3.24,3.24,0,0,0-2.25.76c-.22.18-.06.49.15.58A1.59,1.59,0,0,0,83,71.41a.35.35,0,0,0-.24-.59l-1,0a.35.35,0,0,0,0,.69l1,0-.24-.59a.94.94,0,0,1-1.12.24l.16.58a2.49,2.49,0,0,1,1.76-.56C83.74,71.21,83.73,70.52,83.29,70.49Z"/><path class="cls-17" d="M12.78,72.52c-.11.16-.22.31-.34.46a.35.35,0,0,0,.3.52l2.06,0a.36.36,0,0,0,.3-.52,1.64,1.64,0,0,0-2.54-.39c-.33.3.16.79.49.49a.94.94,0,0,1,1.45.25l.3-.52-2.06,0,.3.52.33-.46C13.63,72.51,13,72.17,12.78,72.52Z"/><path class="cls-17" d="M53.52,84.43a1.88,1.88,0,0,0,2.18.32.35.35,0,0,0,.07-.54,1.74,1.74,0,0,0-2.22-.13.34.34,0,0,0,0,.59,1.85,1.85,0,0,0,1.5.27c.43-.09.25-.76-.19-.66a1.2,1.2,0,0,1-1-.2v.59a1.06,1.06,0,0,1,1.39,0c0-.18,0-.36.07-.54A1.19,1.19,0,0,1,54,84C53.69,83.64,53.2,84.13,53.52,84.43Z"/><path class="cls-17" d="M91.64,61.46l1-.16c.44-.07.25-.74-.18-.67l-1,.17C91,60.87,91.21,61.53,91.64,61.46Z"/><path class="cls-17" d="M80.3,15l-1-.07c-.46,0-.43.64,0,.69l1.8.23a.35.35,0,0,0,.33-.26.73.73,0,0,0-.24-.83c-.35-.27-.84.21-.49.48l.07.17.33-.25-1.8-.23v.69l1,.07C80.74,15.73,80.74,15,80.3,15Z"/><path class="cls-17" d="M80.92,15.12a1.25,1.25,0,0,0-2.17.07.36.36,0,0,0,.12.47,2,2,0,0,0,2.78-.46c.26-.36-.34-.71-.6-.35a1.3,1.3,0,0,1-1.83.22l.13.47a.55.55,0,0,1,1-.07C80.54,15.86,81.13,15.51,80.92,15.12Z"/><path class="cls-17" d="M85.51,15.72h-1.2v.69h1.2a.34.34,0,0,0,.33-.26.68.68,0,0,0-.35-.83c-.39-.2-.74.39-.35.59l0,.06.33-.25h-1.2a.35.35,0,0,0,0,.69h1.2A.35.35,0,0,0,85.51,15.72Z"/><path class="cls-17" d="M71.24,85.27H70a.35.35,0,0,0-.09.68,2.12,2.12,0,0,0,1.91-.41.34.34,0,0,0,0-.49,1.19,1.19,0,0,0-2,1,.34.34,0,0,0,.24.24A4.06,4.06,0,0,0,72.66,86c.39-.19,0-.79-.35-.59a3.23,3.23,0,0,1-2,.28l.24.24c-.06-.39.55-.63.81-.38V85a1.4,1.4,0,0,1-1.25.23L70,86h1.2A.35.35,0,0,0,71.24,85.27Z"/><path class="cls-17" d="M75,83.63l-.36.26a.34.34,0,0,0,.17.64l1,0a.34.34,0,0,0,.34-.25.7.7,0,0,0-1.06-.74c-.37.25,0,.85.35.6l0,0,.33-.25-1,0,.17.64.37-.25C75.74,84,75.4,83.38,75,83.63Z"/><path class="cls-17" d="M17.12,84.36a1.12,1.12,0,0,0,.94.18.35.35,0,0,0,.25-.34v-.59a.35.35,0,0,0-.34-.35h-1a.35.35,0,0,0-.34.43,1,1,0,0,0,1.47.53c.35-.27,0-.86-.35-.6-.16.12-.38.12-.45-.11l-.33.44h1l-.35-.34v.59l.26-.33a.4.4,0,0,1-.41-.11C17.12,83.5,16.77,84.1,17.12,84.36Z"/><path class="cls-18" d="M33.51,105.59A55,55,0,1,0,35.39,3.66,54.3,54.3,0,0,1,101.3,80.43,54.8,54.8,0,0,1,33.51,105.59Z"/><path class="cls-19" d="M.05,55A54.66,54.66,0,0,0,5,77.77C24.63,82.89,44.74,76.4,59.63,60.6,74.91,44.38,80.48,22.66,73.33,3.19A55,55,0,0,0,.05,55Z"/><g class="cls-20"><path class="cls-21" d="M17.38,18.09c13.87-13.33,36-15.92,47.66-4S66.1,36.82,52.83,53.29C41.94,66.83,23.21,78.15,11.59,66.22S3.51,31.42,17.38,18.09Z"/></g></g></g></g></svg>