<svg xmlns="http://www.w3.org/2000/svg" xmlns:xlink="http://www.w3.org/1999/xlink" viewBox="0 0 110 110"><defs><style>.cls-1{mask:url(#mask);filter:url(#luminosity-noclip-2);}.cls-2,.cls-9{mix-blend-mode:multiply;}.cls-2{fill:url(#radial-gradient);}.cls-3{isolation:isolate;}.cls-4{fill:#a2cec7;}.cls-5{fill:#4b6672;}.cls-6{fill:#809ea5;}.cls-7{fill:#b1e0d5;}.cls-10,.cls-13,.cls-8{fill:#fff;}.cls-9{fill:#6e97a1;opacity:0.69;}.cls-10{opacity:0.15;}.cls-11{mask:url(#mask-2);}.cls-12{opacity:0.49;fill:url(#Áåçûìÿííûé_ãðàäèåíò_883);}.cls-13{opacity:0.24;mix-blend-mode:screen;}.cls-14{filter:url(#luminosity-noclip);}</style><filter id="luminosity-noclip" x="5.33" y="-8128.01" width="65.43" height="32766" filterUnits="userSpaceOnUse" color-interpolation-filters="sRGB"><feFlood flood-color="#fff" result="bg"/><feBlend in="SourceGraphic" in2="bg"/></filter><mask id="mask" x="5.33" y="-8128.01" width="65.43" height="32766" maskUnits="userSpaceOnUse"><g class="cls-14"/></mask><radialGradient id="radial-gradient" cx="458.58" cy="-917.3" r="59.65" gradientTransform="matrix(0.03, -0.89, 0.91, -0.16, 847.09, 282.4)" gradientUnits="userSpaceOnUse"><stop offset="0" stop-color="#fff"/><stop offset="0.77"/></radialGradient><filter id="luminosity-noclip-2" x="5.33" y="6.36" width="65.43" height="64.78" filterUnits="userSpaceOnUse" color-interpolation-filters="sRGB"><feFlood flood-color="#fff" result="bg"/><feBlend in="SourceGraphic" in2="bg"/></filter><mask id="mask-2" x="5.33" y="6.36" width="65.43" height="64.78" maskUnits="userSpaceOnUse"><g class="cls-1"><path class="cls-2" d="M18.11,18C32,4.65,54.14,2.06,65.76,14s1.06,22.71-12.2,39.18C42.66,66.72,23.93,78,12.31,66.11S4.24,31.31,18.11,18Z"/></g></mask><radialGradient id="Áåçûìÿííûé_ãðàäèåíò_883" cx="458.58" cy="-917.3" r="59.65" gradientTransform="matrix(0.03, -0.89, 0.91, -0.16, 847.09, 282.4)" gradientUnits="userSpaceOnUse"><stop offset="0" stop-color="#fff"/><stop offset="0.77" stop-color="#f3f9f7"/></radialGradient></defs><title>star08</title><g class="cls-3"><g id="Layer_2" data-name="Layer 2"><g id="Layer_1-2" data-name="Layer 1"><circle class="cls-4" cx="55" cy="55" r="55"/><path class="cls-5" d="M38.86,17c-5.21-1-11,.24-14.71,4.09S19.67,31.49,23,35.62c2.28,2.84,5.92,4.14,9.36,5.31a13.32,13.32,0,0,0,4.76,1c3.73-.18,6.56-3.4,8.42-6.63,2.27-4,3.79-9,1.61-13C45.52,19.32,42.19,17.64,38.86,17Z"/><path class="cls-5" d="M66.25,17.2a11.16,11.16,0,0,0-4.1.7,4.57,4.57,0,0,0-2.75,3,4.36,4.36,0,0,0,2.77,4.73A7.54,7.54,0,0,0,68,25.21a6.81,6.81,0,0,0,3.14-2.48,3.65,3.65,0,0,0,.12-3.83C70.21,17.37,68.08,17.15,66.25,17.2Z"/><path class="cls-5" d="M63.1,45.16a25.35,25.35,0,0,0-4.88,1c-5.73,1.81-9,8.1-6.49,13.56a9.36,9.36,0,0,0,1.72,2.56,11.17,11.17,0,0,0,14.22,1.13,12,12,0,0,0,3.67-14,7.34,7.34,0,0,0-2.83-3.52A8.77,8.77,0,0,0,63.1,45.16Z"/><path class="cls-6" d="M51.8,39.73a2.51,2.51,0,0,0,3.66.38,2.4,2.4,0,1,0-3.66-.38Z"/><path class="cls-5" d="M12,46.15a4.31,4.31,0,0,0,3.33,7.79,4.51,4.51,0,0,0,3-5.9A4.51,4.51,0,0,0,12,46.15Z"/><path class="cls-5" d="M25.5,83.8c2.53-1.61,3.36-5.11,2.59-8s-2.82-5.29-5-7.31c-1.62-1.47-3.49-2.86-5.66-3.12a7.11,7.11,0,0,0-7,4.09,9.4,9.4,0,0,0,.41,8.31,13.93,13.93,0,0,0,6.27,5.73C19.73,84.78,23,85.37,25.5,83.8Z"/><path class="cls-5" d="M47.31,94.13a51.61,51.61,0,0,0-5.92-.91c-1.41-.13-3.31.16-3.48,1.56a2.6,2.6,0,0,0,1.21,2.14,12.67,12.67,0,0,0,7.5,2.8,5.46,5.46,0,0,0,2.88-.56,2.58,2.58,0,0,0,1.38-2.44C50.67,95.16,48.85,94.45,47.31,94.13Z"/><path class="cls-6" d="M78,73.58c.57,1.33,2.11,1.91,3.49,2.34a4.53,4.53,0,0,0,3,.23c1.32-.53,1.83-2.12,2.08-3.52A8.87,8.87,0,0,0,86.62,69a3.61,3.61,0,0,0-2.22-2.66c-1.93-.61-3.81,1-5.07,2.6C78.29,70.3,77.3,72,78,73.58Z"/><path class="cls-6" d="M46.77,61.46l.12.35c.08.23.18.58.35,1s.4.89.66,1.44.66,1.11,1.07,1.71a16.44,16.44,0,0,0,1.54,1.78,14.07,14.07,0,0,0,4.4,3,12.39,12.39,0,0,0,2.67.78,12.57,12.57,0,0,0,2.79.13,15.74,15.74,0,0,0,2.69-.46,15.91,15.91,0,0,0,2.43-.93,17.51,17.51,0,0,0,2-1.18c.59-.44,1.12-.87,1.57-1.27s.82-.81,1.1-1.15.5-.62.65-.81l.23-.29-.13.35a7.28,7.28,0,0,1-.41,1,9.92,9.92,0,0,1-.83,1.44l-.63.83c-.23.28-.5.55-.78.84a11.82,11.82,0,0,1-2,1.62,12.6,12.6,0,0,1-2.62,1.32,13.4,13.4,0,0,1-3.09.72,14,14,0,0,1-3.3-.09,14.62,14.62,0,0,1-3.15-1,13.52,13.52,0,0,1-2.68-1.69,12.61,12.61,0,0,1-2-2.09,12,12,0,0,1-1.4-2.2c-.17-.37-.34-.71-.47-1l-.32-1a10.78,10.78,0,0,1-.33-1.64,6.23,6.23,0,0,1-.06-1.05Z"/><path class="cls-6" d="M20.27,88s.28,0,.75.07a5.15,5.15,0,0,0,.83.07,8.54,8.54,0,0,0,1,0,10,10,0,0,0,1.2-.06c.42,0,.85-.14,1.3-.2s.88-.19,1.32-.36A13.2,13.2,0,0,0,28,87.09a13.13,13.13,0,0,0,1.29-.74,11.1,11.1,0,0,0,1.09-.79c.32-.3.69-.56,1-.88s.57-.59.8-.89a9.81,9.81,0,0,0,.64-.82,7.79,7.79,0,0,0,.47-.69c.24-.39.41-.62.41-.62s0,.27,0,.75a4.48,4.48,0,0,1-.13.87,5.48,5.48,0,0,1-.33,1.11,6.38,6.38,0,0,1-.61,1.23,8.69,8.69,0,0,1-.91,1.26A8.29,8.29,0,0,1,30.36,88a7.94,7.94,0,0,1-3.11,1.48,8.77,8.77,0,0,1-1.66.25A8.62,8.62,0,0,1,24,89.67a6.44,6.44,0,0,1-1.34-.3,5.4,5.4,0,0,1-1.08-.44,4,4,0,0,1-.75-.44C20.48,88.21,20.27,88,20.27,88Z"/><path class="cls-6" d="M6.82,49.37s0,.28,0,.77a3.06,3.06,0,0,0,0,.84c0,.15,0,.31.05.48S7,51.81,7,52a8.18,8.18,0,0,0,.34,1.15,2.3,2.3,0,0,0,.26.58c.1.19.18.39.29.58a8.3,8.3,0,0,0,.79,1.08,3.12,3.12,0,0,0,.47.49l.25.22.13.11.06.06,0,0,0,0-.06,0a7.76,7.76,0,0,0,1.29.73,7.57,7.57,0,0,0,1.22.43c.21,0,.43.06.64.11a2.87,2.87,0,0,0,.64.08,7.83,7.83,0,0,0,1.19,0,5.23,5.23,0,0,0,1-.14,4.56,4.56,0,0,0,.81-.2,7.57,7.57,0,0,1,.73-.23s-.17.21-.52.58a3,3,0,0,1-.7.58l-.48.32c-.18.09-.38.16-.58.25s-.42.18-.66.25l-.73.14a6.78,6.78,0,0,1-1.64.09,6.8,6.8,0,0,1-1.78-.41A7.2,7.2,0,0,1,8.5,58L8.42,58l0,0,0,0,0,0-.09-.08-.18-.15-.35-.32a4,4,0,0,1-.6-.71,7.08,7.08,0,0,1-.88-1.55,6.91,6.91,0,0,1-.39-1.6c0-.25-.06-.5-.07-.74s0-.48,0-.7,0-.43.08-.63.11-.39.17-.57A3,3,0,0,1,6.41,50C6.66,49.6,6.82,49.37,6.82,49.37Z"/><path class="cls-6" d="M19.77,20s-.2.45-.58,1.21c-.09.2-.22.4-.31.64s-.17.49-.27.77-.2.54-.31.84l-.26,1c-.07.34-.19.69-.24,1.06s-.11.76-.17,1.15a6.05,6.05,0,0,0-.09,1.21c0,.42-.05.84,0,1.26a18,18,0,0,0,.3,2.61,15.75,15.75,0,0,0,.7,2.59l.57,1.26a7.06,7.06,0,0,0,.66,1.16,18,18,0,0,0,1.5,2.11c.28.33.6.6.87.91a6.32,6.32,0,0,0,.88.84l.89.74c.29.25.61.42.9.63l.84.56.81.42.72.39c.23.11.45.18.64.26.78.31,1.24.52,1.24.52s-.48,0-1.35-.12c-.21,0-.46,0-.71-.09l-.83-.22-.94-.25c-.32-.12-.65-.28-1-.43a11.33,11.33,0,0,1-1.07-.5L22,41.79A6.69,6.69,0,0,1,21,41c-.36-.29-.72-.59-1.07-.93A14,14,0,0,1,18,37.72a8.75,8.75,0,0,1-.78-1.32L16.56,35a17.76,17.76,0,0,1-.74-3,14.23,14.23,0,0,1-.15-3c0-.48.1-.95.17-1.41a7.19,7.19,0,0,1,.27-1.32l.35-1.22c.13-.39.32-.74.46-1.09s.29-.68.46-1l.54-.84.47-.71c.15-.21.32-.37.46-.54C19.43,20.31,19.77,20,19.77,20Z"/><path class="cls-6" d="M60.88,28.56s.3.15.8.44a5,5,0,0,0,.92.44l.56.23.65.18a8.06,8.06,0,0,0,1.48.31,4.29,4.29,0,0,0,.81.06c.28,0,.56,0,.85,0A10.28,10.28,0,0,0,68.68,30a9.5,9.5,0,0,0,1.71-.56,9.27,9.27,0,0,0,1.55-.94,11.53,11.53,0,0,0,1.3-1.14c.19-.21.35-.45.53-.66a4.19,4.19,0,0,0,.48-.65A8.39,8.39,0,0,0,75,24.73l.28-.62.2-.58a6.44,6.44,0,0,0,.27-1c.11-.56.18-.88.18-.88s0,.32.09.91a3.79,3.79,0,0,1,0,1.05l-.06.66c0,.23-.12.46-.18.71s-.13.52-.23.77l-.36.79a9.36,9.36,0,0,1-1,1.59,9.06,9.06,0,0,1-1.46,1.44A9.41,9.41,0,0,1,71,30.7a10.55,10.55,0,0,1-2,.61,9.22,9.22,0,0,1-2,.15c-.33,0-.65-.07-1-.11a5,5,0,0,1-.89-.18l-.83-.25a7,7,0,0,1-.73-.33c-.23-.11-.46-.2-.66-.32l-.55-.38a4.64,4.64,0,0,1-.81-.67Z"/><path class="cls-6" d="M87.87,51.32l0,.29a7,7,0,0,0,0,.79,8.92,8.92,0,0,0,.07,1.19,9.28,9.28,0,0,0,.35,1.46,11.16,11.16,0,0,0,.71,1.61A11.32,11.32,0,0,0,90,58.27a13.41,13.41,0,0,0,1.43,1.5A11.17,11.17,0,0,0,93.09,61a16.57,16.57,0,0,0,2,1c.62.28,1.32.52,2,.76s1.32.43,2,.58l1.8.47c1.13.27,2.09.51,2.76.69s1.06.3,1.06.3l-1.09.11a26.31,26.31,0,0,1-2.88.08,16.94,16.94,0,0,1-1.94-.12,20.43,20.43,0,0,1-2.16-.34,16.06,16.06,0,0,1-2.3-.69,19.15,19.15,0,0,1-2.18-1,12.51,12.51,0,0,1-2-1.59,10.18,10.18,0,0,1-1.54-1.9,8.67,8.67,0,0,1-1-2,7.51,7.51,0,0,1-.46-2c0-.31,0-.62,0-.9s0-.55.07-.81a6.5,6.5,0,0,1,.32-1.27,4.1,4.1,0,0,1,.34-.74Z"/><path class="cls-6" d="M35.18,4.94A9.5,9.5,0,0,0,29.9,8.38,1.13,1.13,0,0,0,31,10.17,11.31,11.31,0,0,0,35.5,8.65,3.58,3.58,0,0,0,37.16,7a1.61,1.61,0,0,0-.69-2.05A2.18,2.18,0,0,0,35.18,4.94Z"/><path class="cls-6" d="M42.54,76.77A2.51,2.51,0,1,0,46.68,74a2.51,2.51,0,0,0-4.14,2.79Z"/><path class="cls-6" d="M85.59,25.83a2.23,2.23,0,0,1-1.19-.34,2.59,2.59,0,0,1,.07-4.28,2.62,2.62,0,0,1,3,.53,2.29,2.29,0,0,1,.7,1.67A2.63,2.63,0,0,1,85.59,25.83Zm0-3.53a.77.77,0,0,0-.43.11,1.08,1.08,0,0,0-.48.94,1.1,1.1,0,0,0,.45,1,.84.84,0,0,0,.45.12,1.25,1.25,0,0,0,1.25-1.05,1,1,0,0,0-.3-.68A1.43,1.43,0,0,0,85.6,22.3Z"/><path class="cls-5" d="M107.37,38.18l-.44.37c-2.87,2.32-6.48,3.51-9.56,5.53s-5.77,5.48-5.06,9.1A8.21,8.21,0,0,0,97,58.65a24.34,24.34,0,0,0,7.21,1.82,13.21,13.21,0,0,0,5.53,0q.27-2.7.27-5.46A55,55,0,0,0,107.37,38.18Z"/><path class="cls-5" d="M89.49,18.48a5.32,5.32,0,0,0,6.12-.57,55.41,55.41,0,0,0-7.38-6.73,4.66,4.66,0,0,0-.7,1.15A5.21,5.21,0,0,0,89.49,18.48Z"/><path class="cls-6" d="M75.9,87.68a1.81,1.81,0,1,0,2.07.94,1.61,1.61,0,0,0-2.62-.09Z"/><path class="cls-6" d="M56.07,103.05a6.78,6.78,0,0,1,.73-.19c.46-.13,1.16-.2,1.91-.41.39-.09.79-.19,1.22-.26s.89-.24,1.35-.34,1-.2,1.43-.36,1-.28,1.47-.4,1-.33,1.45-.47.94-.32,1.4-.48.91-.28,1.31-.46.81-.32,1.18-.45c.76-.25,1.35-.55,1.81-.69s.72-.25.72-.25a5.69,5.69,0,0,1-.49.58c-.16.18-.35.4-.59.64a5.71,5.71,0,0,1-.84.75c-.33.26-.68.53-1.07.8a12.21,12.21,0,0,1-1.29.77,10,10,0,0,1-1.44.68c-.51.2-1,.38-1.56.57s-1.07.26-1.61.37a9.79,9.79,0,0,1-1.58.21,11,11,0,0,1-1.5.07c-.48,0-.93,0-1.35-.09a4.89,4.89,0,0,1-1.1-.17c-.32-.06-.61-.14-.84-.2C56.33,103.14,56.07,103.05,56.07,103.05Z"/><path class="cls-6" d="M89.05,86s.16-.2.45-.53.76-.75,1.22-1.29c.23-.26.49-.55.77-.82s.54-.63.84-.93.61-.64.89-1,.6-.69.9-1,.57-.72.87-1.07.56-.7.83-1,.56-.65.79-1,.46-.63.68-.91c.46-.56.78-1.06,1.07-1.4s.45-.53.45-.53,0,.26-.07.69a7.42,7.42,0,0,1-.13.78,5.22,5.22,0,0,1-.25,1c-.12.35-.25.74-.41,1.14a10.44,10.44,0,0,1-.59,1.22,10,10,0,0,1-.75,1.24q-.44.6-.9,1.2c-.34.37-.69.73-1,1.08a8.91,8.91,0,0,1-1.1,1,10.14,10.14,0,0,1-1.11.78c-.37.23-.74.43-1.07.6a5.2,5.2,0,0,1-.93.41c-.28.11-.53.18-.74.25C89.3,86,89.05,86,89.05,86Z"/><path class="cls-6" d="M31.62,55.93a.73.73,0,0,1-.39-.13A5.47,5.47,0,0,1,29,51a.67.67,0,0,1,.75-.63.68.68,0,0,1,.63.74A4.12,4.12,0,0,0,32,54.67a.68.68,0,0,1,.17,1A.7.7,0,0,1,31.62,55.93Z"/><path class="cls-6" d="M84.11,37.35a.71.71,0,0,1-.58-.32L81.35,33.7A.69.69,0,1,1,82.51,33l2.18,3.32a.69.69,0,0,1-.2,1A.68.68,0,0,1,84.11,37.35Z"/><path class="cls-6" d="M33.9,66.69a.7.7,0,0,1-.69-.58,6.91,6.91,0,0,1,.73-4.35.69.69,0,0,1,.94-.28.7.7,0,0,1,.28.94,5.42,5.42,0,0,0-.58,3.47.69.69,0,0,1-.57.79Z"/><path class="cls-6" d="M87.67,37a.7.7,0,0,1-.31-.07.68.68,0,0,1-.3-.93,5.37,5.37,0,0,1,3-2.63.71.71,0,0,1,.89.43.7.7,0,0,1-.43.88,4,4,0,0,0-2.22,1.94A.69.69,0,0,1,87.67,37Z"/><path class="cls-6" d="M25.1,60.83A.7.7,0,0,1,25,59.44l5.87-.65a.69.69,0,0,1,.76.61.7.7,0,0,1-.61.77l-5.87.65Z"/><path class="cls-6" d="M36.14,57.21a.67.67,0,0,1-.46-.18.69.69,0,0,1-.06-1l2.29-2.59a.69.69,0,0,1,1-.06.69.69,0,0,1,.06,1L36.66,57A.69.69,0,0,1,36.14,57.21Z"/><path class="cls-6" d="M40.75,60.45h-.08l-2.93-.33a.69.69,0,1,1,.15-1.38l2.93.33a.69.69,0,0,1-.07,1.38Z"/><path class="cls-6" d="M79.53,42.25a.7.7,0,0,1-.45-.17.68.68,0,0,1-.08-1,6.62,6.62,0,0,1,3.64-2.19.7.7,0,0,1,.29,1.36A5.18,5.18,0,0,0,80.06,42,.72.72,0,0,1,79.53,42.25Z"/><path class="cls-6" d="M47.24,9.68a.75.75,0,0,1-.46-.17L44.17,7.23a.7.7,0,0,1-.07-1,.7.7,0,0,1,1-.06l2.61,2.27a.7.7,0,0,1,.07,1A.67.67,0,0,1,47.24,9.68Z"/><path class="cls-6" d="M86,45.18a.69.69,0,0,1-.69-.69V41.23a.7.7,0,0,1,1.39,0v3.26A.69.69,0,0,1,86,45.18Z"/><path class="cls-6" d="M51.17,10a.69.69,0,0,1-.59-1.06l1.63-2.61a.7.7,0,0,1,1.18.74L51.76,9.66A.69.69,0,0,1,51.17,10Z"/><path class="cls-6" d="M91.25,40.35h-.13l-3.58-.65a.7.7,0,1,1,.25-1.37l3.58.66a.69.69,0,0,1,.56.81A.69.69,0,0,1,91.25,40.35Z"/><path class="cls-6" d="M43.67,14.87a.67.67,0,0,1-.54-.27.69.69,0,0,1,.12-1l2.93-2.28A.69.69,0,0,1,47,12.44L44.1,14.73A.76.76,0,0,1,43.67,14.87Z"/><path class="cls-6" d="M48.84,16.82h-.08a.7.7,0,0,1-.61-.77l.32-2.93a.69.69,0,0,1,.76-.62.7.7,0,0,1,.61.77l-.32,2.93A.68.68,0,0,1,48.84,16.82Z"/><path class="cls-6" d="M54.49,12.92a4.81,4.81,0,0,1-3.12-1.15.7.7,0,0,1-.07-1,.68.68,0,0,1,1-.07,3.44,3.44,0,0,0,2.44.81.71.71,0,0,1,.74.65.69.69,0,0,1-.65.73Z"/><path class="cls-6" d="M38.86,17c-5.21-1-11,.24-14.71,4.09A12.1,12.1,0,0,0,21,27.7h.33c2.44-5.53,8.26-9.31,14.27-8.71A14.91,14.91,0,0,1,48,29a10,10,0,0,0-.82-6.75C45.52,19.32,42.19,17.64,38.86,17Z"/><path class="cls-6" d="M71.22,18.9c-1-1.53-3.14-1.75-5-1.7a11.16,11.16,0,0,0-4.1.7,4.57,4.57,0,0,0-2.75,3A3.75,3.75,0,0,0,60,23.73,6.38,6.38,0,0,1,64.73,19a10.62,10.62,0,0,1,6.91,1A2.87,2.87,0,0,0,71.22,18.9Z"/><path class="cls-6" d="M71.34,49.46a7.34,7.34,0,0,0-2.83-3.52,8.77,8.77,0,0,0-5.41-.78,25.35,25.35,0,0,0-4.88,1,10.63,10.63,0,0,0-6.69,6.24,15.21,15.21,0,0,1,20.39-1.21A11.58,11.58,0,0,0,71.34,49.46Z"/><path class="cls-6" d="M26.81,78.5c-1.92,2.33-5.21,3.21-8.21,2.88a19.4,19.4,0,0,1-7-2.44,14.55,14.55,0,0,0,5.52,4.55c2.63,1.29,5.93,1.88,8.4.31a6.93,6.93,0,0,0,2.85-6.14A1,1,0,0,0,28,77.6C27.49,77.63,27.14,78.1,26.81,78.5Z"/><path class="cls-6" d="M18.39,48A4.51,4.51,0,0,0,12,46.15a4.24,4.24,0,0,0-1.32,1.47,5.1,5.1,0,0,1,3.72-.8,10.79,10.79,0,0,1,4.14,1.81A4.06,4.06,0,0,0,18.39,48Z"/><path class="cls-6" d="M95.61,17.91a55.41,55.41,0,0,0-7.38-6.73,4.66,4.66,0,0,0-.7,1.15,5.21,5.21,0,0,0,2,6.15A5.32,5.32,0,0,0,95.61,17.91Z"/><path class="cls-6" d="M97,58.65a24.34,24.34,0,0,0,7.21,1.82,13.21,13.21,0,0,0,5.53,0c.09-.93.16-1.87.2-2.81a17.69,17.69,0,0,1-17.72-5.2,6.09,6.09,0,0,0,.1.73A8.21,8.21,0,0,0,97,58.65Z"/><path class="cls-6" d="M52.82,86.89a4.59,4.59,0,0,0,1.84,3.54,3.65,3.65,0,0,0,5.51-4.19,4.5,4.5,0,0,0-2.59-2.59,3.17,3.17,0,0,0-4.76,3.24Z"/><path class="cls-5" d="M77.73,86.29A7.45,7.45,0,0,0,73.65,90a4.78,4.78,0,0,0,.87,5.26,5,5,0,0,0,4.48,1A9.21,9.21,0,0,0,83.1,94c1.37-1.27,2.57-3,2.28-4.87a4.28,4.28,0,0,0-3.07-3.22A7,7,0,0,0,77.73,86.29Z"/><path class="cls-6" d="M67.05,79.21a2,2,0,0,0,2.78-2.89H68.47A4.38,4.38,0,0,0,67.05,79.21Z"/><path class="cls-6" d="M68.33,6.9a1.69,1.69,0,0,0-2.75-.19,1.61,1.61,0,1,0,2.75.19Z"/><path class="cls-7" d="M52.56,50.69c4.17-5.89,16.83-9.21,19,.27.1.43.77.25.67-.18-2.35-10-15.72-6.94-20.32-.44C51.7,50.7,52.3,51.05,52.56,50.69Z"/><path class="cls-7" d="M73.52,93.18a6.77,6.77,0,0,1,8.79-7.36c.43.13.61-.54.19-.67a7.46,7.46,0,0,0-9.67,8C72.87,93.62,73.56,93.62,73.52,93.18Z"/><path class="cls-7" d="M11.16,79.92c3.33,3.19,7,5.54,11.8,4.87,3.68-.51,6-4.4,5.55-7.87-.06-.44-.73-.25-.67.18.61,4.44-3.11,7.12-7.11,7.17-3.56.06-6.68-2.54-9.08-4.84C11.32,79.13,10.83,79.62,11.16,79.92Z"/><path class="cls-7" d="M21.59,27.35c1.08-5.5,4.52-8.37,9.69-10.11,6.38-2.15,17,1.56,16.72,9.35,0,.45.68.45.69,0,.21-6.85-6.76-10-12.71-10.6a14,14,0,0,0-15,11.18C20.84,27.61,21.51,27.79,21.59,27.35Z"/><path class="cls-7" d="M60.07,23.17c-2.83-2.68,1.67-4.79,3.65-5.39,2.49-.75,5.66-1.66,7.24,1.07a.35.35,0,0,0,.6-.35c-3.24-5.58-16.71.69-12,5.16C59.9,24,60.39,23.48,60.07,23.17Z"/><path class="cls-7" d="M32.34,56.79c-.2,1.14-.33,2.51.55,3.27a1.87,1.87,0,0,0,2.63-.37A2.11,2.11,0,0,0,35.14,57,2.44,2.44,0,0,0,32.34,56.79Z"/><path class="cls-7" d="M47.7,10.28a.9.9,0,1,1,1,1.16A1,1,0,0,1,47.7,10.28Z"/><path class="cls-7" d="M84.33,38.87c0,.31,0,.63,0,1A1.11,1.11,0,1,0,84.19,38c0,.2-.07.41-.1.61Z"/><path class="cls-8" d="M26.26,38.68c3.81,3,10.08,4.76,14.59,2.39.41-.22,0-.83-.35-.61-4.2,2.21-10.2.51-13.74-2.28C26.4,37.9,25.9,38.4,26.26,38.68Z"/><path class="cls-8" d="M57,65.42a12.57,12.57,0,0,0,10.4-1.1.35.35,0,0,0-.35-.61,11.9,11.9,0,0,1-9.86,1C56.72,64.6,56.53,65.28,57,65.42Z"/><path class="cls-8" d="M84.76,39.59l.52.26c.79.4,1.49-.79.7-1.19l-.52-.26C84.66,38,84,39.2,84.76,39.59Z"/><path class="cls-8" d="M85.34,23.81a.69.69,0,0,0,0-1.38A.69.69,0,0,0,85.34,23.81Z"/><path class="cls-8" d="M61.9,26.19a7.94,7.94,0,0,0,9.79-3.54.35.35,0,0,0-.61-.36,7.25,7.25,0,0,1-9,3.21C61.65,25.35,61.47,26,61.9,26.19Z"/><path class="cls-8" d="M39.57,99l1.3.65c.41.2.76-.41.36-.61l-1.3-.65C39.52,98.21,39.16,98.83,39.57,99Z"/><path class="cls-8" d="M44.14,100.57l2.58.26c.45,0,.45-.66,0-.7l-2.58-.27C43.68,99.81,43.69,100.52,44.14,100.57Z"/><path class="cls-8" d="M9,71.23A11.52,11.52,0,0,0,11.54,81c.29.35.79-.16.5-.51a10.77,10.77,0,0,1-2.36-9.09C9.77,71,9.08,70.78,9,71.23Z"/><path class="cls-9" d="M17.94,95.64A55,55,0,1,0,92,14.35c12.94,21,11.17,50.27-6.84,69.55C67.55,102.77,40,106.53,17.94,95.64Z"/><path class="cls-10" d="M0,55A54.67,54.67,0,0,0,5,77.88C24.63,83,44.75,76.54,59.64,60.73,75,44.46,80.53,22.63,73.23,3.11A55,55,0,0,0,0,55Z"/><g class="cls-11"><path class="cls-12" d="M18.11,18C32,4.65,54.14,2.06,65.76,14s1.06,22.71-12.2,39.18C42.66,66.72,23.93,78,12.31,66.11S4.24,31.31,18.11,18Z"/></g><path class="cls-13" d="M31.24,104.61a55,55,0,1,0,10-102.87,54.39,54.39,0,0,1,60.2,78.59A54.89,54.89,0,0,1,31.24,104.61Z"/></g></g></g></svg>