<svg xmlns="http://www.w3.org/2000/svg" xmlns:xlink="http://www.w3.org/1999/xlink" viewBox="0 0 110 110"><defs><style>.cls-1{mask:url(#mask);filter:url(#luminosity-noclip-2);}.cls-2,.cls-9{mix-blend-mode:multiply;}.cls-2{fill:url(#radial-gradient);}.cls-3{isolation:isolate;}.cls-4{fill:#eaa753;}.cls-5{fill:#c97832;}.cls-6{fill:#995d2e;}.cls-7{fill:#b36225;}.cls-8{fill:#bd6420;opacity:0.54;}.cls-9{fill:#b89e8f;}.cls-10,.cls-13{fill:#fff;}.cls-10{opacity:0.15;}.cls-11{mask:url(#mask-2);}.cls-12{opacity:0.57;fill:url(#Áåçûìÿííûé_ãðàäèåíò_895);}.cls-13{opacity:0.24;mix-blend-mode:screen;}.cls-14{filter:url(#luminosity-noclip);}</style><filter id="luminosity-noclip" x="4.61" y="-8413.34" width="65.43" height="32766" filterUnits="userSpaceOnUse" color-interpolation-filters="sRGB"><feFlood flood-color="#fff" result="bg"/><feBlend in="SourceGraphic" in2="bg"/></filter><mask id="mask" x="4.61" y="-8413.34" width="65.43" height="32766" maskUnits="userSpaceOnUse"><g class="cls-14"/></mask><radialGradient id="radial-gradient" cx="958.92" cy="-804.12" r="59.65" gradientTransform="matrix(0.03, -0.88, 0.91, -0.16, 729.08, 743.48)" gradientUnits="userSpaceOnUse"><stop offset="0.23" stop-color="#f4f4f4"/><stop offset="0.67" stop-color="#515151"/><stop offset="1"/></radialGradient><filter id="luminosity-noclip-2" x="4.61" y="6.48" width="65.43" height="64.77" filterUnits="userSpaceOnUse" color-interpolation-filters="sRGB"><feFlood flood-color="#fff" result="bg"/><feBlend in="SourceGraphic" in2="bg"/></filter><mask id="mask-2" x="4.61" y="6.48" width="65.43" height="64.77" maskUnits="userSpaceOnUse"><g class="cls-1"><path class="cls-2" d="M17.38,18.1c13.87-13.32,36-15.91,47.66-4S66.1,36.82,52.83,53.3C41.94,66.83,23.21,78.15,11.59,66.22S3.51,31.43,17.38,18.1Z"/></g></mask><radialGradient id="Áåçûìÿííûé_ãðàäèåíò_895" cx="958.92" cy="-804.12" r="59.65" gradientTransform="matrix(0.03, -0.88, 0.91, -0.16, 729.08, 743.48)" gradientUnits="userSpaceOnUse"><stop offset="0.23" stop-color="#fdf5f6"/><stop offset="0.67" stop-color="#f7ebc2"/><stop offset="1" stop-color="#f3f9f7"/></radialGradient></defs><title>star01</title><g class="cls-3"><g id="Layer_2" data-name="Layer 2"><g id="Layer_1-2" data-name="Layer 1"><path class="cls-4" d="M110,55A55,55,0,1,1,55,0,55,55,0,0,1,110,55Z"/><path class="cls-5" d="M82.76,102.48a13.58,13.58,0,0,0-.44-3A13.2,13.2,0,0,0,75,91.06c-2.89-1.25-6.29-1.49-8.7-3.52-2.1-1.76-3-4.54-3.64-7.21s-1.06-5.47-2.53-7.78-4.35-4-7-3.16c-2.27.75-3.6,3.2-3.92,5.58s.14,4.77.24,7.17a31.27,31.27,0,0,1-2.14,12.15c-1.74,4.69-4.7,9.41-9.44,11-1,.33-2.06.54-3,.88a55,55,0,0,0,47.91-3.69Z"/><path class="cls-5" d="M71.88,35.19a13.34,13.34,0,0,0,7.48-1.38,7.65,7.65,0,0,0,4.08-6.15,5.41,5.41,0,0,0-4.35-5.52c-3.55-.46-3.93,1.85-7,3.68A12,12,0,0,0,68.19,29a4.07,4.07,0,0,0-.19,4.7A5.28,5.28,0,0,0,71.88,35.19Z"/><path class="cls-5" d="M47.4,69.33a3.54,3.54,0,0,0-1.49-2.39c-1.44-1-3.27-2-5.12-1.81-.88.11-1.64,0-2.84.06a4.92,4.92,0,0,0-4.51,3,3.19,3.19,0,0,0-.19,1.66,9.5,9.5,0,0,0,2.18,4.38,14.77,14.77,0,0,1,2.62,4.18c.45,1.38.43,2.9.91,4.27s1.77,2.69,3.21,2.43c1.63-1.39,1.74-3.84,1.65-6s-.18-4.53,1.23-6.14C46,71.85,47.63,71.23,47.4,69.33Z"/><path class="cls-5" d="M36.38,54.6a3,3,0,0,0-1.12,4,2.92,2.92,0,0,0,3.17,1.21,2.84,2.84,0,1,0-2-5.26Z"/><path class="cls-5" d="M29.4,6.43l-.66,1.42A16.37,16.37,0,0,0,27,13.75a6,6,0,0,0,2.48,5.37c1.78,1.09,4.13.81,6,1.8,3,1.62,3.36,5.65,5,8.61,2.6,4.7,8.8,6.61,14,5.32s9.46-5.2,12.42-9.69c2-3,3.59-6.42,6.5-8.54,4-2.93,10.14-3.08,13.42-6.48A54.68,54.68,0,0,0,29.4,6.43Z"/><path class="cls-5" d="M105.39,39a10.19,10.19,0,0,0,1.46-2.32,54.88,54.88,0,0,0-9.62-16.85,30.49,30.49,0,0,0-7.42,2.92,11.85,11.85,0,0,0-5.71,7.12c-.42,1.83-.27,3.82-1.09,5.51-1.78,3.64-6.75,3.9-10.8,4.06-2.51.1-5.73,1.12-5.7,3.62,0,1.71,1.67,2.91,3.24,3.59a24.86,24.86,0,0,0,14.14,1.22A74.06,74.06,0,0,0,97.6,43.55C100.45,42.46,103.41,41.28,105.39,39Z"/><path class="cls-5" d="M43.14,49.36c2.4.36,5,.61,7.15-.45s3.65-3.92,2.39-6c-.9-1.47-2.74-2-4.42-2.42s-3.77-.85-5.36.06c-1.43.81-2.13,2.46-2.73,4a4,4,0,0,0-.34,3.05C40.36,48.8,41.85,49.16,43.14,49.36Z"/><path class="cls-5" d="M64,40.21c.52-.33,1.21-.47,1.56-1,.52-.78-.09-1.86-.89-2.35-1.9-1.19-4.59-.35-6,1.41a8.57,8.57,0,0,0-1.38,6.41,6,6,0,0,0,1.14,3.05,2.74,2.74,0,0,0,2.93,1c1.31-.85,1.38-2.7,1.3-4.26S62.66,41.06,64,40.21Z"/><path class="cls-5" d="M86.69,65.12c1.7-1.22,3.68-2,5.34-3.28s3-3.24,2.77-5.31c-.33-2.49-3-4.11-5.45-4.33s-4.95.58-7.41,1.08a31.85,31.85,0,0,1-12.57.07,31.18,31.18,0,0,0-6.68-1.05c-2.26.06-4.68,1-5.69,3.05-1.28,2.58.18,5.74,2.2,7.79S63.8,66.7,65.51,69c1.87,2.51,2.5,5.69,3.31,8.71s2,6.16,4.49,8,6.72,1.7,8.2-1c1.21-2.24.19-5-.12-7.48A13.22,13.22,0,0,1,86.69,65.12Z"/><path class="cls-5" d="M32.33,105.11A18.67,18.67,0,0,0,33.9,101a35.07,35.07,0,0,0,1-12.24,10.24,10.24,0,0,0-1.13-4.22,4.26,4.26,0,0,0-3.55-2.23c-2.45.05-3.89,2.63-5.45,4.52a13.35,13.35,0,0,1-10.93,4.65A55.17,55.17,0,0,0,32.33,105.11Z"/><path class="cls-5" d="M12.93,90.41h0Z"/><path class="cls-5" d="M49.2,63.52a2.88,2.88,0,0,0,3.53-1.27,5.27,5.27,0,0,0,.34-4c-.44-1.7-1.74-3.47-3.49-3.38a3.18,3.18,0,0,0-2.71,2.63,6.63,6.63,0,0,0,.67,3.94A4,4,0,0,0,49.2,63.52Z"/><path class="cls-5" d="M110,55a55.26,55.26,0,0,0-.84-9.52c-1.42.65-2.45,2.36-3,3.93-1.68,4.42-2.35,9.16-4,13.61s-4.4,8.82-8.77,10.6c-2.34,1-5.15,1.21-6.77,3.14-2.12,2.55-.95,6.37.31,9.43,1,2.42,2.1,5,4.24,6.48a7.25,7.25,0,0,0,2.74,1.18A54.79,54.79,0,0,0,110,55Z"/><path class="cls-5" d="M35.39,28.68c-.91-.43-2.15-.68-2.83.07a2.51,2.51,0,0,0-.49,1.34,9.07,9.07,0,0,0,.46,5.34,4.13,4.13,0,0,0,4.4,2.43c2-.48,3-2.91,2.52-4.87A7.08,7.08,0,0,0,35.39,28.68Z"/><path class="cls-5" d="M13,90.41l4.29-.57A4.92,4.92,0,0,0,13,90.41Z"/><path class="cls-5" d="M23.74,21.19a2.53,2.53,0,1,0,2.49,4.39,2.53,2.53,0,0,0-2.49-4.39Z"/><path class="cls-5" d="M20.1,25H16.82a.51.51,0,0,1,0-1H20.1a.51.51,0,1,1,0,1Z"/><path class="cls-5" d="M22.53,20.59a.5.5,0,0,1-.49-.35,4.82,4.82,0,0,0-1.92-2.52A.5.5,0,0,1,20,17a.51.51,0,0,1,.7-.14A5.86,5.86,0,0,1,23,19.93a.52.52,0,0,1-.33.64Z"/><path class="cls-5" d="M31.58,23.86H29.39a.51.51,0,0,1-.5-.51.5.5,0,0,1,.5-.5h2.19a.5.5,0,0,1,.51.5A.51.51,0,0,1,31.58,23.86Z"/><path class="cls-5" d="M40.86,53.64a.49.49,0,0,1-.32-.12.51.51,0,0,1-.06-.71l1.12-1.35a.5.5,0,0,1,.77.65l-1.12,1.34A.48.48,0,0,1,40.86,53.64Z"/><path class="cls-5" d="M44.15,59.67a.43.43,0,0,1-.19,0l-1.36-.54a.52.52,0,0,1-.29-.66.5.5,0,0,1,.66-.28l1.37.54a.51.51,0,0,1-.19,1Z"/><path class="cls-5" d="M26.93,30.69a.51.51,0,0,1-.5-.51V28a.51.51,0,1,1,1,0v2.18A.51.51,0,0,1,26.93,30.69Z"/><path class="cls-5" d="M25.07,18.44l.27-2.19Z"/><path class="cls-5" d="M34.59,64.58l-.12,0A.51.51,0,0,1,34.1,64l.55-2.19a.51.51,0,1,1,1,.25l-.54,2.18A.52.52,0,0,1,34.59,64.58Z"/><path class="cls-5" d="M35.43,52.81a.49.49,0,0,1-.44-.26l-.48-.86a.5.5,0,0,1,.2-.68.51.51,0,0,1,.69.19l.47.86a.5.5,0,0,1-.44.75Z"/><path class="cls-5" d="M40.28,64.72a.5.5,0,0,1-.49-.38l-.54-2a.51.51,0,1,1,1-.26l.54,2a.5.5,0,0,1-.36.62A.32.32,0,0,1,40.28,64.72Z"/><path class="cls-6" d="M27.2,22.82a1.23,1.23,0,0,0,0-.19,1.71,1.71,0,0,0-.17-.39,2.62,2.62,0,0,0-3.27-1,2.34,2.34,0,0,0-1.12,1.16,1,1,0,0,0,0,.24A2.79,2.79,0,0,1,27.2,22.82Z"/><path class="cls-7" d="M50.75,61.65a2.37,2.37,0,0,0,.18-4.46,2.37,2.37,0,1,0-.18,4.46Z"/><path class="cls-7" d="M78.51,24.31c-1.38-.1-2.43,1.11-3.39,2.11A16.57,16.57,0,0,1,71,29.55a6.44,6.44,0,0,0-1.77,1.18,1.72,1.72,0,0,0-.32,2,2.42,2.42,0,0,0,2.13.76,14,14,0,0,0,6.39-1.1,5.84,5.84,0,0,0,3.43-5.16A2.89,2.89,0,0,0,78.51,24.31Z"/><path class="cls-7" d="M37.73,92.46c-.31,1.81-.59,3.61-.86,5.42a1.73,1.73,0,0,0,.23,1.45c.46.47,1.27.24,1.85-.08a11,11,0,0,0,4.58-4.71,6,6,0,0,0,.61-4.44,3.2,3.2,0,0,0-3.5-2.29C38.74,88.24,38.05,90.54,37.73,92.46Z"/><path class="cls-7" d="M63.76,38.54A3.93,3.93,0,0,0,61.42,46,11.93,11.93,0,0,1,63.76,38.54Z"/><path class="cls-7" d="M39.45,33a7.08,7.08,0,0,0-4.06-4.31c-.91-.43-2.15-.68-2.83.07a2.51,2.51,0,0,0-.49,1.34c-.06.39-.11.79-.14,1.19a6.89,6.89,0,0,1,7.64,2.5A5,5,0,0,0,39.45,33Z"/><path class="cls-7" d="M37.4,71.86c.45,1,1.5,1.45,2.15,2.28,1,1.22.91,2.91,1,4.45S40.41,80.4,41.86,81c-.46-2.94.58-4.49,1.45-7.34a17.49,17.49,0,0,0,.85-3.07,3.81,3.81,0,0,0-.75-3,3.17,3.17,0,0,0-3.29-.79,4.45,4.45,0,0,0-2.54,2.37A3.22,3.22,0,0,0,37.4,71.86Z"/><path class="cls-7" d="M52.68,42.92c-.9-1.47-2.74-2-4.42-2.42s-3.77-.85-5.36.06a5.79,5.79,0,0,0-2.26,2.85,9.59,9.59,0,0,1,6.15-1.61A13.92,13.92,0,0,1,53.08,44,3.31,3.31,0,0,0,52.68,42.92Z"/><path class="cls-7" d="M93.15,64.88a1.49,1.49,0,1,0,.46-.25Z"/><path class="cls-7" d="M88.64,72a2.18,2.18,0,0,0,4,.65,2.18,2.18,0,1,0-4-.65Z"/><path class="cls-7" d="M67.31,51.12a3.29,3.29,0,0,0,.22-3.25,1.94,1.94,0,1,0-.22,3.25Z"/><path class="cls-7" d="M54.09,64.55a1.77,1.77,0,0,0,1.46,2,1.7,1.7,0,1,0-1.46-2Z"/><path class="cls-5" d="M28.46,78a1.33,1.33,0,0,0-.18,1.32,1.58,1.58,0,0,0,1,.55L35,81.26a3.22,3.22,0,0,0,.33-3.82,3.73,3.73,0,0,0-3.53-1.66A4.51,4.51,0,0,0,28.46,78Z"/><path class="cls-5" d="M62,70.25A1,1,0,1,0,61,70.1,1,1,0,0,0,62,70.25Z"/><path class="cls-5" d="M80.64,89.32A3.65,3.65,0,0,0,83,92.77,2.82,2.82,0,0,0,86.51,91a3,3,0,0,0-.38-2.22A3.67,3.67,0,0,0,82,87.13C80.48,87.61,80.64,87.73,80.64,89.32Z"/><path class="cls-5" d="M86.36,14.15a2.23,2.23,0,0,0-1.45.78,2.49,2.49,0,0,0-.53,1.31,3.41,3.41,0,0,0,1.35,3,2.9,2.9,0,0,0,3.51.24A2.54,2.54,0,0,0,90,16.93a3.75,3.75,0,0,0-1.61-2.18A3.1,3.1,0,0,0,86.36,14.15Z"/><path class="cls-7" d="M81.83,18.37a1.14,1.14,0,0,0-.3-1.34,3.22,3.22,0,0,0-1.34-.61c-.65-.17-1.53-.21-1.8.4a1,1,0,0,0,.25,1.06,3,3,0,0,0,1,.61,3.49,3.49,0,0,0,1.16.37A1.15,1.15,0,0,0,81.83,18.37Z"/><path class="cls-7" d="M84.67,23.47a1.09,1.09,0,0,0,1.21.08,1.07,1.07,0,1,0-1.59-1.18A1.1,1.1,0,0,0,84.67,23.47Z"/><path class="cls-7" d="M41.82,34.74a1.7,1.7,0,0,0-.3,2.73,1.61,1.61,0,1,0,.3-2.73Z"/><path class="cls-5" d="M3,37a55.1,55.1,0,0,0,6.3,48.61,33.91,33.91,0,0,0,7.06-3.11,48.51,48.51,0,0,0,9.47-6.18,16.25,16.25,0,0,0,5.54-9.62c.64-4.78-1.38-10.44,1.89-14,1.44-1.57,3.65-2.3,4.79-4.25a3.07,3.07,0,0,0,.36-2.36c-.7-2.37-3.78-2.18-5.8-3.3-1.73-1-2.63-2.9-3.33-4.75s-1.36-3.82-2.86-5.12-4.13-1.49-5.24.14l0-.3a5.3,5.3,0,0,0-4.63-4.37,6.58,6.58,0,0,1-3.72-1.86,10.2,10.2,0,0,1-2.27-3.88,53.94,53.94,0,0,0-3.87,6.08A55.41,55.41,0,0,0,3,37Z"/><path class="cls-7" d="M50.91,67.93a.48.48,0,0,1-.39-.19.49.49,0,0,1,.09-.68l1.6-1.21a.49.49,0,0,1,.68.09.5.5,0,0,1-.09.69l-1.6,1.21A.52.52,0,0,1,50.91,67.93Z"/><path class="cls-7" d="M58.56,68.38a.5.5,0,0,1-.44-.27l-.6-1.2a.49.49,0,0,1,.87-.43l.6,1.2a.48.48,0,0,1-.22.65A.41.41,0,0,1,58.56,68.38Z"/><path class="cls-7" d="M57.56,63h-.1a.49.49,0,0,1-.37-.35.89.89,0,0,1,.54-1l.35-.43a.49.49,0,0,1,.47-.17.5.5,0,0,1,.38.35.89.89,0,0,1-.55,1l-.34.43A.5.5,0,0,1,57.56,63Z"/><path class="cls-7" d="M85.85,74.71a.49.49,0,0,1-.44-.29.48.48,0,0,1,.25-.64l1.56-.69a.48.48,0,0,1,.64.25.48.48,0,0,1-.25.64l-1.56.69A.45.45,0,0,1,85.85,74.71Z"/><path class="cls-7" d="M87.78,70a.46.46,0,0,1-.4-.21L87,69.26a1.25,1.25,0,0,1-.53-.85.49.49,0,0,1,.89-.36l.35.52a1.22,1.22,0,0,1,.49.71.48.48,0,0,1,.07.24.5.5,0,0,1-.5.48Z"/><path class="cls-7" d="M92.81,69.78a.44.44,0,0,1-.22,0,.48.48,0,0,1-.21-.65,2.49,2.49,0,0,1,1.5-1.25.49.49,0,0,1,.28.93,1.53,1.53,0,0,0-.91.76A.49.49,0,0,1,92.81,69.78Z"/><path class="cls-7" d="M89,77.59h-.06a.49.49,0,0,1-.43-.54l.2-1.8a.48.48,0,0,1,.53-.43.5.5,0,0,1,.44.54l-.2,1.8A.49.49,0,0,1,89,77.59Z"/><path class="cls-5" d="M45.91,85.18a1.27,1.27,0,0,0,0,2.11,1.79,1.79,0,0,0,2.27-.54,3,3,0,0,0,.41-2.46,1.52,1.52,0,0,0-2.44.59Z"/><path class="cls-7" d="M73.87,59.81c2.32-2.3,5.77-3.05,9-3.19a6.66,6.66,0,0,1,3.78.65,2.67,2.67,0,0,1,1.21,3.32A13.57,13.57,0,0,0,77.93,77a6.36,6.36,0,0,1,.35,2.54c-.15.85-.93,1.67-1.77,1.5-.68-.14-1.09-.83-1.41-1.44-1.63-3.15-3.29-6.36-3.86-9.86S71.36,62.31,73.87,59.81Z"/><path class="cls-8" d="M11.55,21.41a45.46,45.46,0,1,1-2.7,3.82,55.06,55.06,0,1,0,2.7-3.82Z"/><path class="cls-9" d="M85.24,83.82a57.27,57.27,0,0,1-67.13,12,55.13,55.13,0,0,0,77-3.1,54.24,54.24,0,0,0-2.46-77c-.24-.22-.5-.43-.74-.66A56.32,56.32,0,0,1,85.24,83.82Z"/><path class="cls-7" d="M21.05,98.25c1.6-2.76,1.09-6.52-.79-9.16-2-2.87-5.35-4.58-8.73-5.56-1.35-.39-2.72-.67-4.1-.93A55.12,55.12,0,0,0,21.05,98.25Z"/><path class="cls-7" d="M12,73.8c5.31-1.61,9.33-6,12.37-10.62,1.88-2.88,3.53-6.07,3.69-9.51.26-5.72-3.71-10.92-8.57-13.94C16.93,38.13,14.06,37,11.73,35s-4.09-5-3.4-7.91a16.05,16.05,0,0,0-1.31,1l-.36.63A54.78,54.78,0,0,0,0,55,54.84,54.84,0,0,0,3.11,73.25,13.16,13.16,0,0,0,12,73.8Z"/><path class="cls-7" d="M100.85,31.19A15.57,15.57,0,0,1,95,41.37c-1.93,1.48-4.23,2.53-5.84,4.35s-2.26,4.89-.52,6.6c1.36,1.33,3.74,1.4,4.79,3,.68,1,.57,2.41,1,3.57a5,5,0,0,0,4.26,2.95,9.88,9.88,0,0,0,5.24-1.2,19.82,19.82,0,0,0,6-4.56c0-.36,0-.71,0-1.06a54.71,54.71,0,0,0-7.94-28.47C101.2,27.74,101.06,29.61,100.85,31.19Z"/><path class="cls-7" d="M42.57,105.7a4.67,4.67,0,0,0-1.4,2.54c1.09.29,2.2.53,3.31.74Z"/><path class="cls-7" d="M94.21,93.56a4,4,0,0,0-1.81-1.08c-2-.53-4,.46-5.6,1.72S83.83,97,82,98c-3.87,2-8.53.59-12.69-.68S60.28,95,56.8,97.64c-2.41,1.8-3.45,4.84-4.76,7.55a12.62,12.62,0,0,1-3.31,4.44A54.13,54.13,0,0,0,55,110,54.86,54.86,0,0,0,94.21,93.56Z"/><path class="cls-10" d="M6.66,28.75A54.78,54.78,0,0,0,0,55,54.67,54.67,0,0,0,4.93,77.75C24.59,83,44.74,76.49,59.66,60.67,75,44.41,80.51,22.62,73.23,3.13A54.78,54.78,0,0,0,55,0,55.5,55.5,0,0,0,6.66,28.75Z"/><g class="cls-11"><path class="cls-12" d="M17.38,18.1c13.87-13.32,36-15.91,47.66-4S66.1,36.82,52.83,53.3C41.94,66.83,23.21,78.15,11.59,66.22S3.51,31.43,17.38,18.1Z"/></g><path class="cls-13" d="M88.08,11.08A55.59,55.59,0,0,0,64.33.82h0C63.77.73,63.24.64,62.7.57L61.24.38,60,.26C59.4.2,58.78.15,58.15.11l-.43,0C56.84,0,56,0,55.07,0h-.15A54.72,54.72,0,0,0,33.25,4.57,54.35,54.35,0,0,1,78.64,7.13a53.73,53.73,0,0,1,22.27,73,54.48,54.48,0,0,1-73.45,22.26q-2.27-1.22-4.37-2.6a55.06,55.06,0,0,0,12,6.51,55.46,55.46,0,0,0,68.35-25.53,54.48,54.48,0,0,0,6.27-20.64c0-.47.08-.94.11-1.42s.06-.7.07-1.05c0-.88.07-1.76.07-2.64A54.91,54.91,0,0,0,88.08,11.08Z"/></g></g></g></svg>