<svg xmlns="http://www.w3.org/2000/svg" xmlns:xlink="http://www.w3.org/1999/xlink" viewBox="0 0 110 110"><defs><style>.cls-1{mask:url(#mask);filter:url(#luminosity-noclip-2);}.cls-2{mix-blend-mode:multiply;fill:url(#radial-gradient);}.cls-3{isolation:isolate;}.cls-4{fill:#b2c3a5;}.cls-5{fill:#c8dcbe;}.cls-6{fill:#d5e3cc;}.cls-10,.cls-7{fill:#987671;}.cls-8{fill:#e2e9ff;}.cls-9{fill:#dee1d0;}.cls-10{opacity:0.33;}.cls-11{fill:#85625c;opacity:0.74;}.cls-12,.cls-15{fill:#fff;}.cls-12{opacity:0.15;}.cls-13{mask:url(#mask-2);}.cls-14{opacity:0.49;fill:url(#Áåçûìÿííûé_ãðàäèåíò_883);}.cls-15{opacity:0.24;mix-blend-mode:screen;}.cls-16{filter:url(#luminosity-noclip);}</style><filter id="luminosity-noclip" x="4.61" y="-8128.01" width="65.43" height="32766" filterUnits="userSpaceOnUse" color-interpolation-filters="sRGB"><feFlood flood-color="#fff" result="bg"/><feBlend in="SourceGraphic" in2="bg"/></filter><mask id="mask" x="4.61" y="-8128.01" width="65.43" height="32766" maskUnits="userSpaceOnUse"><g class="cls-16"/></mask><radialGradient id="radial-gradient" cx="633.65" cy="-1079.39" r="59.65" gradientTransform="matrix(0.03, -0.89, 0.91, -0.16, 989.19, 411.81)" gradientUnits="userSpaceOnUse"><stop offset="0" stop-color="#fff"/><stop offset="0.77"/></radialGradient><filter id="luminosity-noclip-2" x="4.61" y="7.11" width="65.43" height="64.78" filterUnits="userSpaceOnUse" color-interpolation-filters="sRGB"><feFlood flood-color="#fff" result="bg"/><feBlend in="SourceGraphic" in2="bg"/></filter><mask id="mask-2" x="4.61" y="7.11" width="65.43" height="64.78" maskUnits="userSpaceOnUse"><g class="cls-1"><path class="cls-2" d="M17.38,18.73c13.87-13.32,36-15.91,47.66-4S66.1,37.46,52.83,53.94C41.94,67.47,23.21,78.79,11.59,66.86S3.51,32.06,17.38,18.73Z"/></g></mask><radialGradient id="Áåçûìÿííûé_ãðàäèåíò_883" cx="633.65" cy="-1079.39" r="59.65" gradientTransform="matrix(0.03, -0.89, 0.91, -0.16, 989.19, 411.81)" gradientUnits="userSpaceOnUse"><stop offset="0" stop-color="#fff"/><stop offset="0.77" stop-color="#f3f9f7"/></radialGradient></defs><title>star07</title><g class="cls-3"><g id="Layer_2" data-name="Layer 2"><g id="Layer_1-2" data-name="Layer 1"><circle class="cls-4" cx="55" cy="55" r="55"/><path class="cls-5" d="M41.71,2.13a55.09,55.09,0,0,0-38,33.52C6.46,39.9,11.51,42.73,16.5,42c3.68-.53,6.91-2.77,10.56-3.46s7.41.21,11.05-.42,7.39-4,6.3-7.49c-.57-1.85-2.25-3.09-3.51-4.56A11.49,11.49,0,0,1,40.67,12c-2.16-2.82-1.3-7.09,1-9.8C41.68,2.16,41.69,2.14,41.71,2.13Z"/><path class="cls-6" d="M54.73,70.32C53.37,69.77,53,68,53.17,66.56s.73-2.91.47-4.35-1.85-2.79-3.12-2.07a8.34,8.34,0,0,0-4.93-10.06A8.34,8.34,0,0,0,35.4,54.74c-.52,1.33-.67,2.79-1.27,4.09s-1.83,2.49-3.25,2.35a45,45,0,0,0-4.45,11.26c-.67,3.5-1.35,7.11-.62,10.6.87,4.2,3.63,7.7,6.09,11.22s4.77,7.5,4.49,11.78c-1-3,2.78-5.89,5.83-6.82s6.33-.33,9.51-.15,6.74-.22,8.87-2.6c.89-1,1.47-2.26,2.51-3.08s2.62-1.1,4-1.57c4.61-1.61,7.48-6.12,10-10.32s5.06-9.06,3.44-13.63c-1.7-4.85-8.51-7-12.67-4a43,43,0,0,0-9-1.5c-2.32-.14-5.2.3-6,2.49C52.34,66.43,55.47,68.86,54.73,70.32Z"/><path class="cls-7" d="M25.61,83c-1.19-4,.38-8.23,1.93-12.1.35-.9.71-1.79,1.07-2.68a3.57,3.57,0,0,0-5.11-4.41,18.22,18.22,0,0,1-7.7,2.57c-4.86.4-10.32-1.4-14.24,1.66a55.08,55.08,0,0,0,33.26,38.16,19.64,19.64,0,0,0-3-14C29.71,89.09,26.68,86.52,25.61,83Z"/><path class="cls-7" d="M55,110a55,55,0,0,0,48.4-28.86,13,13,0,0,0-4-1.64,8.76,8.76,0,0,0-7.13,1.37c-2.82,2.15-4,6.34-7.31,7.54-4.27,1.55-9.34-2.88-13.29-.63-2.11,1.21-3.09,4-5.39,4.79-1.62.54-3.66,0-4.88,1.16A10.31,10.31,0,0,0,60.1,96.3a5.88,5.88,0,0,1-4.49,2.5c-1.77.21-3.56,0-5.33.21a15.79,15.79,0,0,0-8.84,4.51,30.54,30.54,0,0,0-3.35,3.82A55,55,0,0,0,55,110Z"/><path class="cls-5" d="M11.07,40.68l1.64,1.66.82.83a1.62,1.62,0,0,0,.85.3c.87.21,1.24-1.13.37-1.33-.55-.13-.83-.55-1.22-.94l-1.48-1.49A.69.69,0,0,0,11.07,40.68Z"/><path class="cls-5" d="M42.39,15.62a1.51,1.51,0,0,1,1.31-.29l-.42-1c-.09.15-.19.13-.34.07l.5.67v-.86l-.2.49-.46,0c.68.56,1.67-.42,1-1a1.07,1.07,0,0,0-1.3-.14c-.54.31-.4,1-.4,1.53a.71.71,0,0,0,.51.67A1.57,1.57,0,0,0,44.48,15a.7.7,0,0,0-.41-1,2.83,2.83,0,0,0-2.38.44C41,15,41.67,16.15,42.39,15.62Z"/><path class="cls-5" d="M46.93,8.86v.22a.7.7,0,0,0,1.39,0V8.86A.7.7,0,0,0,46.93,8.86Z"/><path class="cls-5" d="M46.74,15.77a.7.7,0,0,0,0-1.39A.7.7,0,0,0,46.74,15.77Z"/><path class="cls-5" d="M48.9,104.44a1.13,1.13,0,1,0,2.21-.15.61.61,0,0,0-.82,0Z"/><path class="cls-5" d="M50,105.85a1.34,1.34,0,0,1-1.27-1.42l.28,0a1,1,0,0,0,.28.78.93.93,0,0,0,.77.33,1,1,0,0,0,.71-.43,1,1,0,0,0,.18-.77.47.47,0,0,0-.6,0l-.19-.21a.77.77,0,0,1,1,0l0,.06a1.33,1.33,0,0,1-1.14,1.59Z"/><path class="cls-5" d="M55.39,104.93v0Z"/><path class="cls-8" d="M42.31,66a10.17,10.17,0,0,1,2.54,2.49c2.2,2.37,5.55,3.24,8.74,3.71s6.52.7,9.39,2.18,5.2,4.65,4.48,7.79a7.53,7.53,0,0,1-4,4.63A35.78,35.78,0,0,1,57.61,89a40.27,40.27,0,0,0-18.92,13.24c1.77-4.11-1.29-8.52-3.12-12.6a24,24,0,0,1,0-19.44,9,9,0,0,1,2.55-3.55A4,4,0,0,1,42.31,66Z"/><path class="cls-5" d="M38.79,36.55c-3.06-1-6.3.42-9.42,1.23s-7.11.66-8.68-2.15.23-6,2.42-8.12,5-3.76,6.35-6.47a18,18,0,0,0,1.39-6A11.66,11.66,0,0,1,32.8,9.14c1.29-1.64,3.72-2.56,5.52-1.53-1.31,1-.4,3.28,1.08,4.05s3.24.72,4.78,1.34S47,15.56,46,16.9a3.81,3.81,0,0,0-5.33,2,3.81,3.81,0,0,0,3.06,4.78,6.34,6.34,0,0,0,3.79-1.14,14.49,14.49,0,0,1,3.57-1.82,3.41,3.41,0,0,1,3.63,1c.78,1.09.14,3-1.2,3.07,1.2-.14,1.94,1.5,1.45,2.6a4.91,4.91,0,0,1-2.78,2.16,5.91,5.91,0,0,0-2.95,2c-1.26,2,.21,5-1.28,6.79-1.08,1.3-3.14,1.23-4.69.56S40.4,37.06,38.79,36.55Z"/><path class="cls-9" d="M70.33,2.09c1.89,4,3.61,8.14,3.74,12.54.15,5-2.39,10.53-7.16,12.18a13.42,13.42,0,0,0-3.53,1.34c-1,.75-1.56,2.38-.66,3.26l4.58,3.91a8.39,8.39,0,0,0-5,4c-.93,2-.36,4.78,1.63,5.74a4.1,4.1,0,0,0,4.38-.79A6.06,6.06,0,0,0,70.08,40c.1-1.94-.25-4.43,1.48-5.31a2.84,2.84,0,0,1,3.55,1.47,7.89,7.89,0,0,1,.53,4.18A9.18,9.18,0,0,0,76,44.58c.59,1.39,1.91,2.58,1.76,4.07s-1.43,2.26-2,3.49a4.57,4.57,0,0,0,.58,4.26,13.51,13.51,0,0,0,3.2,3.11c1.7,1.32,4,2.68,5.84,1.52,2.06-1.33,1.35-4.48,2.11-6.81a5.12,5.12,0,0,1,9.21-1.13c1.51-1.4,4-1,5.75,0s3.3,2.53,5.22,3.25a7.22,7.22,0,0,0,2.13.44c0-.64.05-1.29.05-1.94A55,55,0,0,0,70.33,2.09Z"/><path class="cls-5" d="M84.16,8.87a12.62,12.62,0,0,1,2.94,10c-.59,3.85-2.95,7.9-1.17,11.37,1.58,3.09,5.56,3.87,8.37,5.91,2.45,1.77,4,4.52,6.07,6.72s5.31,3.88,8.08,2.67a5.39,5.39,0,0,0,.58-.32A55.08,55.08,0,0,0,84.16,8.87Z"/><path class="cls-7" d="M1,46.73A32.62,32.62,0,0,0,3.45,58C4,59.4,4.79,60.83,6.17,61.36c1.61.63,3.84-.07,4.89,1.31.51.66.51,1.58.88,2.34s1.53,1.26,2,.56a3.06,3.06,0,0,1,2.69-3.08c-.54.58.51,1.44,1.25,1.17s1.19-1,1.84-1.46c1.7-1.11,4,.34,5,2.1A8.63,8.63,0,0,1,25,72c-1.7,3.75-6.15,5.81-10.23,5.33a14.39,14.39,0,0,1-10-6.62A25.49,25.49,0,0,1,1.18,59.06C.79,55,1,50.84,1,46.73Z"/><path class="cls-7" d="M86.72,78.73c.36-1.73,2.09-1.64,3.35-1.17,1,.36,2.05.9,3.08.63,1.61-.42,2.11-2.43,3.25-3.64s3.13-1.57,4.81-2.15,5-2.72,4.9-4.49C103.52,80,92,90.93,80,93.77a12.37,12.37,0,0,1-1.28-4.87c0-.07,0-.13,0-.2a2.66,2.66,0,0,1,4-2.08,3.33,3.33,0,0,0,3.07.07A4.19,4.19,0,0,0,87.23,81,3.21,3.21,0,0,1,86.72,78.73Z"/><path class="cls-9" d="M21.31,49.66a5.3,5.3,0,0,0,5.24-3,4,4,0,0,0-.09-4.32A3.58,3.58,0,0,0,22,41.9a7,7,0,0,0-2.77,4A3.52,3.52,0,0,0,19,47.93,2.75,2.75,0,0,0,21.31,49.66Z"/><path class="cls-9" d="M63.68,12.5a6.42,6.42,0,0,0-6.85,4.29c-.52,1.66,0,3.86,1.59,4.43,1.41.49,2.9-.43,4-1.43a19.41,19.41,0,0,0,2.62-3c.65-.91,1.23-2.09.74-3.08A2.7,2.7,0,0,0,63.68,12.5Z"/><path class="cls-9" d="M39.68,42.79c-.33-1.24-2-1.39-3.27-1.28l-5.8.48c-.5,1.3.52,2.78,1.81,3.29a8,8,0,0,0,4.13.11,5.4,5.4,0,0,0,2.2-.65A1.87,1.87,0,0,0,39.68,42.79Z"/><path class="cls-9" d="M83.42,70.52c-.14.7-.51,1.45-.21,2.1a1.58,1.58,0,0,0,2.39.27,4.58,4.58,0,0,0,1.23-2.45,5.78,5.78,0,0,0,.24-3A2,2,0,0,0,84.82,66a2.24,2.24,0,0,0-1.29,2A23.6,23.6,0,0,1,83.42,70.52Z"/><path class="cls-9" d="M90.91,54.51a2,2,0,0,0,2.63,1.94,1.63,1.63,0,1,0-2.63-1.94Z"/><path class="cls-9" d="M20.35,59.29a2.2,2.2,0,0,0,2.35-.24,1.73,1.73,0,1,0-2.28-2.6A2.1,2.1,0,0,0,20.35,59.29Z"/><path class="cls-10" d="M13.53,19a45.4,45.4,0,1,1-2.92,3.66A55.1,55.1,0,1,0,13.53,19Z"/><path class="cls-11" d="M18.74,96.33A55,55,0,0,0,92.35,14.64,57.67,57.67,0,0,1,85.43,84C67.91,102.74,40.75,106.75,18.74,96.33Z"/><path class="cls-12" d="M20.11,12.49A55.41,55.41,0,0,0,0,55.13,54.78,54.78,0,0,0,5.33,78.64c19.77,5,40-1.58,55-17.48,15.35-16.29,21-38.07,14-57.66a55,55,0,0,0-54.22,9Z"/><g class="cls-13"><path class="cls-14" d="M17.38,18.73c13.87-13.32,36-15.91,47.66-4S66.1,37.46,52.83,53.94C41.94,67.47,23.21,78.79,11.59,66.86S3.51,32.06,17.38,18.73Z"/></g><path class="cls-15" d="M40.18,108A55,55,0,1,0,55,0,55.5,55.5,0,0,0,43.46,1.22,54.51,54.51,0,0,1,101.21,80.5,55,55,0,0,1,40.18,108Z"/></g></g></g></svg>