<svg xmlns="http://www.w3.org/2000/svg" xmlns:xlink="http://www.w3.org/1999/xlink" viewBox="0 0 110 110"><defs><style>.cls-1{mask:url(#mask);filter:url(#luminosity-noclip-2);}.cls-2,.cls-6{mix-blend-mode:multiply;}.cls-2{fill:url(#radial-gradient);}.cls-3{isolation:isolate;}.cls-4{fill:#2760fb;}.cls-5{fill:#0062bc;}.cls-6{fill:#296496;opacity:0.69;}.cls-7{fill:#fffae6;}.cls-8{fill:#2258b7;}.cls-9{fill:#055899;}.cls-10{fill:#0063b7;}.cls-11{fill:#325eb5;}.cls-12{fill:#4c89d2;}.cls-13,.cls-16{fill:#fff;}.cls-13{opacity:0.15;}.cls-14{mask:url(#mask-2);}.cls-15{opacity:0.39;fill:url(#Áåçûìÿííûé_ãðàäèåíò_886);}.cls-16{opacity:0.24;mix-blend-mode:screen;}.cls-17{filter:url(#luminosity-noclip);}</style><filter id="luminosity-noclip" x="4.61" y="-8270.68" width="65.43" height="32766" filterUnits="userSpaceOnUse" color-interpolation-filters="sRGB"><feFlood flood-color="#fff" result="bg"/><feBlend in="SourceGraphic" in2="bg"/></filter><mask id="mask" x="4.61" y="-8270.68" width="65.43" height="32766" maskUnits="userSpaceOnUse"><g class="cls-17"/></mask><radialGradient id="radial-gradient" cx="620.73" cy="-780.44" r="59.65" gradientTransform="matrix(0.03, -0.89, 0.91, -0.16, 717.04, 448.2)" gradientUnits="userSpaceOnUse"><stop offset="0.23" stop-color="#f4f4f4"/><stop offset="1"/></radialGradient><filter id="luminosity-noclip-2" x="4.61" y="6.47" width="65.43" height="64.78" filterUnits="userSpaceOnUse" color-interpolation-filters="sRGB"><feFlood flood-color="#fff" result="bg"/><feBlend in="SourceGraphic" in2="bg"/></filter><mask id="mask-2" x="4.61" y="6.47" width="65.43" height="64.78" maskUnits="userSpaceOnUse"><g class="cls-1"><path class="cls-2" d="M17.38,18.09c13.87-13.33,36-15.92,47.66-4S66.1,36.82,52.83,53.29C41.94,66.83,23.21,78.15,11.59,66.22S3.51,31.42,17.38,18.09Z"/></g></mask><radialGradient id="Áåçûìÿííûé_ãðàäèåíò_886" cx="620.73" cy="-780.44" r="59.65" gradientTransform="matrix(0.03, -0.89, 0.91, -0.16, 717.04, 448.2)" gradientUnits="userSpaceOnUse"><stop offset="0.23" stop-color="#fff"/><stop offset="1" stop-color="#f3f9f7"/></radialGradient></defs><title>star06</title><g class="cls-3"><g id="Layer_2" data-name="Layer 2"><g id="Layer_1-2" data-name="Layer 1"><circle class="cls-4" cx="55" cy="55" r="55"/><path class="cls-5" d="M13.53,19a45.4,45.4,0,1,1-2.92,3.66A55.1,55.1,0,1,0,13.53,19Z"/><path class="cls-6" d="M85.12,83.69a57.1,57.1,0,0,1-67.24,12,55,55,0,0,0,74.56-81c-.25-.22-.34,0-.59-.22A57.29,57.29,0,0,1,85.12,83.69Z"/><path class="cls-7" d="M102.39,48.49h-.2a.35.35,0,0,0,0,.69h.2A.35.35,0,0,0,102.39,48.49Z"/><path class="cls-8" d="M48.21,8A23.51,23.51,0,0,0,52.36.07,54.94,54.94,0,0,0,6.91,28.32,51.93,51.93,0,0,0,48.21,8Z"/><path class="cls-9" d="M53.12,102.91a43.42,43.42,0,0,0-12.43,5.2,55,55,0,0,0,61.52-24.89A52.76,52.76,0,0,1,79.76,97.46C71.11,100.2,61.9,100.65,53.12,102.91Z"/><path class="cls-9" d="M86.31,78.18C75.9,82.93,64.19,86.47,55.68,94.11c-3.61,3.25-9.12,2.63-14,2.25a80.55,80.55,0,0,0-21.53,1.22,55.22,55.22,0,0,0,9,6,143.18,143.18,0,0,0,21.79-5c11.19-3.74,21.47-9.72,31.67-15.65l24.08-14c.58-.34,1.17-.68,1.75-1,.29-1.21.54-2.43.75-3.67C102.74,70.24,94.47,74.45,86.31,78.18Z"/><path class="cls-8" d="M23.45,41.17c4.31-2.62,8.09-6.1,12.58-8.39,4-2,8.35-3.07,12.31-5.09,8-4.07,14.95-11.81,16.34-20.63a.53.53,0,0,0-.94-.41c-5.92,7.29-14.29,11.56-20.46,18.81-1.64,1.92-4.42,2.32-6.94,2.33s-5.17-.2-7.42.92a3,3,0,0,0-1.8,2c-.16.93.37,1.83.5,2.76.32,2.26-1.83,4.26-4.07,4.64s-3.9-.81-6-1.71c-1.58-.68-3.28,1.14-4.07,2.34a3.31,3.31,0,0,1-1.94,1.42c-2.7.69-3.27-2.81-5.38-3.6A4.23,4.23,0,0,0,3,37,54.77,54.77,0,0,0,.44,48.18C8.55,47.16,16.51,45.37,23.45,41.17Z"/><path class="cls-10" d="M15.48,84.33C20,82.64,24,80,28.61,78.63a30.54,30.54,0,0,0,5.89-1.85c2.91-.42,5.82-.85,8.71-1.44,15-3,28.73-10.22,41.73-18.58a2.78,2.78,0,0,0,2,1.9c1.73.38,3.24-1.21,4.1-2.76s1.62-3.38,3.26-4c2.06-.83,4.66.54,6.5-.69,1.3-.86,1.59-2.6,2.21-4,1-2.4,3.18-4.09,5.09-5.87l.17-.18a54.33,54.33,0,0,0-4.46-11.53C97.57,39.81,85.27,45.28,77.08,54.29c-2.85,3.12-5.23,6.71-8.58,9.28-4.82,3.69-11.07,4.85-17.08,5.63-9.45,1.22-19,1.78-28.29,4-1.7.4-3.4.86-5.08,1.39-4.83-.61-9.8-1.12-14.26.5A54.55,54.55,0,0,0,9.36,85.71,21.26,21.26,0,0,0,15.48,84.33Z"/><path class="cls-11" d="M26,58.52a56.23,56.23,0,0,1-24.59,9c.21.92.45,1.83.71,2.73a65.3,65.3,0,0,0,20.5-4.91c9-3.56,17.48-8.29,26.44-11.92C60.08,49,71.82,46.18,82,40.15c7.23-4.26,13.73-10.72,16.83-18.33a55.1,55.1,0,0,0-8.08-8.57A45.4,45.4,0,0,1,65.62,39.93c-8.08,3.33-17.08,4.27-24.82,8.33C35.49,51.05,31,55.19,26,58.52Z"/><path class="cls-8" d="M9.22,59.91c3.37-.85,7-.13,10.32-1.19,2.93-.94,5.23-3.18,7.42-5.34l3.8-3.74a1.22,1.22,0,0,0-1.28-2A260.93,260.93,0,0,1,.05,57.07a55.25,55.25,0,0,0,.73,7.1C3.57,62.68,6.15,60.68,9.22,59.91Z"/><path class="cls-9" d="M108.52,42.34c-1.42.63-2,2.2-2.6,3.62a43.3,43.3,0,0,1-26,24.65C72.45,73.13,64.48,73.53,56.76,75c-6.25,1.2-12.62,3.29-17.45,7.27a1.93,1.93,0,0,0,1.31,3.4c7.87-.35,15.48-4.45,23-7.37,8.94-3.46,18.43-5.36,27.31-9,7.36-3,14.5-7.49,19-13.89v0A55.28,55.28,0,0,0,108.52,42.34Z"/><path class="cls-8" d="M61.8,34.1a15.8,15.8,0,0,0,5.49-4.9,49.93,49.93,0,0,1,4.65-5.77,19.65,19.65,0,0,0,3-3.06,3.7,3.7,0,0,0,.3-4,3.37,3.37,0,0,0-4-.91,7.51,7.51,0,0,0-3.19,3,29.16,29.16,0,0,1-2.47,3.71c-1.87,2.09-4.63,3.09-7,4.62S54.1,31,54.75,33.68A6.92,6.92,0,0,0,61.8,34.1Z"/><path class="cls-12" d="M107.44,38.38c-.2.42-.42.87-.65,1.33s-.52,1-.79,1.46-.55,1-.87,1.58-.67,1.08-1,1.65-.71,1.14-1.1,1.71-.78,1.17-1.2,1.75c-.88,1.14-1.72,2.37-2.72,3.51s-2,2.3-3,3.44S93.9,57,92.75,58s-2.3,1.92-3.42,2.84c-.57.44-1.16.84-1.72,1.25s-1.12.8-1.68,1.15L84.3,64.26c-.52.33-1.06.61-1.56.9L81.3,66,80,66.68c-.84.43.63-.25,0,0a46.19,46.19,0,0,0-5.17,3.81l1.42-.61,2.12-.63c.67-.19,1.47-.49,2.39-.85l1.46-.56c.5-.21,1-.45,1.58-.71s1.12-.51,1.7-.82l1.77-1c.62-.33,1.22-.71,1.83-1.11s1.25-.79,1.88-1.22c1.22-.9,2.5-1.81,3.7-2.86S97,58,98.21,56.89s2.25-2.34,3.22-3.61,1.92-2.52,2.8-3.76c.41-.64.79-1.28,1.18-1.9a20.53,20.53,0,0,0,1.06-1.86,37.39,37.39,0,0,0,1.7-3.53l.21-.5C108.1,40.6,107.79,39.49,107.44,38.38Z"/><path class="cls-12" d="M47.93,43.34c-1.15.33-2.28.66-3.38,1s-2.15.67-3.19,1.11l-1.46.59-1.44.67c-.94.44-1.78.94-2.59,1.4a25,25,0,0,0-2.21,1.49,21.24,21.24,0,0,0-3.22,2.92l-1.05,1.22c-.27.38-.49.72-.66,1-.36.53-.54.82-.54.82l1.09.75.62-.68c.2-.22.45-.49.73-.82l1.08-1a17,17,0,0,1,1.43-1.14c.52-.42,1.14-.79,1.78-1.21s1.39-.78,2.13-1.22,1.6-.8,2.48-1.15l1.33-.55L42.33,48c1-.34,2-.62,3.07-1s2.17-.65,3.31-1S51,45.44,52.21,45c2.42-.8,4.72-1.76,7.18-2.82,1.2-.58,2.43-1.06,3.61-1.7l1.8-.88,1.76-1c1.21-.59,2.3-1.36,3.46-2,.57-.35,1.11-.75,1.66-1.12s1.12-.74,1.62-1.17c1-.84,2.09-1.62,3-2.53l1.43-1.32c.45-.46.9-.91,1.34-1.37a33.78,33.78,0,0,0,2.47-2.79,32.68,32.68,0,0,0,2.12-2.88,47.94,47.94,0,0,0,3.15-5.72,40.94,40.94,0,0,0,2-5.14c.1-.27.17-.53.25-.79L88,11c-.16.36-.34.72-.53,1.1-.66,1.44-1.52,3-2.49,4.68-.53.82-1,1.71-1.6,2.57S82.18,21.08,81.5,22c-1.31,1.77-2.69,3.65-4.29,5.46L76,28.79,74.7,30.1c-.85.92-1.82,1.72-2.75,2.59s-2,1.64-3,2.44-2.08,1.55-3.2,2.2l-1.67,1c-.58.3-1.17.57-1.75.86a29.59,29.59,0,0,1-3.57,1.44c-2.42.71-5,1.32-7.34,1.81C50.27,42.71,49.08,43,47.93,43.34Z"/><path class="cls-12" d="M0,55.09l.7,0H2c.46,0,1-.07,1.45-.13,1-.11,2.11-.26,3.26-.46a33.52,33.52,0,0,0,3.54-.85,37.54,37.54,0,0,0,3.69-1.19c1.24-.47,2.48-1,3.71-1.52s2.41-1.2,3.58-1.82,2.29-1.28,3.37-1.91,2.14-1.22,3.11-1.83l2.74-1.7c.85-.51,1.61-1,2.27-1.48L34.44,41l1.49-1-1.67.71-1.91.83c-.73.33-1.56.68-2.49,1l-3,1.13c-1,.42-2.21.71-3.37,1.09s-2.37.75-3.63,1-2.5.65-3.74,1-2.51.61-3.73,1-2.42.67-3.58,1l-1.7.51c-.55.19-1.09.35-1.61.51-1,.32-2,.66-2.94,1l-2.5,1C0,52.83,0,53.91,0,55Z"/><path class="cls-9" d="M31.54,88.28c-6.52-.72-13.39-1.17-19.48,1.07A55.66,55.66,0,0,0,22,99c4.07-2.18,8-4.91,12.48-5.91,3.27-.73,6.67-.48,10-.86s6.83-1.58,8.71-4.35C46.24,90.09,38.76,89.08,31.54,88.28Z"/><path class="cls-12" d="M80.26,75.65c-3.16,1.24-5.8,3.48-8.75,5.16s-6.57,2.76-9.7,1.46C66.79,77.9,73.72,76.69,80.26,75.65Z"/><path class="cls-13" d="M0,55A54.86,54.86,0,0,0,5,77.92c19.52,4.94,39.47-1.56,54.26-17.26C74.62,44.37,80.16,22.52,72.85,3A55,55,0,0,0,0,55Z"/><g class="cls-14"><path class="cls-15" d="M17.38,18.09c13.87-13.33,36-15.92,47.66-4S66.1,36.82,52.83,53.29C41.94,66.83,23.21,78.15,11.59,66.22S3.51,31.42,17.38,18.09Z"/></g><path class="cls-16" d="M31.4,104.74A55,55,0,1,0,40.91,1.83a54.23,54.23,0,0,1,60.43,78.41A55.13,55.13,0,0,1,31.4,104.74Z"/></g></g></g></svg>