<svg xmlns="http://www.w3.org/2000/svg" xmlns:xlink="http://www.w3.org/1999/xlink" viewBox="0 0 110 110"><defs><style>.cls-1{mask:url(#mask);filter:url(#luminosity-noclip-2);}.cls-2{mix-blend-mode:multiply;fill:url(#radial-gradient);}.cls-3{isolation:isolate;}.cls-4{fill:#ea490c;}.cls-5{fill:#d52b0c;}.cls-6{fill:#a6000a;}.cls-7{fill:#b4000c;}.cls-8{fill:#cc000c;}.cls-9{fill:#d40d00;}.cls-10{fill:#cb1c00;}.cls-11{fill:#e24100;}.cls-12{fill:#ff5900;}.cls-13,.cls-16{fill:#fff;}.cls-13{opacity:0.15;}.cls-14{mask:url(#mask-2);}.cls-15{opacity:0.49;fill:url(#Áåçûìÿííûé_ãðàäèåíò_883);}.cls-16{opacity:0.24;mix-blend-mode:screen;}.cls-17{filter:url(#luminosity-noclip);}</style><filter id="luminosity-noclip" x="4.6" y="-8270.71" width="65.43" height="32766" filterUnits="userSpaceOnUse" color-interpolation-filters="sRGB"><feFlood flood-color="#fff" result="bg"/><feBlend in="SourceGraphic" in2="bg"/></filter><mask id="mask" x="4.6" y="-8270.71" width="65.43" height="32766" maskUnits="userSpaceOnUse"><g class="cls-17"/></mask><radialGradient id="radial-gradient" cx="972.4" cy="-1103.12" r="59.65" gradientTransform="matrix(0.03, -0.89, 0.91, -0.16, 1001.26, 707.1)" gradientUnits="userSpaceOnUse"><stop offset="0" stop-color="#fff"/><stop offset="0.77"/></radialGradient><filter id="luminosity-noclip-2" x="4.6" y="6.44" width="65.43" height="64.78" filterUnits="userSpaceOnUse" color-interpolation-filters="sRGB"><feFlood flood-color="#fff" result="bg"/><feBlend in="SourceGraphic" in2="bg"/></filter><mask id="mask-2" x="4.6" y="6.44" width="65.43" height="64.78" maskUnits="userSpaceOnUse"><g class="cls-1"><path class="cls-2" d="M17.37,18.06c13.87-13.32,36-15.91,47.66-4s1,22.71-12.21,39.19C41.92,66.8,23.2,78.12,11.57,66.19S3.5,31.39,17.37,18.06Z"/></g></mask><radialGradient id="Áåçûìÿííûé_ãðàäèåíò_883" cx="972.4" cy="-1103.12" r="59.65" gradientTransform="matrix(0.03, -0.89, 0.91, -0.16, 1001.26, 707.1)" gradientUnits="userSpaceOnUse"><stop offset="0" stop-color="#fff"/><stop offset="0.77" stop-color="#f3f9f7"/></radialGradient></defs><title>star04</title><g class="cls-3"><g id="Layer_2" data-name="Layer 2"><g id="Layer_1-2" data-name="Layer 1"><ellipse class="cls-4" cx="55" cy="55" rx="54.99" ry="54.97"/><path class="cls-5" d="M13.53,19a45.4,45.4,0,1,1-2.92,3.66A55.1,55.1,0,1,0,13.53,19Z"/><path class="cls-6" d="M85.18,83.67C67.49,102.6,39.79,106.54,17.72,95.54A55,55,0,0,0,92.5,14.74c-.25-.23-.34,0-.59-.23A57.28,57.28,0,0,1,85.18,83.67Z"/><path class="cls-7" d="M61.64,60.3a17.68,17.68,0,0,0-5.64.92c-1.63.55-3.43,1.34-5,.58a3.83,3.83,0,0,1-.93-.68,11.79,11.79,0,0,0,.77-1.88c.61-2,.07-4.72-1.93-5.4s-3.91.95-5.74,2a10.55,10.55,0,0,1-15.68-9.42c0-2.11.4-4.84-1.5-5.76-1.7-.82-3.59.75-4.58,2.36s-1.87,3.58-3.68,4.12a4.25,4.25,0,0,1-4.51-2,12.47,12.47,0,0,1-1.54-5,14.61,14.61,0,0,1-.1-6A16,16,0,0,1,14.52,29a11.88,11.88,0,0,0,2.57-5.3c.25-2-.69-4.23-2.57-4.85l.18-1.18A54.7,54.7,0,0,0,.42,48.43C.22,50.68.11,53,.11,55.24A54.7,54.7,0,0,0,20.75,98l.56.44c.34.27.68.54,1,.8.61.45,1.23.89,1.85,1.31l.17.11a55,55,0,0,0,6,3.52c.52-.26.9-.48,1.4-.79,1.46-.91,2.93-2.38,2.63-4.08-.2-1.09-1.11-1.93-1.5-3-.55-1.46,0-3.07.2-4.62s-.07-3.45-1.5-4.07c-2.38-1-3.22,1.69-4.88,2.67-2.61,1.52-6.5-1.32-8-3.31A15.25,15.25,0,0,1,16,75c.79-4.17,2.87-5.33,7.1-5.6,2.82-.19,5.51,1.08,8,2.48s4.83,3,7.73,3.35l.16.38a9,9,0,0,0,3.31,0c2.14.29,4.29.4,6-1.29,1.5-1.5,1.74-3.88,3.08-5.53,2.68-3.32,8.32-2.28,11.54-5.09.79-.69,1.4-1.94.74-2.76A2.38,2.38,0,0,0,61.64,60.3Z"/><path class="cls-8" d="M94.73,43.36c1.27-.86,3.34-.84,4,.53.59,1.13.18,2.94,1.37,3.42a1.56,1.56,0,0,0,1.77-.68,4.54,4.54,0,0,0,.6-2l.93-6.23c1,0,1.48,1.18,1.75,2.14s.82,2.12,1.81,2a1.15,1.15,0,0,0,.59-.23A54.89,54.89,0,0,0,93.15,16.7a40.12,40.12,0,0,1,2.38,6.58,18.71,18.71,0,0,1-.25,11.09c-1.49,4-4.77,7.23-6.41,11A1.62,1.62,0,0,0,91.62,47l.14-.18C92.7,45.64,93.45,44.22,94.73,43.36Z"/><path class="cls-9" d="M54.19.51a54.87,54.87,0,0,0-8.65.69,12,12,0,0,1,6.14,1.71c2.64,1.72,4.16,5.47,2.53,8.16a23.43,23.43,0,0,1-2.49,2.79,3.5,3.5,0,0,0-.91,3.43c.77,1.87,3.6,1.86,4.85,3.45s.49,3.69-.23,5.46-1.37,4-.13,5.43a3.65,3.65,0,0,0,4.43.46A10.68,10.68,0,0,0,63,28.64c.26,1.82.56,3.74,1.73,5.16s3.53,2,4.85.76c1.09-1.05,1.25-3,2.68-3.51a5.69,5.69,0,0,1,1.89,0c2.41,0,4.37-1.87,5.8-3.81a31.83,31.83,0,0,0,5.74-13.55,21.06,21.06,0,0,0,.31-3A54.77,54.77,0,0,0,54.19.51Z"/><path class="cls-8" d="M12.18,78.62a2.85,2.85,0,0,1-1.95-.07c-3.8-1.29-5.51-5.72-5.93-9.71S4.23,60.65,2.51,57a21.57,21.57,0,0,1-1.45-3.08,10.91,10.91,0,0,1,.17-5l1.82-9.47c.19-1,.53-2.16,1.5-2.43,1.35-.38,2.33,1.31,2.52,2.7.39,3-.32,6.14.68,9a8.17,8.17,0,0,0,10.7,4.52c-.48.52-.05,1.45.62,1.69a3,3,0,0,0,2.08-.26,4.2,4.2,0,0,1,2.06-.49,3,3,0,0,1,2.18,2.09,18.91,18.91,0,0,0,1.12,3c1.2,1.93,3.69,2.47,5.83,3.23s4.46,2.5,4.09,4.75A3.55,3.55,0,0,1,34,69.88a6.7,6.7,0,0,1-3.69.05c-2.81-.65-5.3-2.3-8.06-3.17s-6.21-.74-8,1.53a7.39,7.39,0,0,0-1,5.7,10.53,10.53,0,0,1,.24,2.56A2.49,2.49,0,0,1,12.18,78.62Z"/><path class="cls-10" d="M86.87,25.65c1,3.32-2.68,6.6-2.06,10a2.83,2.83,0,0,0,1.25,2c1.23.72,2.82,0,3.89-.89a10.1,10.1,0,0,0,3.36-7,12.63,12.63,0,0,0-2.13-7.58,5.47,5.47,0,0,0-2.7-2.36A2.5,2.5,0,0,0,85.4,21a3,3,0,0,0,.34,2.4A16.67,16.67,0,0,1,86.87,25.65Z"/><path class="cls-11" d="M94.25,50.84A2.76,2.76,0,0,0,91,49.05c-1.33.5-1.73,2.13-2.15,3.49a15.34,15.34,0,0,1-3.28,5.8,4.7,4.7,0,0,1-1.79,1.34,1.92,1.92,0,0,1-2.07-.44c-.83-1-.08-2.45.64-3.53A41.89,41.89,0,0,0,87,46.25a6.27,6.27,0,0,0,.47-2.62A2.36,2.36,0,0,0,86,41.57c-1.27-.39-2.55.79-2.94,2.06a32.29,32.29,0,0,0-.49,3.95l-.71-.34A34.19,34.19,0,0,1,56.27,68.37a5.15,5.15,0,0,0-3,1.13c-.9,1-.86,2.41-1,3.71a9.26,9.26,0,0,1-14.54,6.26c-1.36-1-2.85-2.39-4.42-1.83A2.66,2.66,0,0,0,32,80.92a5.41,5.41,0,0,0,2.57,2.83,11.74,11.74,0,0,0,7.42,1.53c1.76-.23,3.74-.81,5.16.25.92.68,1.31,1.88,2.07,2.73,1.36,1.51,3.63,1.72,5.66,1.61a9.83,9.83,0,0,0,5.05-1.39,4.32,4.32,0,0,0,1.94-4.56c-.29-1-1-1.78-1.22-2.78a3.69,3.69,0,0,1,1.26-3.29A11,11,0,0,1,65,76a3.35,3.35,0,0,1,2.54-.39c1.33.54,1.37,2.41,1.06,3.81s-.67,3.12.39,4.09,2.86.41,4.17-.3a42.61,42.61,0,0,0,21.1-28.28A7.17,7.17,0,0,0,94.25,50.84Z"/><path class="cls-12" d="M47.37,82.35a7,7,0,0,1-7,.06c-1.61-.94-2.93-2.59-4.79-2.81a2.19,2.19,0,0,0-1.46.28,1.3,1.3,0,0,0-.61,1.29c.14.72,1,1.08,1.68,1.29a29.06,29.06,0,0,0,7.72,1.37,43.15,43.15,0,0,0,7.59-.72,1,1,0,0,0,0-1.48,1.69,1.69,0,0,0-1.65-.15A9.66,9.66,0,0,0,47.37,82.35Z"/><path class="cls-12" d="M79.15,34.73A20.38,20.38,0,0,0,72.65,44a2.4,2.4,0,0,0,.12,2.41,2.18,2.18,0,0,0,2.1.35,8.89,8.89,0,0,0,5.21-4,17.9,17.9,0,0,0,2.21-6.33,2.33,2.33,0,0,0-.4-2.24C81.11,33.53,79.94,34.1,79.15,34.73Z"/><path class="cls-8" d="M62.07.49C65,4.91,65,11.24,61.67,15.43a11.61,11.61,0,0,0-2.23,3.2c-.41,1.24,0,2.92,1.31,3.24,2.21.56,3.56-3.23,5.83-3,1.55.15,2.24,2.1,2,3.64s-.93,3-.72,4.6,2.09,3,3.29,2c.92-.78.63-2.23.94-3.4.66-2.51,3.82-3.18,6-4.66,2.88-2,4-5.68,4.83-9.07a23.09,23.09,0,0,0,.75-3.86A54.73,54.73,0,0,0,62.07.49Z"/><path class="cls-12" d="M33.27,50.39c-.9,1.34.3,3.29,1.86,3.7s3.19-.24,4.64-1a10.08,10.08,0,0,1,4.55-1.49c.82,0,1.73.24,2.41-.23a1.78,1.78,0,0,0,.55-2A4.07,4.07,0,0,0,46,47.65a11.28,11.28,0,0,0-9.37-2.49,6.42,6.42,0,0,0-4.44,2.77C31.25,49.48,31.71,49.5,33.27,50.39Z"/><path class="cls-12" d="M96.7,45.09c-1.22.51-1,2.25-.78,3.54A20.76,20.76,0,0,1,93.59,63a29.1,29.1,0,0,0-2,3.53,5.14,5.14,0,0,0-.17,3.94l.71-.1A72.94,72.94,0,0,0,97.69,59.7,24.46,24.46,0,0,0,99.45,48a4.52,4.52,0,0,0-.72-2.16A1.8,1.8,0,0,0,96.7,45.09Z"/><path class="cls-5" d="M67.08,84.06a7,7,0,0,1-.56,4.23,3.62,3.62,0,0,1-3.55,2A1,1,0,0,1,62.3,90c-.36-.45.05-1.09.37-1.57a6.24,6.24,0,0,0-.29-7.24,2.21,2.21,0,0,1,3.2-.31A4.88,4.88,0,0,1,67.08,84.06Z"/><path class="cls-5" d="M53.91,53.62a6,6,0,0,0-2.12,3.2A2.07,2.07,0,0,0,52.24,59a2.44,2.44,0,0,0,1.83.23c2.73-.35,5.6-.76,7.83-2.38S65.46,52,64,49.65,59,47,56.6,48.34,56.11,51.92,53.91,53.62Z"/><path class="cls-13" d="M0,55A54.83,54.83,0,0,0,5,77.81C24.6,83,44.71,76.49,59.6,60.69,74.92,44.43,80.46,22.62,73.17,3.11A55,55,0,0,0,0,55Z"/><g class="cls-14"><path class="cls-15" d="M17.37,18.06c13.87-13.32,36-15.91,47.66-4s1,22.71-12.21,39.19C41.92,66.8,23.2,78.12,11.57,66.19S3.5,31.39,17.37,18.06Z"/></g><path class="cls-16" d="M110,55A55,55,0,0,0,43.58,1.22,54.75,54.75,0,0,1,79,6.76a54.12,54.12,0,0,1,22.54,73.48,54.89,54.89,0,0,1-74,22.3c-.37-.19-.72-.4-1.08-.59a54.92,54.92,0,0,0,24.11,7.83l1,.07,1.18.07,2,0h.33A55,55,0,0,0,110,55Z"/><path class="cls-7" d="M37.12,95.86c1.82.07,3.28,1.45,4.73,2.56a19.22,19.22,0,0,0,10,3.84v1.21a31,31,0,0,1-17.69-1.22c-2.27-.85-4.79-2.58-4.54-5C32,98.34,34.53,95.75,37.12,95.86Z"/></g></g></g></svg>